<?xml version="1.0" standalone="no"?>
<!DOCTYPE svg PUBLIC "-//W3C//DTD SVG 1.1//EN" "http://www.w3.org/Graphics/SVG/1.1/DTD/svg11.dtd" >
<svg xmlns="http://www.w3.org/2000/svg" xmlns:xlink="http://www.w3.org/1999/xlink" version="1.1">
<metadata>
Created by FontForge 20170731 at Fri Mar 13 16:23:32 2015
 By ,,,
Copyright (c) 2015 by Fontfabric LLC. All rights reserved.
</metadata>
<defs>
<font id="MullerUltraLight" horiz-adv-x="577" >
  <font-face 
    font-family="Muller UltraLight"
    font-weight="250"
    font-stretch="normal"
    units-per-em="1000"
    panose-1="0 0 0 0 0 0 0 0 0 0"
    ascent="780"
    descent="-220"
    x-height="480"
    cap-height="700"
    bbox="-158 -231.045 1219 932"
    underline-thickness="50"
    underline-position="-225"
    unicode-range="U+0020-25CA"
  />
<missing-glyph horiz-adv-x="283" 
 />
    <glyph glyph-name="f_f" unicode="ff" horiz-adv-x="666" 
d="M689 662q-41 23 -108 23q-126 0 -126 -120v-85h205v-36h-205v-444h-38v444h-272v-444h-38v444h-84v36h84v57q0 76 48 117t122 41q85 0 158 -48q36 74 139 74q65 0 115 -23v-36zM145 480h272v87q0 25 5 48q-64 44 -144 44q-60 0 -96.5 -32t-36.5 -90v-57z" />
    <glyph glyph-name="f_f_i" unicode="ffi" horiz-adv-x="845" 
d="M145 0h-38v444h-84v36h84v57q0 76 49 117t127 41q81 0 157 -50q46 70 147 70q78 0 153 -43v-39q-72 46 -152 46q-60 0 -96.5 -31.5t-36.5 -88.5v-79h305v-480h-38v444h-267v-444h-38v444h-272v-444zM145 537v-57h272v79q0 31 9 56q-66 44 -142 44q-64 0 -101.5 -32
t-37.5 -90z" />
    <glyph glyph-name="f_f_l" unicode="ffl" horiz-adv-x="855" 
d="M732 680v16l38 11v-707h-38v644q-65 35 -144 35q-60 0 -96.5 -32.5t-36.5 -93.5v-73h184v-36h-184v-444h-38v444h-272v-444h-38v444h-84v36h84v57q0 76 49 117t127 41q79 0 159 -51q43 71 145 71q77 0 145 -35zM417 480v73q0 31 10 61q-65 45 -143 45q-64 0 -101.5 -32
t-37.5 -90v-57h272z" />
    <glyph glyph-name=".notdef" horiz-adv-x="283" 
 />
    <glyph glyph-name=".null" horiz-adv-x="0" 
 />
    <glyph glyph-name="nonmarkingreturn" horiz-adv-x="333" 
 />
    <glyph glyph-name="space" unicode=" " horiz-adv-x="263" 
 />
    <glyph glyph-name="exclam" unicode="!" horiz-adv-x="205" 
d="M120 177h-34l-3 523h40zM132 22q0 -13 -8.5 -21t-21.5 -8q-12 0 -20.5 8t-8.5 21t8.5 21t20.5 8q13 0 21.5 -8t8.5 -21z" />
    <glyph glyph-name="quotedbl" unicode="&#x22;" horiz-adv-x="267" 
d="M195 556h-27v144h38zM95 556h-27v144h38z" />
    <glyph glyph-name="numbersign" unicode="#" horiz-adv-x="648" 
d="M127 0h-39l44 185h-92v34h100l58 243h-108v34h116l43 185h39l-44 -185h234l43 185h39l-44 -185h91v-34h-99l-57 -243h106v-34h-114l-44 -185h-39l44 185h-234zM237 462l-58 -243h234l57 243h-233z" />
    <glyph glyph-name="dollar" unicode="$" horiz-adv-x="569" 
d="M300 -130h-34v120q-123 6 -215 58v40q107 -61 239 -61q89 0 143.5 32t54.5 102q0 45 -24 76.5t-62 49t-84.5 31t-93 27.5t-84.5 33.5t-62 54.5t-24 84q0 81 60.5 125t151.5 48v120h34v-120q105 -3 185 -48v-39q-87 50 -200 50q-84 0 -137.5 -33.5t-53.5 -101.5
q0 -42 24 -72t62 -46.5t84.5 -29.5t93 -27.5t84.5 -34.5t62 -56.5t24 -87.5q0 -88 -64 -131t-164 -44v-119z" />
    <glyph glyph-name="percent" unicode="%" horiz-adv-x="879" 
d="M255 -60h-39l409 820h39zM339 564q0 -69 -44 -108t-107 -39t-107.5 39t-44.5 108t44.5 108t107.5 39t107 -39t44 -108zM73 564q0 -52 32.5 -82.5t83.5 -30.5q49 0 82 31t33 82t-33 82t-82 31q-51 0 -83.5 -30.5t-32.5 -82.5zM843 136q0 -69 -44 -108t-107 -39t-107.5 39
t-44.5 108t44.5 108t107.5 39t107 -39t44 -108zM577 136q0 -52 32.5 -82.5t83.5 -30.5q49 0 82 31t33 82t-33 82t-82 31q-51 0 -83.5 -30.5t-32.5 -82.5z" />
    <glyph glyph-name="ampersand" unicode="&#x26;" horiz-adv-x="688" 
d="M551 113l125 -113h-48l-99 88q-96 -99 -248 -99q-105 0 -165.5 49.5t-60.5 124.5q0 111 161 206q-97 95 -97 173q0 69 56.5 119t146.5 50q77 0 125.5 -39t48.5 -101q0 -18 -6 -35.5t-14 -31t-25 -29.5t-28.5 -25.5t-36 -24.5t-35.5 -21.5t-39 -21.5t-36 -20l6 -6
l240 -217q60 78 58 178h40q0 -114 -69 -204zM322 674q-75 0 -119.5 -39t-44.5 -93q0 -66 91 -155q7 4 38 20t42 23t37 22.5t37.5 26t26.5 26t21 31t6 32.5q0 47 -37 76.5t-98 29.5zM95 164q0 -61 50 -99.5t138 -38.5q133 0 218 88l-253 225q-1 1 -2.5 2t-2.5 2
q-68 -39 -108 -81t-40 -98z" />
    <glyph glyph-name="quotesingle" unicode="'" horiz-adv-x="167" 
d="M95 556h-27v144h38z" />
    <glyph glyph-name="parenleft" unicode="(" horiz-adv-x="257" 
d="M197 808h38q-67 -95 -105.5 -217t-38.5 -241t38.5 -241t105.5 -217h-38q-68 97 -108 218t-40 240t40 240t108 218z" />
    <glyph glyph-name="parenright" unicode=")" horiz-adv-x="257" 
d="M22 808h38q69 -97 108.5 -218t39.5 -240q0 -118 -40 -239.5t-108 -218.5h-38q67 95 105.5 217t38.5 241t-38.5 241t-105.5 217z" />
    <glyph glyph-name="asterisk" unicode="*" horiz-adv-x="427" 
d="M213 525l-82 -119l-29 21l87 113l-135 40l13 34l132 -48l-4 134h36l-4 -134l133 48l12 -34l-135 -40l87 -113l-29 -21z" />
    <glyph glyph-name="plus" unicode="+" horiz-adv-x="534" 
d="M285 368h197v-36h-197v-197h-36v197h-197v36h197v197h36v-197z" />
    <glyph glyph-name="comma" unicode="," horiz-adv-x="203" 
d="M70 -144h-32l51 218h40z" />
    <glyph glyph-name="hyphen" unicode="-" horiz-adv-x="485" 
d="M69 262h347v-36h-347v36z" />
    <glyph glyph-name="period" unicode="." horiz-adv-x="198" 
d="M129 23q0 -14 -8.5 -22t-21.5 -8t-21.5 8t-8.5 22q0 13 9 21t21 8q13 0 21.5 -8t8.5 -21z" />
    <glyph glyph-name="slash" unicode="/" horiz-adv-x="406" 
d="M69 -57h-30l297 814h30z" />
    <glyph glyph-name="zero" unicode="0" horiz-adv-x="702" 
d="M57 340q0 159 75 255t219 96q145 0 219.5 -95.5t74.5 -255.5t-74.5 -255.5t-219.5 -95.5q-144 0 -219 96t-75 255zM605 340q0 146 -64 229.5t-190 83.5t-190 -83.5t-64 -229.5t64 -229.5t190 -83.5t190 83.5t64 229.5z" />
    <glyph glyph-name="one" unicode="1" horiz-adv-x="406" 
d="M219 680h28v-642h138v-38h-331v38h153v599l-153 -58v38z" />
    <glyph glyph-name="two" unicode="2" horiz-adv-x="562" 
d="M72 628q90 63 207 63q98 0 159 -46t61 -124q0 -34 -12 -64t-28 -51.5t-45.5 -45.5t-52 -38t-59.5 -36q-102 -59 -135 -88q-75 -67 -77 -160h417v-38h-460v22q0 46 13.5 85.5t31.5 65.5t51 53.5t57 42.5t64 38q3 2 5 3t4.5 2.5t4.5 2.5q40 24 56 34t46.5 33t43 40t24 43.5
t11.5 56.5q0 61 -50 96.5t-133 35.5q-106 0 -204 -65v39z" />
    <glyph glyph-name="three" unicode="3" horiz-adv-x="586" 
d="M502 510q0 -55 -33 -98.5t-94 -56.5q67 -13 111 -56.5t44 -118.5q0 -90 -65 -140.5t-168 -50.5q-144 0 -237 45v39q96 -47 234 -46q90 0 144 40t54 115q0 77 -55.5 114t-142.5 37h-100v38l96 -1q85 0 129 39.5t44 97.5q0 64 -49 105.5t-136 41.5q-107 0 -206 -47v39
q93 45 210 45q100 0 160 -52t60 -129z" />
    <glyph glyph-name="four" unicode="4" horiz-adv-x="637" 
d="M420 680h43v-477h142v-38h-142v-165h-39v165h-397v35zM424 203v423l-347 -423h347z" />
    <glyph glyph-name="five" unicode="5" horiz-adv-x="574" 
d="M99 680h391v-38h-353l-18 -268q75 24 154 24q108 0 180 -50.5t72 -153.5q0 -92 -68 -148.5t-180 -56.5q-125 0 -217 46v38q94 -47 213 -47q98 0 155 45.5t57 122.5q0 86 -62.5 126.5t-160.5 40.5q-93 0 -184 -32z" />
    <glyph glyph-name="six" unicode="6" horiz-adv-x="607" 
d="M98 313q106 100 240 100q93 0 159 -54.5t66 -154.5t-66 -157.5t-166 -57.5q-134 0 -203.5 88t-69.5 244q0 189 80 279.5t220 90.5q80 0 149 -37v-38q-69 37 -148 37q-121 0 -191 -80t-70 -253v-7zM100 270q11 -117 69.5 -180.5t159.5 -63.5q85 0 139.5 46t54.5 131
q0 87 -55 130t-138 43q-63 0 -124 -27.5t-106 -78.5z" />
    <glyph glyph-name="seven" unicode="7" horiz-adv-x="520" 
d="M35 680h466v-34l-312 -646h-43l310 642h-421v38z" />
    <glyph glyph-name="eight" unicode="8" horiz-adv-x="643" 
d="M81 524q0 69 61 118t179 49q110 0 175.5 -53t66.5 -124q1 -59 -28.5 -107t-83.5 -79q64 -26 100.5 -64.5t36.5 -98.5q0 -73 -68.5 -124.5t-196.5 -51.5t-197.5 55.5t-69.5 138.5q0 60 34.5 112t97.5 83q-107 52 -107 146zM325 330q-64 17 -101 32q-61 -26 -94.5 -73
t-33.5 -103q0 -72 58.5 -116t169.5 -44q104 0 164 40t60 98q0 30 -12 53.5t-30 39t-47 29t-55.5 22t-63.5 18.5q-10 3 -15 4zM523 508q0 58 -54.5 102t-148.5 44q-97 0 -148.5 -37.5t-51.5 -91.5q0 -36 16 -62.5t47 -43.5t57.5 -27t66.5 -21q10 -3 15 -4q42 -11 93 -26
q51 27 79.5 70.5t28.5 96.5z" />
    <glyph glyph-name="nine" unicode="9" horiz-adv-x="607" 
d="M44 476q0 100 66 157.5t166 57.5q134 0 203.5 -88t69.5 -244q0 -189 -80 -279.5t-220 -90.5q-80 0 -149 37v38q69 -37 148 -37q122 0 192 80t70 253v8q-107 -101 -241 -101q-93 0 -159 54.5t-66 154.5zM84 477q0 -87 55.5 -130t138.5 -43q63 0 124 28t106 79
q-11 116 -70 179.5t-160 63.5q-85 0 -139.5 -46t-54.5 -131z" />
    <glyph glyph-name="colon" unicode=":" horiz-adv-x="198" 
d="M129 402q0 -13 -8.5 -21t-21.5 -8q-12 0 -21 8t-9 21t9 21t21 8q13 0 21.5 -8t8.5 -21zM129 23q0 -14 -8.5 -22t-21.5 -8t-21.5 8t-8.5 22q0 13 9 21t21 8q13 0 21.5 -8t8.5 -21z" />
    <glyph glyph-name="semicolon" unicode=";" horiz-adv-x="288" 
d="M119 -144h-32l51 218h40zM177 443q0 -13 -8.5 -21t-21.5 -8q-12 0 -21 8t-9 21q0 14 8.5 22t21.5 8t21.5 -8t8.5 -22z" />
    <glyph glyph-name="less" unicode="&#x3c;" horiz-adv-x="483" 
d="M407 209v-38l-361 159v40l361 159v-38l-322 -141z" />
    <glyph glyph-name="equal" unicode="=" horiz-adv-x="543" 
d="M470 422h-397v37h397v-37zM470 241h-397v37h397v-37z" />
    <glyph glyph-name="greater" unicode="&#x3e;" horiz-adv-x="483" 
d="M437 330l-361 -159v38l322 141l-322 141v38l361 -159v-40z" />
    <glyph glyph-name="question" unicode="?" horiz-adv-x="488" 
d="M251 192h-38q0 37 20 75t48.5 70t57 64.5t48.5 70t20 73.5q0 61 -48.5 94.5t-133.5 33.5q-95 0 -187 -56v38q88 56 192 56q98 0 157.5 -43t59.5 -120q0 -40 -20 -80t-49 -73.5t-58 -65.5t-49 -68t-20 -69zM261 23q0 -14 -8.5 -22t-21.5 -8t-21.5 8t-8.5 22q0 13 9 21
t21 8q13 0 21.5 -8t8.5 -21z" />
    <glyph glyph-name="at" unicode="@" horiz-adv-x="1056" 
d="M50 240q0 91 32.5 175t92.5 150.5t153.5 106t207.5 39.5q88 0 165 -26.5t131 -70.5t93 -100t57.5 -116t18.5 -119q0 -131 -50 -200.5t-131 -69.5q-61 0 -98 32t-44 93q-24 -47 -69 -74.5t-100 -27.5q-85 0 -140 57t-55 149q0 91 55 148.5t140 57.5q56 0 100 -28t66 -71
v90h37v-280q0 -53 27.5 -82.5t80.5 -29.5q65 0 103.5 62t38.5 174q0 68 -28.5 137t-80 126.5t-135 94t-182.5 36.5q-104 0 -190 -36t-141 -96.5t-85 -138t-30 -162.5q0 -101 38 -184.5t102.5 -137t149 -82.5t178.5 -29q121 0 223 36v-38q-101 -36 -224 -36
q-101 0 -191.5 31.5t-161.5 89.5t-112.5 148.5t-41.5 201.5zM675 290q-16 50 -60 84t-102 34q-69 0 -115 -46.5t-46 -123.5t46 -123.5t115 -46.5q58 0 102 34t60 84v104z" />
    <glyph glyph-name="A" unicode="A" horiz-adv-x="708" 
d="M57 0h-43l318 700h45l317 -700h-42l-93 204h-410zM347 642l-181 -401h378l-181 401q-1 3 -3.5 9t-4.5 9q-1 -3 -4 -9t-4 -9z" />
    <glyph glyph-name="B" unicode="B" horiz-adv-x="678" 
d="M101 700h261q108 0 171.5 -43.5t63.5 -131.5q0 -67 -39 -106.5t-98 -50.5q30 -6 56 -17t52 -30.5t41.5 -53.5t15.5 -78q0 -47 -18 -82.5t-44.5 -55t-64.5 -32t-70.5 -16t-69.5 -3.5h-257v700zM585 193q0 36 -14.5 64t-35.5 44.5t-49 27t-53 14.5t-49 4h-243v-309h210
q37 0 65 2.5t61.5 11.5t55.5 25t37 45.5t15 70.5zM557 520q0 142 -198 142h-218v-277h251q68 0 116.5 36t48.5 99z" />
    <glyph glyph-name="C" unicode="C" horiz-adv-x="657" 
d="M51 342q0 88 31.5 160t83.5 116.5t115.5 68.5t131.5 24q108 0 196 -48v-40q-83 50 -191 50q-61 0 -118 -21t-104.5 -60.5t-76 -104.5t-28.5 -145q0 -77 29 -139t76.5 -99.5t105 -57t118.5 -19.5q114 0 197 51v-40q-89 -49 -204 -49q-67 0 -130.5 22.5t-115.5 64.5
t-84 111.5t-32 154.5z" />
    <glyph glyph-name="D" unicode="D" horiz-adv-x="731" 
d="M101 700h207q181 0 276 -96.5t95 -253.5t-95 -253.5t-276 -96.5h-207v700zM639 350q0 144 -84 228t-247 84h-167v-624h167q163 0 247 84t84 228z" />
    <glyph glyph-name="E" unicode="E" horiz-adv-x="624" 
d="M101 700h459v-38h-419v-291h389v-38h-389v-295h428v-38h-468v700z" />
    <glyph glyph-name="F" unicode="F" horiz-adv-x="597" 
d="M101 700h461v-38h-421v-300h392v-38h-392v-324h-40v700z" />
    <glyph glyph-name="G" unicode="G" horiz-adv-x="708" 
d="M52 350q0 90 31.5 161t85 113.5t118 64.5t134.5 22q112 0 204 -47v-39q-85 48 -199 48q-64 0 -122 -19t-106.5 -56t-77 -101t-28.5 -147q0 -84 29 -148t78 -101t107.5 -55.5t124.5 -18.5q96 0 173 37v303h39v-330q-98 -48 -215 -48q-73 0 -138.5 20.5t-119.5 62.5
t-86 113.5t-32 164.5z" />
    <glyph glyph-name="H" unicode="H" horiz-adv-x="766" 
d="M625 700h40v-700h-40v333h-484v-333h-40v700h40v-329h484v329z" />
    <glyph glyph-name="I" unicode="I" horiz-adv-x="242" 
d="M101 700h40v-700h-40v700z" />
    <glyph glyph-name="J" unicode="J" horiz-adv-x="521" 
d="M163 700h264v-513q0 -97 -59.5 -147t-157.5 -50q-112 0 -179 43v40q67 -45 173 -45q85 0 134 39.5t49 120.5v474h-224v38z" />
    <glyph glyph-name="K" unicode="K" horiz-adv-x="656" 
d="M141 0h-40v700h40v-322h202l237 322h46l-252 -341l278 -359h-47l-262 340h-202v-340z" />
    <glyph glyph-name="L" unicode="L" horiz-adv-x="576" 
d="M101 700h40v-662h418v-38h-458v700z" />
    <glyph glyph-name="M" unicode="M" horiz-adv-x="898" 
d="M764 700h33v-700h-40v623l-296 -435h-24l-296 435v-623h-40v700h32l316 -463z" />
    <glyph glyph-name="N" unicode="N" horiz-adv-x="766" 
d="M141 0h-40v700h36l488 -633v61v572h40v-700h-35l-489 632v-59v-573z" />
    <glyph glyph-name="O" unicode="O" horiz-adv-x="825" 
d="M50 350q0 67 23 130.5t66.5 115.5t114.5 83.5t158 31.5q88 0 159 -31.5t114.5 -83.5t66.5 -115.5t23 -130.5t-23 -130.5t-66.5 -115.5t-114.5 -83.5t-159 -31.5q-87 0 -158 31.5t-114.5 83.5t-66.5 115.5t-23 130.5zM735 350q0 61 -20.5 117.5t-59 103t-102 74.5
t-141.5 28t-141 -28t-101.5 -74.5t-59 -103t-20.5 -117.5t20.5 -117.5t59 -103t101.5 -74.5t141 -28t141.5 28t102 74.5t59 103t20.5 117.5z" />
    <glyph glyph-name="P" unicode="P" horiz-adv-x="653" 
d="M101 700h223q293 0 293 -219q0 -220 -293 -220h-183v-261h-40v700zM577 481q0 181 -251 181h-185v-363h185q251 0 251 182z" />
    <glyph glyph-name="Q" unicode="Q" horiz-adv-x="825" 
d="M776 -33l-26 -26l-116 116q-95 -68 -222 -68q-87 0 -158 31.5t-114.5 83.5t-66.5 115.5t-23 130.5t23 130.5t66.5 115.5t114.5 83.5t158 31.5q88 0 159 -31.5t114.5 -83.5t66.5 -115.5t23 -130.5q0 -76 -29 -147t-84 -122zM90 350q0 -61 20.5 -117.5t59 -103t101.5 -74.5
t141 -28q112 0 194 59l-152 152l25 25l155 -154q50 45 75.5 109t25.5 132q0 61 -20.5 117.5t-59 103t-102 74.5t-141.5 28t-141 -28t-101.5 -74.5t-59 -103t-20.5 -117.5z" />
    <glyph glyph-name="R" unicode="R" horiz-adv-x="685" 
d="M141 0h-40v700h266q64 0 118 -18.5t93 -66.5t39 -120q0 -96 -62.5 -145.5t-152.5 -57.5l260 -292h-49l-257 289h-215v-289zM141 662v-335h228q85 0 146.5 40.5t61.5 127.5t-61 127t-147 40h-228z" />
    <glyph glyph-name="S" unicode="S" horiz-adv-x="568" 
d="M57 537q0 85 65 129.5t158 44.5q114 0 202 -49v-39q-87 50 -200 50q-79 0 -132 -33.5t-53 -101.5q0 -42 24 -73t62 -49.5t84 -33.5t92.5 -31.5t84.5 -38.5t62 -59.5t24 -88.5q0 -89 -68 -132t-172 -43q-133 0 -238 59v40q107 -61 236 -61q89 0 145.5 32t56.5 102
q0 45 -24 77.5t-62 52t-84 35t-92.5 32t-84.5 37.5t-62 57t-24 85z" />
    <glyph glyph-name="T" unicode="T" horiz-adv-x="594" 
d="M14 700h566v-38h-263v-662h-40v662h-263v38z" />
    <glyph glyph-name="U" unicode="U" horiz-adv-x="750" 
d="M617 700h40v-455q0 -69 -21.5 -120t-61 -80t-89 -42.5t-110.5 -13.5t-110.5 13.5t-89 42.5t-61 80t-21.5 120v455h40v-454q0 -219 242 -219t242 219v454z" />
    <glyph glyph-name="V" unicode="V" horiz-adv-x="681" 
d="M361 0h-41l-302 700h43l279 -655l280 655h43z" />
    <glyph glyph-name="W" unicode="W" horiz-adv-x="993" 
d="M925 700h43l-223 -700h-43l-206 628l-205 -628h-43l-223 700h43l202 -649l209 643h36l208 -643z" />
    <glyph glyph-name="X" unicode="X" horiz-adv-x="614" 
d="M55 0h-47l276 360l-261 340h47l237 -309l237 309h47l-260 -340l275 -360h-47l-252 329z" />
    <glyph glyph-name="Y" unicode="Y" horiz-adv-x="634" 
d="M337 0h-40v279l-276 421h45l251 -384l251 384h45l-276 -421v-279z" />
    <glyph glyph-name="Z" unicode="Z" horiz-adv-x="574" 
d="M543 0h-516v35l458 627h-441v38h490v-35l-459 -627h468v-38z" />
    <glyph glyph-name="bracketleft" unicode="[" horiz-adv-x="249" 
d="M226 -110h-150v920h150v-38h-110v-844h110v-38z" />
    <glyph glyph-name="backslash" unicode="\" horiz-adv-x="406" 
d="M367 -57h-30l-297 814h30z" />
    <glyph glyph-name="bracketright" unicode="]" horiz-adv-x="249" 
d="M173 -110h-150v38h111v844h-111v38h150v-920z" />
    <glyph glyph-name="asciicircum" unicode="^" horiz-adv-x="495" 
d="M96 398h-43l177 302h34l178 -302h-43l-152 260z" />
    <glyph glyph-name="underscore" unicode="_" horiz-adv-x="434" 
d="M434 -132h-434v36h434v-36z" />
    <glyph glyph-name="grave" unicode="`" horiz-adv-x="170" 
d="M148 776h-42l-94 137h48z" />
    <glyph glyph-name="a" unicode="a" horiz-adv-x="540" 
d="M450 77q0 -46 48 -46q16 0 37 7v-32q-24 -8 -47 -8q-33 0 -54.5 19t-21.5 59v13q-75 -100 -208 -100q-68 0 -116.5 36t-48.5 104q0 79 60.5 116t148.5 37q83 0 164 -26v44q0 71 -43 113t-122 42q-90 0 -171 -31v37q85 30 174 30q95 0 147.5 -51.5t52.5 -143.5v-219z
M78 130q0 -52 39 -79.5t94 -27.5q62 0 115.5 29.5t85.5 83.5v87q-81 26 -160 26q-73 0 -123.5 -28.5t-50.5 -90.5z" />
    <glyph glyph-name="b" unicode="b" horiz-adv-x="615" 
d="M81 700h38v-330q30 53 84.5 87t125.5 34q103 0 171 -69.5t68 -181.5t-68 -181.5t-171 -69.5q-71 0 -126 34.5t-87 90.5v-114h-35v700zM530 240q0 99 -58 157t-147 58q-72 0 -127.5 -41t-78.5 -104v-140q23 -63 78.5 -104t127.5 -41q89 0 147 58.5t58 156.5z" />
    <glyph glyph-name="c" unicode="c" horiz-adv-x="493" 
d="M47 236q0 124 77 189.5t181 65.5q84 0 143 -39v-37q-58 40 -139 40q-92 0 -158 -55t-66 -163q0 -103 63 -157.5t152 -54.5q86 0 153 38v-38q-68 -36 -157 -36q-102 0 -175.5 63.5t-73.5 183.5z" />
    <glyph glyph-name="d" unicode="d" horiz-adv-x="615" 
d="M496 700h38v-700h-35v114q-32 -56 -87.5 -90.5t-125.5 -34.5q-104 0 -171.5 69.5t-67.5 181.5t67.5 181.5t171.5 69.5q70 0 125 -34t85 -87v330zM496 310q-24 63 -79.5 104t-127.5 41q-89 0 -146.5 -58t-57.5 -157q0 -98 58 -156.5t146 -58.5q72 0 127.5 41t79.5 104v140
z" />
    <glyph glyph-name="e" unicode="e" horiz-adv-x="546" 
d="M47 240q0 116 70 183.5t165 67.5q52 0 93.5 -17t66 -44.5t41.5 -62.5t18.5 -72.5t-3.5 -73.5h-413q4 -98 69.5 -147t159.5 -49q91 0 156 38v-38q-66 -36 -161 -36q-112 0 -187 63.5t-75 187.5zM465 255q4 33 -4 66.5t-28 64t-58.5 50t-90.5 19.5q-81 0 -138.5 -53.5
t-60.5 -146.5h380z" />
    <glyph glyph-name="f" unicode="f" horiz-adv-x="356" 
d="M145 0h-38v444h-84v36h84v77q0 80 45 117t112 37q65 0 115 -23v-36q-41 23 -108 23q-126 0 -126 -120v-75h205v-36h-205v-444z" />
    <glyph glyph-name="g" unicode="g" horiz-adv-x="615" 
d="M47 240q0 112 67.5 181.5t171.5 69.5q70 0 125.5 -34.5t87.5 -90.5v114h35v-480q0 -115 -73.5 -173t-180.5 -58q-103 0 -190 46v37q91 -47 186 -47t157.5 48t62.5 147v111q-30 -53 -85 -87.5t-125 -34.5q-104 0 -171.5 69.5t-67.5 181.5zM496 310q-24 63 -79.5 104
t-127.5 41q-89 0 -146.5 -58t-57.5 -157q0 -98 58 -156.5t146 -58.5q72 0 127.5 40t79.5 101v144z" />
    <glyph glyph-name="h" unicode="h" 
d="M81 700h38v-315q30 43 79.5 74.5t113.5 31.5q82 0 136 -53.5t54 -142.5v-295h-38v291q0 78 -43.5 121t-111.5 43q-64 0 -113 -35t-77 -85v-335h-38v700z" />
    <glyph glyph-name="i" unicode="i" horiz-adv-x="208" 
d="M123 0h-38v480h38v-480zM132 620q0 -28 -28 -28t-28 28q0 27 28 27t28 -27z" />
    <glyph glyph-name="j" unicode="j" horiz-adv-x="208" 
d="M123 -109q0 -65 -35 -93.5t-87 -28.5q-36 0 -70 12v36q25 -11 61 -11q93 0 93 89v585h38v-589zM131 620q0 -28 -28 -28q-11 0 -19.5 7.5t-8.5 20.5t8.5 20t19.5 7q28 0 28 -27z" />
    <glyph glyph-name="k" unicode="k" horiz-adv-x="498" 
d="M494 0h-46l-209 229h-120v-229h-38v700h38v-435h123l180 215h45l-195 -234z" />
    <glyph glyph-name="l" unicode="l" horiz-adv-x="208" 
d="M85 730h38v-730h-38v730z" />
    <glyph glyph-name="m" unicode="m" horiz-adv-x="892" 
d="M119 0h-38v480h35v-92q28 40 75.5 71.5t108.5 31.5q56 0 97.5 -28t59.5 -75q79 103 187 103q78 0 125.5 -51t47.5 -131v-309h-38v308q0 65 -37.5 106t-101.5 41q-100 0 -171 -104q4 -17 4 -42v-309h-38v308q0 65 -37.5 106t-101.5 41q-58 0 -103.5 -34t-73.5 -79v-342z
" />
    <glyph glyph-name="n" unicode="n" 
d="M116 381q29 44 80 77t116 33q82 0 136 -53.5t54 -142.5v-295h-38v291q0 78 -43.5 121t-111.5 43q-64 0 -113 -35t-77 -85v-335h-38v480h35v-99z" />
    <glyph glyph-name="o" unicode="o" horiz-adv-x="591" 
d="M46 240q0 116 73.5 183.5t175.5 67.5q103 0 176.5 -67.5t73.5 -183.5t-73.5 -183.5t-176.5 -67.5q-102 0 -175.5 67.5t-73.5 183.5zM507 240q0 98 -61.5 156t-150.5 58t-150 -58t-61 -156t61 -156t150 -58t150.5 58t61.5 156z" />
    <glyph glyph-name="p" unicode="p" horiz-adv-x="615" 
d="M116 366q32 56 87 90.5t126 34.5q103 0 171 -69.5t68 -181.5t-68 -181.5t-171 -69.5q-71 0 -125.5 34t-84.5 87v-330h-38v700h35v-114zM530 240q0 98 -58 156.5t-147 58.5q-72 0 -127.5 -41t-78.5 -104v-140q23 -63 78.5 -104t127.5 -41q89 0 147 58t58 157z" />
    <glyph glyph-name="q" unicode="q" horiz-adv-x="615" 
d="M47 240q0 112 67.5 181.5t171.5 69.5q70 0 125.5 -34.5t87.5 -90.5v114h35v-700h-38v330q-30 -53 -85 -87t-125 -34q-104 0 -171.5 69.5t-67.5 181.5zM496 310q-24 63 -79.5 104t-127.5 41q-88 0 -146 -58.5t-58 -156.5q0 -99 57.5 -157t146.5 -58q72 0 127.5 41
t79.5 104v140z" />
    <glyph glyph-name="r" unicode="r" horiz-adv-x="344" 
d="M116 349q26 62 83.5 102.5t132.5 38.5v-38q-82 3 -138 -45t-75 -119v-288h-38v480h35v-131z" />
    <glyph glyph-name="s" unicode="s" horiz-adv-x="455" 
d="M51 365q0 63 50.5 94.5t120.5 31.5q94 0 165 -42v-36q-67 43 -163 43q-56 0 -95.5 -22.5t-39.5 -67.5q0 -34 24 -57t60.5 -33.5t79 -23.5t79 -26t60.5 -41.5t24 -69.5q0 -63 -53 -94.5t-131 -31.5q-49 0 -100.5 13t-83.5 35v38q34 -23 84.5 -36.5t97.5 -13.5
q65 0 106.5 22t41.5 67q0 39 -33.5 63t-82 36.5t-96.5 26.5t-81.5 45t-33.5 80z" />
    <glyph glyph-name="t" unicode="t" horiz-adv-x="376" 
d="M105 636l38 11v-167h208v-36h-208v-303q0 -115 118 -115q58 0 103 24v-36q-46 -23 -113 -23q-69 0 -107.5 37t-38.5 108v308h-90v36h90v156z" />
    <glyph glyph-name="u" unicode="u" 
d="M458 480h38v-480h-35v99q-29 -44 -80 -77t-116 -33q-85 0 -137.5 53t-52.5 143v295h38v-291q0 -78 42.5 -121t112.5 -43q64 0 113 35t77 85v335z" />
    <glyph glyph-name="v" unicode="v" horiz-adv-x="525" 
d="M463 480h42l-222 -480h-41l-222 480h42l201 -437z" />
    <glyph glyph-name="w" unicode="w" horiz-adv-x="799" 
d="M734 480h40l-180 -480h-39l-156 423l-155 -423h-39l-180 480h40l160 -435l156 429h36l157 -429z" />
    <glyph glyph-name="x" unicode="x" horiz-adv-x="483" 
d="M412 480h45l-193 -234l203 -246h-44l-182 219l-181 -219h-45l204 246l-193 234h44l171 -206z" />
    <glyph glyph-name="y" unicode="y" horiz-adv-x="531" 
d="M276 40l194 440h40l-250 -564q-35 -79 -74.5 -113t-89.5 -34q-26 0 -50 7v34q28 -7 46 -7q43 0 75.5 30.5t61.5 97.5l29 67l-243 482h41z" />
    <glyph glyph-name="z" unicode="z" horiz-adv-x="449" 
d="M45 480h358v-33l-324 -413h338v-34h-385v33l325 413h-312v34z" />
    <glyph glyph-name="braceleft" unicode="{" horiz-adv-x="271" 
d="M231 -76v-34q-115 -21 -115 97v251q0 47 -27.5 72t-61.5 23v34q34 -2 61.5 23t27.5 72v251q0 56 28 82.5t87 14.5v-34q-42 6 -58.5 -13t-16.5 -64v-239q0 -47 -19.5 -75t-49.5 -35q30 -7 49.5 -35t19.5 -75v-239q0 -45 16.5 -64t58.5 -13z" />
    <glyph glyph-name="bar" unicode="|" horiz-adv-x="192" 
d="M116 -100h-40v910h40v-910z" />
    <glyph glyph-name="braceright" unicode="}" horiz-adv-x="271" 
d="M155 -13q0 -118 -115 -97v34q42 -6 59 13t17 64v239q0 47 19.5 75t49.5 35q-30 7 -49.5 35t-19.5 75v239q0 45 -17 64t-59 13v34q59 12 87 -14.5t28 -82.5v-251q0 -47 27.5 -72t61.5 -23v-34q-34 2 -61.5 -23t-27.5 -72v-251z" />
    <glyph glyph-name="asciitilde" unicode="~" horiz-adv-x="581" 
d="M509 369q1 -40 -23.5 -65.5t-65.5 -25.5q-37 0 -126 33.5t-125 33.5q-27 0 -41.5 -15t-13.5 -40h-37q-1 41 23.5 66t65.5 25q38 0 126 -33t124 -33q26 0 41.5 14.5t14.5 39.5h37z" />
    <glyph glyph-name="exclamdown" unicode="&#xa1;" horiz-adv-x="191" 
d="M116 -216h-40l3 523h34zM125 462q0 -13 -8.5 -21t-21.5 -8q-12 0 -20.5 8t-8.5 21t8.5 21t20.5 8q13 0 21.5 -8t8.5 -21z" />
    <glyph glyph-name="cent" unicode="&#xa2;" horiz-adv-x="511" 
d="M320 25q79 5 137 38v-38q-58 -31 -137 -36v-109h-34v109q-98 5 -166.5 68.5t-68.5 178.5q0 117 69 182t166 72v110h34v-109q78 -3 132 -39v-37q-55 38 -132 40v-430zM286 454q-83 -8 -140 -63t-57 -154q0 -97 57 -151t140 -60v428z" />
    <glyph glyph-name="sterling" unicode="&#xa3;" horiz-adv-x="605" 
d="M560 0h-522v38h33q36 0 57 25t21 69v187h-82v38h82v106q0 114 64 170.5t156 56.5q81 0 143 -38v-38q-62 39 -139 39q-79 0 -131.5 -47t-52.5 -144v-105h247v-38h-247v-187q0 -72 -43 -94h414v-38z" />
    <glyph glyph-name="currency" unicode="&#xa4;" horiz-adv-x="572" 
d="M166 201l-64 -65l-27 27l63 63q-47 50 -47 124t47 124l-63 63l27 27l64 -65q52 38 120 38t120 -38l64 65l27 -27l-63 -63q46 -51 46 -124t-46 -124l63 -63l-27 -27l-64 65q-52 -38 -120 -38t-120 38zM129 350q0 -68 45.5 -110t111.5 -42t111 42t45 110q0 67 -45.5 109.5
t-110.5 42.5q-66 0 -111.5 -42t-45.5 -110z" />
    <glyph glyph-name="yen" unicode="&#xa5;" horiz-adv-x="635" 
d="M556 680h44l-244 -371h166v-34h-185v-87h185v-34h-185v-154h-39v154h-184v34h184v87h-184v34h164l-243 371h44l238 -364z" />
    <glyph glyph-name="brokenbar" unicode="&#xa6;" horiz-adv-x="210" 
d="M125 463h-40v347h40v-347zM125 -100h-40v347h40v-347z" />
    <glyph glyph-name="section" unicode="&#xa7;" horiz-adv-x="486" 
d="M422 88q0 -59 -51.5 -90.5t-127.5 -31.5q-103 0 -171 45v36q69 -47 169 -47q62 0 102.5 23t40.5 65q0 20 -9.5 36.5t-20.5 26.5t-35.5 20.5t-39 15t-47.5 14.5q-34 9 -51.5 14.5t-45 17.5t-41 25t-24.5 34.5t-11 48.5q0 81 98 133q-88 37 -88 112q0 59 49 92t120 33
q89 0 157 -40v-36q-66 42 -155 42q-56 0 -94.5 -24t-38.5 -66q0 -25 11 -42.5t35.5 -30t45 -19.5t57.5 -17q10 -3 15 -4q38 -10 61 -18.5t49.5 -24.5t39.5 -39.5t13 -56.5q0 -79 -104 -130q92 -38 92 -117zM243 235q3 -1 21.5 -6t27.5 -9q105 38 105 110q0 20 -8 36
t-19 26.5t-31 20t-36.5 15t-42.5 12.5q-56 16 -65 19q-39 -13 -69 -43t-30 -70q0 -21 9 -37t20 -26.5t34.5 -20.5t38 -14t45.5 -13z" />
    <glyph glyph-name="dieresis" unicode="&#xa8;" horiz-adv-x="282" 
d="M273 836q0 -13 -9 -22t-22 -9t-22 9t-9 22q0 12 9 21.5t22 9.5t22 -9.5t9 -21.5zM72 836q0 -13 -9 -22t-22 -9t-22 9t-9 22q0 12 9 21.5t22 9.5t22 -9.5t9 -21.5z" />
    <glyph glyph-name="copyright" unicode="&#xa9;" horiz-adv-x="854" 
d="M800 350q0 -86 -33.5 -157t-88 -114t-119.5 -66.5t-132 -23.5t-132 23.5t-119.5 66.5t-88 114t-33.5 157t33.5 157t88 114t119.5 66.5t132 23.5t132 -23.5t119.5 -66.5t88 -114t33.5 -157zM573 183q-65 -34 -133 -34q-79 0 -138 50t-59 143q0 103 62 156t146 53
q68 0 122 -35v-30q-53 34 -117 34q-74 0 -127 -44t-53 -133q0 -81 50 -122t121 -41q65 0 126 33v-30zM73 350q0 -82 31.5 -149t83 -108.5t113 -63.5t126.5 -22t127 22t113.5 63.5t83 108.5t31.5 149t-31.5 149t-83 108.5t-113.5 63.5t-127 22t-126.5 -22t-113 -63.5
t-83 -108.5t-31.5 -149z" />
    <glyph glyph-name="guillemotleft" unicode="&#xab;" horiz-adv-x="434" 
d="M371 66h-42l-119 169v10l119 169h42l-123 -174zM212 66h-42l-119 169v10l119 169h42l-123 -174z" />
    <glyph glyph-name="logicalnot" unicode="&#xac;" horiz-adv-x="579" 
d="M503 294h-38v150h-392v36h430v-186z" />
    <glyph glyph-name="registered" unicode="&#xae;" horiz-adv-x="854" 
d="M800 350q0 -86 -33.5 -157t-88 -114t-119.5 -66.5t-132 -23.5t-132 23.5t-119.5 66.5t-88 114t-33.5 157t33.5 157t88 114t119.5 66.5t132 23.5t132 -23.5t119.5 -66.5t88 -114t33.5 -157zM73 350q0 -82 31.5 -149t83 -108.5t113 -63.5t126.5 -22t127 22t113.5 63.5
t83 108.5t31.5 149t-31.5 149t-83 108.5t-113.5 63.5t-127 22t-126.5 -22t-113 -63.5t-83 -108.5t-31.5 -149zM325 150h-30v395h155q24 0 46.5 -5t46.5 -17.5t38.5 -38t14.5 -61.5q0 -90 -91 -110l114 -163h-34l-110 158q-11 -1 -29 -1h-121v-157zM325 515v-179h123
q118 0 118 87q0 92 -118 92h-123z" />
    <glyph glyph-name="macron" unicode="&#xaf;" horiz-adv-x="312" 
d="M24 840h264v-36h-264v36z" />
    <glyph glyph-name="degree" unicode="&#xb0;" horiz-adv-x="392" 
d="M343 573q0 -65 -43.5 -104.5t-103.5 -39.5t-103.5 39.5t-43.5 104.5t43.5 104.5t103.5 39.5t103.5 -39.5t43.5 -104.5zM79 573q0 -52 34 -83t83 -31t83 31t34 83t-34 83t-83 31t-83 -31t-34 -83z" />
    <glyph glyph-name="plusminus" unicode="&#xb1;" horiz-adv-x="578" 
d="M307 579v-197h197v-37h-197v-197h-36v197h-197v37h197v197h36zM504 0h-430v36h430v-36z" />
    <glyph glyph-name="acute" unicode="&#xb4;" horiz-adv-x="170" 
d="M71 776h-43l89 137h47z" />
    <glyph glyph-name="paragraph" unicode="&#xb6;" horiz-adv-x="601" 
d="M291 -220h-40v512q-101 0 -158.5 54t-57.5 150t57.5 150t158.5 54h265v-920h-39v882h-186v-882z" />
    <glyph glyph-name="periodcentered" unicode="&#xb7;" horiz-adv-x="199" 
d="M130 239q0 -13 -8.5 -21t-21.5 -8q-12 0 -21 8t-9 21t9 21t21 8q13 0 21.5 -8t8.5 -21z" />
    <glyph glyph-name="cedilla" unicode="&#xb8;" horiz-adv-x="211" 
d="M85 0h34l-21 -86q48 9 82.5 -8t35.5 -55t-30.5 -60t-87.5 -22q-54 0 -98 22v33q41 -23 94 -23q44 0 66.5 14.5t21.5 36.5q0 29 -39.5 38.5t-84.5 -3.5z" />
    <glyph glyph-name="guillemotright" unicode="&#xbb;" horiz-adv-x="434" 
d="M263 66h-41l123 174l-123 174h41l120 -169v-10zM104 66h-41l123 174l-123 174h41l120 -169v-10z" />
    <glyph glyph-name="onequarter" unicode="&#xbc;" horiz-adv-x="919" 
d="M763 408h37v-281h82v-31h-82v-96h-34v96h-234v30zM766 127v235l-192 -235h192zM210 -11h-22l456 722h22zM163 680h25v-376h77v-32h-209v32h99v340l-91 -34v32z" />
    <glyph glyph-name="onehalf" unicode="&#xbd;" horiz-adv-x="873" 
d="M206 -11h-22l456 722h22zM563 377q56 38 127 38q60 0 97 -28t37 -77q0 -33 -19 -61t-39.5 -43.5t-58.5 -37.5q-4 -2 -17.5 -10.5t-18 -11t-16.5 -10.5t-16.5 -11.5t-14 -11.5t-13.5 -13.5t-10 -14t-9 -16t-5 -17.5t-2 -20h243v-32h-280v18q0 29 9.5 53.5t19 39.5
t33.5 33.5t34.5 24.5t40.5 24q37 22 54 33t34 34t17 50q0 34 -27.5 53.5t-75.5 19.5q-63 0 -124 -40v34zM159 680h25v-376h77v-32h-209v32h99v340l-91 -34v32z" />
    <glyph glyph-name="threequarters" unicode="&#xbe;" horiz-adv-x="967" 
d="M281 -11h-22l456 722h22zM812 408h37v-281h82v-31h-82v-96h-34v96h-234v30zM815 127v235l-192 -235h192zM327 581q0 -32 -18.5 -57.5t-51.5 -34.5q37 -9 61.5 -34.5t24.5 -69.5q0 -55 -40 -85.5t-103 -30.5q-82 0 -142 27v33q57 -28 140 -28q51 0 82 21.5t31 64.5t-31 63
t-80 20h-62v33h58q48 0 73 21.5t25 54.5q0 35 -28 57.5t-78 22.5q-63 0 -123 -29v33q56 28 127 28q61 0 98 -31t37 -79z" />
    <glyph glyph-name="questiondown" unicode="&#xbf;" horiz-adv-x="478" 
d="M444 -171q-89 -56 -192 -56q-98 0 -157.5 43t-59.5 120q0 40 20.5 80t49.5 73.5t57.5 65.5t49 68t20.5 69h38q0 -37 -20 -75t-48.5 -70t-57.5 -64.5t-49 -70t-20 -73.5q0 -61 48.5 -94.5t133.5 -33.5q95 0 187 56v-38zM281 461q0 -13 -9 -21t-21 -8q-13 0 -21.5 8
t-8.5 21q0 14 8.5 22t21.5 8t21.5 -8t8.5 -22z" />
    <glyph glyph-name="Agrave" unicode="&#xc0;" horiz-adv-x="708" 
d="M57 0h-43l318 700h45l317 -700h-42l-93 204h-410zM347 642l-181 -401h378l-181 401q-1 3 -3.5 9t-4.5 9q-1 -3 -4 -9t-4 -9zM395 776h-42l-94 137h48z" />
    <glyph glyph-name="Aacute" unicode="&#xc1;" horiz-adv-x="708" 
d="M57 0h-43l318 700h45l317 -700h-42l-93 204h-410zM347 642l-181 -401h378l-181 401q-1 3 -3.5 9t-4.5 9q-1 -3 -4 -9t-4 -9zM353 776h-43l89 137h47z" />
    <glyph glyph-name="Acircumflex" unicode="&#xc2;" horiz-adv-x="708" 
d="M57 0h-43l318 700h45l317 -700h-42l-93 204h-410zM347 642l-181 -401h378l-181 401q-1 3 -3.5 9t-4.5 9q-1 -3 -4 -9t-4 -9zM339 907h33l128 -131h-44l-100 101l-101 -101h-44z" />
    <glyph glyph-name="Atilde" unicode="&#xc3;" horiz-adv-x="708" 
d="M57 0h-43l318 700h45l317 -700h-42l-93 204h-410zM347 642l-181 -401h378l-181 401q-1 3 -3.5 9t-4.5 9q-1 -3 -4 -9t-4 -9zM503 863q4 -37 -13.5 -59t-49.5 -22q-30 0 -87 26.5t-76 26.5t-29 -13t-8 -35h-34q-5 36 13.5 59t49.5 23q29 0 86.5 -26.5t76.5 -26.5
q42 0 37 47h34z" />
    <glyph glyph-name="Adieresis" unicode="&#xc4;" horiz-adv-x="708" 
d="M57 0h-43l318 700h45l317 -700h-42l-93 204h-410zM347 642l-181 -401h378l-181 401q-1 3 -3.5 9t-4.5 9q-1 -3 -4 -9t-4 -9zM485 836q0 -13 -9 -22t-22 -9t-22 9t-9 22q0 12 9 21.5t22 9.5t22 -9.5t9 -21.5zM284 836q0 -13 -9 -22t-22 -9t-22 9t-9 22q0 12 9 21.5t22 9.5
t22 -9.5t9 -21.5z" />
    <glyph glyph-name="Aring" unicode="&#xc5;" horiz-adv-x="708" 
d="M57 0h-43l318 700h45l317 -700h-42l-93 204h-410zM347 642l-181 -401h378l-181 401q-1 3 -3.5 9t-4.5 9q-1 -3 -4 -9t-4 -9zM446 844q0 -40 -27.5 -65t-64.5 -25q-38 0 -65.5 25t-27.5 65q0 39 27.5 63.5t65.5 24.5q37 0 64.5 -24.5t27.5 -63.5zM292 843q0 -27 18.5 -44
t43.5 -17t43.5 17t18.5 44t-18.5 44t-43.5 17t-43.5 -17t-18.5 -44z" />
    <glyph glyph-name="AE" unicode="&#xc6;" horiz-adv-x="991" 
d="M540 333v-295h396v-38h-436v205h-321l-146 -205h-45l496 700h446v-38h-390v-291h360v-38h-360zM202 241h298v418z" />
    <glyph glyph-name="Ccedilla" unicode="&#xc7;" horiz-adv-x="657" 
d="M617 78v-40q-81 -45 -187 -48l-18 -72q48 7 82 -11t35 -56t-30.5 -60t-87.5 -22q-54 0 -98 22v33q41 -23 94 -23q44 0 66.5 14.5t21.5 36.5q0 29 -39.5 38.5t-84.5 -3.5l25 103q-65 3 -125.5 26.5t-110 65.5t-79.5 109.5t-30 150.5q0 88 31.5 160t83.5 116.5t115.5 68.5
t131.5 24q108 0 196 -48v-40q-83 50 -191 50q-61 0 -118 -21t-104.5 -60.5t-76 -104.5t-28.5 -145q0 -77 29 -139t76.5 -99.5t105 -57t118.5 -19.5q114 0 197 51z" />
    <glyph glyph-name="Egrave" unicode="&#xc8;" horiz-adv-x="624" 
d="M101 700h459v-38h-419v-291h389v-38h-389v-295h428v-38h-468v700zM374 776h-42l-94 137h48z" />
    <glyph glyph-name="Eacute" unicode="&#xc9;" horiz-adv-x="624" 
d="M101 700h459v-38h-419v-291h389v-38h-389v-295h428v-38h-468v700zM332 776h-43l89 137h47z" />
    <glyph glyph-name="Ecircumflex" unicode="&#xca;" horiz-adv-x="624" 
d="M101 700h459v-38h-419v-291h389v-38h-389v-295h428v-38h-468v700zM318 907h33l128 -131h-44l-100 101l-101 -101h-44z" />
    <glyph glyph-name="Edieresis" unicode="&#xcb;" horiz-adv-x="624" 
d="M101 700h459v-38h-419v-291h389v-38h-389v-295h428v-38h-468v700zM464 836q0 -13 -9 -22t-22 -9t-22 9t-9 22q0 12 9 21.5t22 9.5t22 -9.5t9 -21.5zM263 836q0 -13 -9 -22t-22 -9t-22 9t-9 22q0 12 9 21.5t22 9.5t22 -9.5t9 -21.5z" />
    <glyph glyph-name="Igrave" unicode="&#xcc;" horiz-adv-x="242" 
d="M101 700h40v-700h-40v700zM162 776h-42l-94 137h48z" />
    <glyph glyph-name="Iacute" unicode="&#xcd;" horiz-adv-x="242" 
d="M101 700h40v-700h-40v700zM120 776h-43l89 137h47z" />
    <glyph glyph-name="Icircumflex" unicode="&#xce;" horiz-adv-x="242" 
d="M101 700h40v-700h-40v700zM106 907h33l128 -131h-44l-100 101l-101 -101h-44z" />
    <glyph glyph-name="Idieresis" unicode="&#xcf;" horiz-adv-x="242" 
d="M101 700h40v-700h-40v700zM252 836q0 -13 -9 -22t-22 -9t-22 9t-9 22q0 12 9 21.5t22 9.5t22 -9.5t9 -21.5zM51 836q0 -13 -9 -22t-22 -9t-22 9t-9 22q0 12 9 21.5t22 9.5t22 -9.5t9 -21.5z" />
    <glyph glyph-name="Eth" unicode="&#xd0;" horiz-adv-x="732" 
d="M103 700h206q182 0 276.5 -96t94.5 -254t-94.5 -254t-276.5 -96h-206v331h-81v37h81v332zM142 38h167q163 0 247 84t84 228t-84 228t-247 84h-167v-294h234v-37h-234v-293z" />
    <glyph glyph-name="Ntilde" unicode="&#xd1;" horiz-adv-x="766" 
d="M141 0h-40v700h36l488 -633v61v572h40v-700h-35l-489 632v-59v-573zM532 863q4 -37 -13.5 -59t-49.5 -22q-30 0 -87 26.5t-76 26.5t-29 -13t-8 -35h-34q-5 36 13.5 59t49.5 23q29 0 86.5 -26.5t76.5 -26.5q42 0 37 47h34z" />
    <glyph glyph-name="Ograve" unicode="&#xd2;" horiz-adv-x="825" 
d="M50 350q0 67 23 130.5t66.5 115.5t114.5 83.5t158 31.5q88 0 159 -31.5t114.5 -83.5t66.5 -115.5t23 -130.5t-23 -130.5t-66.5 -115.5t-114.5 -83.5t-159 -31.5q-87 0 -158 31.5t-114.5 83.5t-66.5 115.5t-23 130.5zM735 350q0 61 -20.5 117.5t-59 103t-102 74.5
t-141.5 28t-141 -28t-101.5 -74.5t-59 -103t-20.5 -117.5t20.5 -117.5t59 -103t101.5 -74.5t141 -28t141.5 28t102 74.5t59 103t20.5 117.5zM454 776h-42l-94 137h48z" />
    <glyph glyph-name="Oacute" unicode="&#xd3;" horiz-adv-x="825" 
d="M50 350q0 67 23 130.5t66.5 115.5t114.5 83.5t158 31.5q88 0 159 -31.5t114.5 -83.5t66.5 -115.5t23 -130.5t-23 -130.5t-66.5 -115.5t-114.5 -83.5t-159 -31.5q-87 0 -158 31.5t-114.5 83.5t-66.5 115.5t-23 130.5zM735 350q0 61 -20.5 117.5t-59 103t-102 74.5
t-141.5 28t-141 -28t-101.5 -74.5t-59 -103t-20.5 -117.5t20.5 -117.5t59 -103t101.5 -74.5t141 -28t141.5 28t102 74.5t59 103t20.5 117.5zM412 776h-43l89 137h47z" />
    <glyph glyph-name="Ocircumflex" unicode="&#xd4;" horiz-adv-x="825" 
d="M50 350q0 67 23 130.5t66.5 115.5t114.5 83.5t158 31.5q88 0 159 -31.5t114.5 -83.5t66.5 -115.5t23 -130.5t-23 -130.5t-66.5 -115.5t-114.5 -83.5t-159 -31.5q-87 0 -158 31.5t-114.5 83.5t-66.5 115.5t-23 130.5zM735 350q0 61 -20.5 117.5t-59 103t-102 74.5
t-141.5 28t-141 -28t-101.5 -74.5t-59 -103t-20.5 -117.5t20.5 -117.5t59 -103t101.5 -74.5t141 -28t141.5 28t102 74.5t59 103t20.5 117.5zM398 907h33l128 -131h-44l-100 101l-101 -101h-44z" />
    <glyph glyph-name="Otilde" unicode="&#xd5;" horiz-adv-x="825" 
d="M50 350q0 67 23 130.5t66.5 115.5t114.5 83.5t158 31.5q88 0 159 -31.5t114.5 -83.5t66.5 -115.5t23 -130.5t-23 -130.5t-66.5 -115.5t-114.5 -83.5t-159 -31.5q-87 0 -158 31.5t-114.5 83.5t-66.5 115.5t-23 130.5zM735 350q0 61 -20.5 117.5t-59 103t-102 74.5
t-141.5 28t-141 -28t-101.5 -74.5t-59 -103t-20.5 -117.5t20.5 -117.5t59 -103t101.5 -74.5t141 -28t141.5 28t102 74.5t59 103t20.5 117.5zM562 863q4 -37 -13.5 -59t-49.5 -22q-30 0 -87 26.5t-76 26.5t-29 -13t-8 -35h-34q-5 36 13.5 59t49.5 23q29 0 86.5 -26.5
t76.5 -26.5q42 0 37 47h34z" />
    <glyph glyph-name="Odieresis" unicode="&#xd6;" horiz-adv-x="825" 
d="M50 350q0 67 23 130.5t66.5 115.5t114.5 83.5t158 31.5q88 0 159 -31.5t114.5 -83.5t66.5 -115.5t23 -130.5t-23 -130.5t-66.5 -115.5t-114.5 -83.5t-159 -31.5q-87 0 -158 31.5t-114.5 83.5t-66.5 115.5t-23 130.5zM735 350q0 61 -20.5 117.5t-59 103t-102 74.5
t-141.5 28t-141 -28t-101.5 -74.5t-59 -103t-20.5 -117.5t20.5 -117.5t59 -103t101.5 -74.5t141 -28t141.5 28t102 74.5t59 103t20.5 117.5zM544 836q0 -13 -9 -22t-22 -9t-22 9t-9 22q0 12 9 21.5t22 9.5t22 -9.5t9 -21.5zM343 836q0 -13 -9 -22t-22 -9t-22 9t-9 22
q0 12 9 21.5t22 9.5t22 -9.5t9 -21.5z" />
    <glyph glyph-name="multiply" unicode="&#xd7;" horiz-adv-x="451" 
d="M226 326l-133 -133l-25 25l133 133l-133 132l25 25l133 -132l132 132l25 -25l-133 -132l133 -133l-25 -25z" />
    <glyph glyph-name="Oslash" unicode="&#xd8;" horiz-adv-x="825" 
d="M725 748l-82 -113q64 -51 98 -127t34 -158q0 -67 -23 -130.5t-66.5 -115.5t-114.5 -83.5t-159 -31.5q-112 0 -199 54l-67 -91h-39l79 109q-66 51 -101 128.5t-35 160.5q0 67 23 130.5t66.5 115.5t114.5 83.5t158 31.5q117 0 205 -57l69 94h39zM412 673q-78 0 -141 -28
t-101.5 -74.5t-59 -103t-20.5 -117.5q0 -75 30.5 -144t89.5 -113l384 529q-75 51 -182 51zM236 74q76 -47 177 -47q78 0 141 28t101.5 74.5t59 103t20.5 117.5q0 73 -29 140.5t-85 113.5z" />
    <glyph glyph-name="Ugrave" unicode="&#xd9;" horiz-adv-x="750" 
d="M617 700h40v-455q0 -69 -21.5 -120t-61 -80t-89 -42.5t-110.5 -13.5t-110.5 13.5t-89 42.5t-61 80t-21.5 120v455h40v-454q0 -219 242 -219t242 219v454zM418 776h-42l-94 137h48z" />
    <glyph glyph-name="Uacute" unicode="&#xda;" horiz-adv-x="750" 
d="M617 700h40v-455q0 -69 -21.5 -120t-61 -80t-89 -42.5t-110.5 -13.5t-110.5 13.5t-89 42.5t-61 80t-21.5 120v455h40v-454q0 -219 242 -219t242 219v454zM376 776h-43l89 137h47z" />
    <glyph glyph-name="Ucircumflex" unicode="&#xdb;" horiz-adv-x="750" 
d="M617 700h40v-455q0 -69 -21.5 -120t-61 -80t-89 -42.5t-110.5 -13.5t-110.5 13.5t-89 42.5t-61 80t-21.5 120v455h40v-454q0 -219 242 -219t242 219v454zM362 907h33l128 -131h-44l-100 101l-101 -101h-44z" />
    <glyph glyph-name="Udieresis" unicode="&#xdc;" horiz-adv-x="750" 
d="M617 700h40v-455q0 -69 -21.5 -120t-61 -80t-89 -42.5t-110.5 -13.5t-110.5 13.5t-89 42.5t-61 80t-21.5 120v455h40v-454q0 -219 242 -219t242 219v454zM508 836q0 -13 -9 -22t-22 -9t-22 9t-9 22q0 12 9 21.5t22 9.5t22 -9.5t9 -21.5zM307 836q0 -13 -9 -22t-22 -9
t-22 9t-9 22q0 12 9 21.5t22 9.5t22 -9.5t9 -21.5z" />
    <glyph glyph-name="Yacute" unicode="&#xdd;" horiz-adv-x="634" 
d="M337 0h-40v279l-276 421h45l251 -384l251 384h45l-276 -421v-279zM317 776h-43l89 137h47z" />
    <glyph glyph-name="Thorn" unicode="&#xde;" horiz-adv-x="651" 
d="M141 569h183q293 0 293 -219t-293 -219h-183v-131h-40v700h40v-131zM141 169h185q251 0 251 181t-251 181h-185v-362z" />
    <glyph glyph-name="germandbls" unicode="&#xdf;" horiz-adv-x="589" 
d="M551 149q0 -78 -58 -119t-143 -41q-75 0 -130 30v34q56 -30 124 -30q73 0 121 32t48 97q0 30 -16 59t-39.5 51t-46.5 43t-39 43t-16 42q0 27 19.5 53.5t39 56t19.5 64.5q0 45 -39 79t-104 34q-76 0 -124 -45t-48 -124v-508h-38v502q0 98 57.5 153t152.5 56
q84 0 132.5 -44t48.5 -100q0 -38 -19.5 -68.5t-39 -55.5t-19.5 -48q0 -18 16 -38.5t39 -41t46.5 -44t39.5 -55.5t16 -67z" />
    <glyph glyph-name="agrave" unicode="&#xe0;" horiz-adv-x="540" 
d="M450 77q0 -46 48 -46q16 0 37 7v-32q-24 -8 -47 -8q-33 0 -54.5 19t-21.5 59v13q-75 -100 -208 -100q-68 0 -116.5 36t-48.5 104q0 79 60.5 116t148.5 37q83 0 164 -26v44q0 71 -43 113t-122 42q-90 0 -171 -31v37q85 30 174 30q95 0 147.5 -51.5t52.5 -143.5v-219z
M78 130q0 -52 39 -79.5t94 -27.5q62 0 115.5 29.5t85.5 83.5v87q-81 26 -160 26q-73 0 -123.5 -28.5t-50.5 -90.5zM291 556h-42l-94 137h48z" />
    <glyph glyph-name="aacute" unicode="&#xe1;" horiz-adv-x="540" 
d="M450 77q0 -46 48 -46q16 0 37 7v-32q-24 -8 -47 -8q-33 0 -54.5 19t-21.5 59v13q-75 -100 -208 -100q-68 0 -116.5 36t-48.5 104q0 79 60.5 116t148.5 37q83 0 164 -26v44q0 71 -43 113t-122 42q-90 0 -171 -31v37q85 30 174 30q95 0 147.5 -51.5t52.5 -143.5v-219z
M78 130q0 -52 39 -79.5t94 -27.5q62 0 115.5 29.5t85.5 83.5v87q-81 26 -160 26q-73 0 -123.5 -28.5t-50.5 -90.5zM249 556h-43l89 137h47z" />
    <glyph glyph-name="acircumflex" unicode="&#xe2;" horiz-adv-x="540" 
d="M450 77q0 -46 48 -46q16 0 37 7v-32q-24 -8 -47 -8q-33 0 -54.5 19t-21.5 59v13q-75 -100 -208 -100q-68 0 -116.5 36t-48.5 104q0 79 60.5 116t148.5 37q83 0 164 -26v44q0 71 -43 113t-122 42q-90 0 -171 -31v37q85 30 174 30q95 0 147.5 -51.5t52.5 -143.5v-219z
M78 130q0 -52 39 -79.5t94 -27.5q62 0 115.5 29.5t85.5 83.5v87q-81 26 -160 26q-73 0 -123.5 -28.5t-50.5 -90.5zM235 687h33l128 -131h-44l-100 101l-101 -101h-44z" />
    <glyph glyph-name="atilde" unicode="&#xe3;" horiz-adv-x="540" 
d="M450 77q0 -46 48 -46q16 0 37 7v-32q-24 -8 -47 -8q-33 0 -54.5 19t-21.5 59v13q-75 -100 -208 -100q-68 0 -116.5 36t-48.5 104q0 79 60.5 116t148.5 37q83 0 164 -26v44q0 71 -43 113t-122 42q-90 0 -171 -31v37q85 30 174 30q95 0 147.5 -51.5t52.5 -143.5v-219z
M78 130q0 -52 39 -79.5t94 -27.5q62 0 115.5 29.5t85.5 83.5v87q-81 26 -160 26q-73 0 -123.5 -28.5t-50.5 -90.5zM399 643q4 -37 -13.5 -59t-49.5 -22q-30 0 -87 26.5t-76 26.5t-29 -13t-8 -35h-34q-5 36 13.5 59t49.5 23q29 0 86.5 -26.5t76.5 -26.5q42 0 37 47h34z" />
    <glyph glyph-name="adieresis" unicode="&#xe4;" horiz-adv-x="540" 
d="M450 77q0 -46 48 -46q16 0 37 7v-32q-24 -8 -47 -8q-33 0 -54.5 19t-21.5 59v13q-75 -100 -208 -100q-68 0 -116.5 36t-48.5 104q0 79 60.5 116t148.5 37q83 0 164 -26v44q0 71 -43 113t-122 42q-90 0 -171 -31v37q85 30 174 30q95 0 147.5 -51.5t52.5 -143.5v-219z
M78 130q0 -52 39 -79.5t94 -27.5q62 0 115.5 29.5t85.5 83.5v87q-81 26 -160 26q-73 0 -123.5 -28.5t-50.5 -90.5zM381 616q0 -13 -9 -22t-22 -9t-22 9t-9 22q0 12 9 21.5t22 9.5t22 -9.5t9 -21.5zM180 616q0 -13 -9 -22t-22 -9t-22 9t-9 22q0 12 9 21.5t22 9.5t22 -9.5
t9 -21.5z" />
    <glyph glyph-name="aring" unicode="&#xe5;" horiz-adv-x="540" 
d="M450 77q0 -46 48 -46q16 0 37 7v-32q-24 -8 -47 -8q-33 0 -54.5 19t-21.5 59v13q-75 -100 -208 -100q-68 0 -116.5 36t-48.5 104q0 79 60.5 116t148.5 37q83 0 164 -26v44q0 71 -43 113t-122 42q-90 0 -171 -31v37q85 30 174 30q95 0 147.5 -51.5t52.5 -143.5v-219z
M78 130q0 -52 39 -79.5t94 -27.5q62 0 115.5 29.5t85.5 83.5v87q-81 26 -160 26q-73 0 -123.5 -28.5t-50.5 -90.5zM342 624q0 -40 -27.5 -65t-64.5 -25q-38 0 -65.5 25t-27.5 65q0 39 27.5 63.5t65.5 24.5q37 0 64.5 -24.5t27.5 -63.5zM188 623q0 -27 18.5 -44t43.5 -17
t43.5 17t18.5 44t-18.5 44t-43.5 17t-43.5 -17t-18.5 -44z" />
    <glyph glyph-name="ae" unicode="&#xe6;" horiz-adv-x="908" 
d="M455 105q-46 -57 -111 -86.5t-136 -29.5t-120 36t-49 104q0 79 61 116t152 37q87 0 168 -26v44q0 72 -43 113.5t-130 41.5q-90 0 -171 -31v37q85 30 174 30q86 0 135.5 -38.5t61.5 -107.5q24 68 82 107t125 39q81 0 133 -43t68 -104t4 -128h-401q4 -94 69 -142.5
t154 -48.5q84 0 149 38v-36q-68 -38 -156 -38q-68 0 -127.5 29.5t-91.5 86.5zM78 130q0 -52 39.5 -79.5t97.5 -27.5q140 0 225 108q-16 41 -19 92q-85 26 -165 26q-76 0 -127 -28.5t-51 -90.5zM654 455q-80 0 -136.5 -54t-59.5 -151h367q5 49 -8.5 93.5t-55.5 78t-107 33.5z
" />
    <glyph glyph-name="ccedilla" unicode="&#xe7;" horiz-adv-x="493" 
d="M453 63v-38q-64 -33 -143 -35l-19 -76q48 9 82.5 -8t35.5 -55t-30.5 -60t-87.5 -22t-98 22v33q40 -23 94 -23q44 0 66.5 14.5t21.5 36.5q0 29 -39.5 38.5t-84.5 -3.5l25 103q-96 7 -162.5 70t-66.5 176q0 124 77 189.5t181 65.5q84 0 143 -39v-37q-58 40 -139 40
q-92 0 -158 -55t-66 -163q0 -103 63 -157.5t152 -54.5q86 0 153 38z" />
    <glyph glyph-name="egrave" unicode="&#xe8;" horiz-adv-x="546" 
d="M47 240q0 116 70 183.5t165 67.5q52 0 93.5 -17t66 -44.5t41.5 -62.5t18.5 -72.5t-3.5 -73.5h-413q4 -98 69.5 -147t159.5 -49q91 0 156 38v-38q-66 -36 -161 -36q-112 0 -187 63.5t-75 187.5zM465 255q4 33 -4 66.5t-28 64t-58.5 50t-90.5 19.5q-81 0 -138.5 -53.5
t-60.5 -146.5h380zM323 556h-42l-94 137h48z" />
    <glyph glyph-name="eacute" unicode="&#xe9;" horiz-adv-x="546" 
d="M47 240q0 116 70 183.5t165 67.5q52 0 93.5 -17t66 -44.5t41.5 -62.5t18.5 -72.5t-3.5 -73.5h-413q4 -98 69.5 -147t159.5 -49q91 0 156 38v-38q-66 -36 -161 -36q-112 0 -187 63.5t-75 187.5zM465 255q4 33 -4 66.5t-28 64t-58.5 50t-90.5 19.5q-81 0 -138.5 -53.5
t-60.5 -146.5h380zM281 556h-43l89 137h47z" />
    <glyph glyph-name="ecircumflex" unicode="&#xea;" horiz-adv-x="546" 
d="M47 240q0 116 70 183.5t165 67.5q52 0 93.5 -17t66 -44.5t41.5 -62.5t18.5 -72.5t-3.5 -73.5h-413q4 -98 69.5 -147t159.5 -49q91 0 156 38v-38q-66 -36 -161 -36q-112 0 -187 63.5t-75 187.5zM465 255q4 33 -4 66.5t-28 64t-58.5 50t-90.5 19.5q-81 0 -138.5 -53.5
t-60.5 -146.5h380zM267 687h33l128 -131h-44l-100 101l-101 -101h-44z" />
    <glyph glyph-name="edieresis" unicode="&#xeb;" horiz-adv-x="546" 
d="M47 240q0 116 70 183.5t165 67.5q52 0 93.5 -17t66 -44.5t41.5 -62.5t18.5 -72.5t-3.5 -73.5h-413q4 -98 69.5 -147t159.5 -49q91 0 156 38v-38q-66 -36 -161 -36q-112 0 -187 63.5t-75 187.5zM465 255q4 33 -4 66.5t-28 64t-58.5 50t-90.5 19.5q-81 0 -138.5 -53.5
t-60.5 -146.5h380zM413 616q0 -13 -9 -22t-22 -9t-22 9t-9 22q0 12 9 21.5t22 9.5t22 -9.5t9 -21.5zM212 616q0 -13 -9 -22t-22 -9t-22 9t-9 22q0 12 9 21.5t22 9.5t22 -9.5t9 -21.5z" />
    <glyph glyph-name="igrave" unicode="&#xec;" horiz-adv-x="207" 
d="M122 0h-38v480h38v-480zM151 556h-37l-86 137h43z" />
    <glyph glyph-name="iacute" unicode="&#xed;" horiz-adv-x="207" 
d="M85 480h38v-480h-38v480zM103 556h-43l89 137h47z" />
    <glyph glyph-name="icircumflex" unicode="&#xee;" horiz-adv-x="206" 
d="M88 677h33l100 -121h-42l-75 91l-75 -91h-41zM84 480h38v-480h-38v480z" />
    <glyph glyph-name="idieresis" unicode="&#xef;" horiz-adv-x="206" 
d="M206 616q0 -12 -8.5 -20.5t-20.5 -8.5t-20.5 8.5t-8.5 20.5q0 11 8.5 20t20.5 9t20.5 -9t8.5 -20zM57 616q0 -12 -8.5 -20.5t-20.5 -8.5t-20.5 8.5t-8.5 20.5q0 11 8.5 20t20.5 9t20.5 -9t8.5 -20zM84 480h38v-480h-38v480z" />
    <glyph glyph-name="eth" unicode="&#xf0;" horiz-adv-x="595" 
d="M538 267q0 -128 -68 -203t-179 -75q-106 0 -175 64.5t-69 169.5q0 98 68 161.5t163 63.5q80 0 144 -44t81 -124q0 15 -1 23q-12 246 -222 328l-113 -112l-22 23l101 101q-71 21 -145 21v36q87 0 173 -29l85 85l22 -23l-76 -76q103 -45 168 -139t65 -251zM85 223
q0 -90 57 -143.5t149 -53.5q83 0 135.5 47t67.5 128q-2 99 -63.5 155t-147.5 56q-84 0 -141 -53t-57 -136z" />
    <glyph glyph-name="ntilde" unicode="&#xf1;" 
d="M116 381q29 44 80 77t116 33q82 0 136 -53.5t54 -142.5v-295h-38v291q0 78 -43.5 121t-111.5 43q-64 0 -113 -35t-77 -85v-335h-38v480h35v-99zM437 643q4 -37 -13.5 -59t-49.5 -22q-30 0 -87 26.5t-76 26.5t-29 -13t-8 -35h-34q-5 36 13.5 59t49.5 23q29 0 86.5 -26.5
t76.5 -26.5q42 0 37 47h34z" />
    <glyph glyph-name="ograve" unicode="&#xf2;" horiz-adv-x="591" 
d="M46 240q0 116 73.5 183.5t175.5 67.5q103 0 176.5 -67.5t73.5 -183.5t-73.5 -183.5t-176.5 -67.5q-102 0 -175.5 67.5t-73.5 183.5zM507 240q0 98 -61.5 156t-150.5 58t-150 -58t-61 -156t61 -156t150 -58t150.5 58t61.5 156zM336 550h-42l-94 137h48z" />
    <glyph glyph-name="oacute" unicode="&#xf3;" horiz-adv-x="591" 
d="M46 240q0 116 73.5 183.5t175.5 67.5q103 0 176.5 -67.5t73.5 -183.5t-73.5 -183.5t-176.5 -67.5q-102 0 -175.5 67.5t-73.5 183.5zM507 240q0 98 -61.5 156t-150.5 58t-150 -58t-61 -156t61 -156t150 -58t150.5 58t61.5 156zM294 550h-43l89 137h47z" />
    <glyph glyph-name="ocircumflex" unicode="&#xf4;" horiz-adv-x="591" 
d="M46 240q0 116 73.5 183.5t175.5 67.5q103 0 176.5 -67.5t73.5 -183.5t-73.5 -183.5t-176.5 -67.5q-102 0 -175.5 67.5t-73.5 183.5zM507 240q0 98 -61.5 156t-150.5 58t-150 -58t-61 -156t61 -156t150 -58t150.5 58t61.5 156zM280 681h33l128 -131h-44l-100 101
l-101 -101h-44z" />
    <glyph glyph-name="otilde" unicode="&#xf5;" horiz-adv-x="591" 
d="M46 240q0 116 73.5 183.5t175.5 67.5q103 0 176.5 -67.5t73.5 -183.5t-73.5 -183.5t-176.5 -67.5q-102 0 -175.5 67.5t-73.5 183.5zM507 240q0 98 -61.5 156t-150.5 58t-150 -58t-61 -156t61 -156t150 -58t150.5 58t61.5 156zM444 637q4 -37 -13.5 -59t-49.5 -22
q-30 0 -87 26.5t-76 26.5t-29 -13t-8 -35h-34q-5 36 13.5 59t49.5 23q29 0 86.5 -26.5t76.5 -26.5q42 0 37 47h34z" />
    <glyph glyph-name="odieresis" unicode="&#xf6;" horiz-adv-x="591" 
d="M46 240q0 116 73.5 183.5t175.5 67.5q103 0 176.5 -67.5t73.5 -183.5t-73.5 -183.5t-176.5 -67.5q-102 0 -175.5 67.5t-73.5 183.5zM507 240q0 98 -61.5 156t-150.5 58t-150 -58t-61 -156t61 -156t150 -58t150.5 58t61.5 156zM426 610q0 -13 -9 -22t-22 -9t-22 9t-9 22
q0 12 9 21.5t22 9.5t22 -9.5t9 -21.5zM225 610q0 -13 -9 -22t-22 -9t-22 9t-9 22q0 12 9 21.5t22 9.5t22 -9.5t9 -21.5z" />
    <glyph glyph-name="divide" unicode="&#xf7;" horiz-adv-x="638" 
d="M559 332h-480v36h480v-36zM349 125q0 -13 -8.5 -21t-21.5 -8q-12 0 -21 8t-9 21q0 14 8.5 21.5t21.5 7.5q30 0 30 -29zM349 572q0 -13 -8.5 -21t-21.5 -8q-12 0 -21 8t-9 21q0 14 8.5 21.5t21.5 7.5q30 0 30 -29z" />
    <glyph glyph-name="oslash" unicode="&#xf8;" horiz-adv-x="591" 
d="M507 543l-63 -98q101 -69 101 -205q0 -116 -73.5 -183.5t-176.5 -67.5q-68 0 -126 32l-50 -79h-35l61 94q-99 70 -99 204q0 116 73.5 183.5t175.5 67.5q67 0 124 -31l53 83h35zM295 454q-89 0 -150 -58t-61 -156q0 -113 82 -173l233 363q-46 24 -104 24zM190 52
q47 -26 105 -26q89 0 150.5 58t61.5 156q0 115 -84 175z" />
    <glyph glyph-name="ugrave" unicode="&#xf9;" 
d="M458 480h38v-480h-35v99q-29 -44 -80 -77t-116 -33q-85 0 -137.5 53t-52.5 143v295h38v-291q0 -78 42.5 -121t112.5 -43q64 0 113 35t77 85v335zM333 556h-42l-94 137h48z" />
    <glyph glyph-name="uacute" unicode="&#xfa;" 
d="M458 480h38v-480h-35v99q-29 -44 -80 -77t-116 -33q-85 0 -137.5 53t-52.5 143v295h38v-291q0 -78 42.5 -121t112.5 -43q64 0 113 35t77 85v335zM291 556h-43l89 137h47z" />
    <glyph glyph-name="ucircumflex" unicode="&#xfb;" 
d="M458 480h38v-480h-35v99q-29 -44 -80 -77t-116 -33q-85 0 -137.5 53t-52.5 143v295h38v-291q0 -78 42.5 -121t112.5 -43q64 0 113 35t77 85v335zM277 687h33l128 -131h-44l-100 101l-101 -101h-44z" />
    <glyph glyph-name="udieresis" unicode="&#xfc;" 
d="M458 480h38v-480h-35v99q-29 -44 -80 -77t-116 -33q-85 0 -137.5 53t-52.5 143v295h38v-291q0 -78 42.5 -121t112.5 -43q64 0 113 35t77 85v335zM423 616q0 -13 -9 -22t-22 -9t-22 9t-9 22q0 12 9 21.5t22 9.5t22 -9.5t9 -21.5zM222 616q0 -13 -9 -22t-22 -9t-22 9t-9 22
q0 12 9 21.5t22 9.5t22 -9.5t9 -21.5z" />
    <glyph glyph-name="yacute" unicode="&#xfd;" horiz-adv-x="531" 
d="M276 40l194 440h40l-250 -564q-35 -79 -74.5 -113t-89.5 -34q-26 0 -50 7v34q28 -7 46 -7q43 0 75.5 30.5t61.5 97.5l29 67l-243 482h41zM257 556h-43l89 137h47z" />
    <glyph glyph-name="thorn" unicode="&#xfe;" horiz-adv-x="615" 
d="M81 700h38v-330q30 53 84.5 87t125.5 34q103 0 171 -69.5t68 -181.5t-68 -181.5t-171 -69.5q-71 0 -125.5 34t-84.5 87v-330h-38v920zM530 240q0 98 -58 156.5t-147 58.5q-72 0 -127.5 -41t-78.5 -104v-140q23 -63 78.5 -104t127.5 -41q89 0 147 58t58 157z" />
    <glyph glyph-name="ydieresis" unicode="&#xff;" horiz-adv-x="531" 
d="M276 40l194 440h40l-250 -564q-35 -79 -74.5 -113t-89.5 -34q-26 0 -50 7v34q28 -7 46 -7q43 0 75.5 30.5t61.5 97.5l29 67l-243 482h41zM389 616q0 -13 -9 -22t-22 -9t-22 9t-9 22q0 12 9 21.5t22 9.5t22 -9.5t9 -21.5zM188 616q0 -13 -9 -22t-22 -9t-22 9t-9 22
q0 12 9 21.5t22 9.5t22 -9.5t9 -21.5z" />
    <glyph glyph-name="Amacron" unicode="&#x100;" horiz-adv-x="708" 
d="M57 0h-43l318 700h45l317 -700h-42l-93 204h-410zM347 642l-181 -401h378l-181 401q-1 3 -3.5 9t-4.5 9q-1 -3 -4 -9t-4 -9zM222 840h264v-36h-264v36z" />
    <glyph glyph-name="amacron" unicode="&#x101;" horiz-adv-x="540" 
d="M450 77q0 -46 48 -46q16 0 37 7v-32q-24 -8 -47 -8q-33 0 -54.5 19t-21.5 59v13q-75 -100 -208 -100q-68 0 -116.5 36t-48.5 104q0 79 60.5 116t148.5 37q83 0 164 -26v44q0 71 -43 113t-122 42q-90 0 -171 -31v37q85 30 174 30q95 0 147.5 -51.5t52.5 -143.5v-219z
M78 130q0 -52 39 -79.5t94 -27.5q62 0 115.5 29.5t85.5 83.5v87q-81 26 -160 26q-73 0 -123.5 -28.5t-50.5 -90.5zM118 620h264v-36h-264v36z" />
    <glyph glyph-name="Abreve" unicode="&#x102;" horiz-adv-x="708" 
d="M57 0h-43l318 700h45l317 -700h-42l-93 204h-410zM347 642l-181 -401h378l-181 401q-1 3 -3.5 9t-4.5 9q-1 -3 -4 -9t-4 -9zM482 820q-51 -42 -128 -42t-128 42v39q56 -44 128 -44t128 44v-39z" />
    <glyph glyph-name="abreve" unicode="&#x103;" horiz-adv-x="540" 
d="M450 77q0 -46 48 -46q16 0 37 7v-32q-24 -8 -47 -8q-33 0 -54.5 19t-21.5 59v13q-75 -100 -208 -100q-68 0 -116.5 36t-48.5 104q0 79 60.5 116t148.5 37q83 0 164 -26v44q0 71 -43 113t-122 42q-90 0 -171 -31v37q85 30 174 30q95 0 147.5 -51.5t52.5 -143.5v-219z
M78 130q0 -52 39 -79.5t94 -27.5q62 0 115.5 29.5t85.5 83.5v87q-81 26 -160 26q-73 0 -123.5 -28.5t-50.5 -90.5zM378 600q-51 -42 -128 -42t-128 42v39q56 -44 128 -44t128 44v-39z" />
    <glyph glyph-name="Aogonek" unicode="&#x104;" horiz-adv-x="709" 
d="M582 -143q0 -26 16 -41t45 -15q35 0 69 20v-32q-34 -20 -77 -20t-66.5 22t-23.5 59q0 71 103 158l-89 196h-410l-92 -204h-43l318 700h45l317 -700h1q-113 -77 -113 -143zM346 642l-181 -401h379l-182 401q-6 12 -8 18q-2 -6 -8 -18z" />
    <glyph glyph-name="aogonek" unicode="&#x105;" horiz-adv-x="540" 
d="M211 23q62 0 115.5 29.5t85.5 83.5v87q-81 26 -160 26q-73 0 -123.5 -28.5t-50.5 -90.5q0 -52 39 -79.5t94 -27.5zM533 -182v-32q-28 -11 -58 -11q-42 -1 -66 21.5t-24 58.5q0 72 97 143q-31 2 -50.5 20.5t-19.5 57.5v13q-75 -100 -208 -100q-68 0 -116.5 36t-48.5 104
q0 79 60.5 116t148.5 37q83 0 164 -26v44q0 71 -43 113t-122 42q-90 0 -171 -31v37q85 30 174 30q95 0 147.5 -51.5t52.5 -143.5v-219q0 -46 48 -46q16 0 37 7v-32q-114 -77 -114 -144q0 -25 16.5 -40t45.5 -15q25 0 50 11z" />
    <glyph glyph-name="Cacute" unicode="&#x106;" horiz-adv-x="657" 
d="M51 342q0 88 31.5 160t83.5 116.5t115.5 68.5t131.5 24q108 0 196 -48v-40q-83 50 -191 50q-61 0 -118 -21t-104.5 -60.5t-76 -104.5t-28.5 -145q0 -77 29 -139t76.5 -99.5t105 -57t118.5 -19.5q114 0 197 51v-40q-89 -49 -204 -49q-67 0 -130.5 22.5t-115.5 64.5
t-84 111.5t-32 154.5zM401 776h-43l89 137h47z" />
    <glyph glyph-name="cacute" unicode="&#x107;" horiz-adv-x="493" 
d="M47 236q0 124 77 189.5t181 65.5q84 0 143 -39v-37q-58 40 -139 40q-92 0 -158 -55t-66 -163q0 -103 63 -157.5t152 -54.5q86 0 153 38v-38q-68 -36 -157 -36q-102 0 -175.5 63.5t-73.5 183.5zM297 556h-43l89 137h47z" />
    <glyph glyph-name="Cdotaccent" unicode="&#x10a;" horiz-adv-x="657" 
d="M51 342q0 88 31.5 160t83.5 116.5t115.5 68.5t131.5 24q108 0 196 -48v-40q-83 50 -191 50q-61 0 -118 -21t-104.5 -60.5t-76 -104.5t-28.5 -145q0 -77 29 -139t76.5 -99.5t105 -57t118.5 -19.5q114 0 197 51v-40q-89 -49 -204 -49q-67 0 -130.5 22.5t-115.5 64.5
t-84 111.5t-32 154.5zM364 820q0 16 10.5 25.5t25.5 9.5t25.5 -9.5t10.5 -25.5t-10.5 -26t-25.5 -10t-25.5 10t-10.5 26z" />
    <glyph glyph-name="cdotaccent" unicode="&#x10b;" horiz-adv-x="493" 
d="M47 236q0 124 77 189.5t181 65.5q84 0 143 -39v-37q-58 40 -139 40q-92 0 -158 -55t-66 -163q0 -103 63 -157.5t152 -54.5q86 0 153 38v-38q-68 -36 -157 -36q-102 0 -175.5 63.5t-73.5 183.5zM260 600q0 16 10.5 25.5t25.5 9.5t25.5 -9.5t10.5 -25.5t-10.5 -26
t-25.5 -10t-25.5 10t-10.5 26z" />
    <glyph glyph-name="Ccaron" unicode="&#x10c;" horiz-adv-x="657" 
d="M51 342q0 88 31.5 160t83.5 116.5t115.5 68.5t131.5 24q108 0 196 -48v-40q-83 50 -191 50q-61 0 -118 -21t-104.5 -60.5t-76 -104.5t-28.5 -145q0 -77 29 -139t76.5 -99.5t105 -57t118.5 -19.5q114 0 197 51v-40q-89 -49 -204 -49q-67 0 -130.5 22.5t-115.5 64.5
t-84 111.5t-32 154.5zM548 897l-128 -131h-33l-128 131h44l101 -101l100 101h44z" />
    <glyph glyph-name="ccaron" unicode="&#x10d;" horiz-adv-x="493" 
d="M47 236q0 124 77 189.5t181 65.5q84 0 143 -39v-37q-58 40 -139 40q-92 0 -158 -55t-66 -163q0 -103 63 -157.5t152 -54.5q86 0 153 38v-38q-68 -36 -157 -36q-102 0 -175.5 63.5t-73.5 183.5zM444 677l-128 -131h-33l-128 131h44l101 -101l100 101h44z" />
    <glyph glyph-name="Dcaron" unicode="&#x10e;" horiz-adv-x="731" 
d="M101 700h207q181 0 276 -96.5t95 -253.5t-95 -253.5t-276 -96.5h-207v700zM639 350q0 144 -84 228t-247 84h-167v-624h167q163 0 247 84t84 228zM487 897l-128 -131h-33l-128 131h44l101 -101l100 101h44z" />
    <glyph glyph-name="dcaron" unicode="&#x10f;" horiz-adv-x="615" 
d="M616 700h37l-22 -163h-33zM496 700h38v-700h-35v114q-32 -56 -87.5 -90.5t-125.5 -34.5q-104 0 -171.5 69.5t-67.5 181.5t67.5 181.5t171.5 69.5q70 0 125 -34t85 -87v330zM496 310q-24 63 -79.5 104t-127.5 41q-89 0 -146.5 -58t-57.5 -157q0 -98 58 -156.5t146 -58.5
q72 0 127.5 41t79.5 104v140z" />
    <glyph glyph-name="Dcroat" unicode="&#x110;" horiz-adv-x="732" 
d="M103 700h206q182 0 276.5 -96t94.5 -254t-94.5 -254t-276.5 -96h-206v331h-81v37h81v332zM142 38h167q163 0 247 84t84 228t-84 228t-247 84h-167v-294h234v-37h-234v-293z" />
    <glyph glyph-name="dcroat" unicode="&#x111;" horiz-adv-x="615" 
d="M534 618h74v-30h-74v-588h-35v114q-32 -56 -87.5 -90.5t-125.5 -34.5q-104 0 -171.5 69.5t-67.5 181.5t67.5 181.5t171.5 69.5q70 0 125 -34t85 -87v218h-195v30h195v82h38v-82zM289 25q72 0 127.5 41t79.5 104v140q-24 63 -79.5 104t-127.5 41q-89 0 -146.5 -58
t-57.5 -157q0 -98 58 -156.5t146 -58.5z" />
    <glyph glyph-name="Emacron" unicode="&#x112;" horiz-adv-x="624" 
d="M101 700h459v-38h-419v-291h389v-38h-389v-295h428v-38h-468v700zM201 840h264v-36h-264v36z" />
    <glyph glyph-name="emacron" unicode="&#x113;" horiz-adv-x="546" 
d="M47 240q0 116 70 183.5t165 67.5q52 0 93.5 -17t66 -44.5t41.5 -62.5t18.5 -72.5t-3.5 -73.5h-413q4 -98 69.5 -147t159.5 -49q91 0 156 38v-38q-66 -36 -161 -36q-112 0 -187 63.5t-75 187.5zM465 255q4 33 -4 66.5t-28 64t-58.5 50t-90.5 19.5q-81 0 -138.5 -53.5
t-60.5 -146.5h380zM150 620h264v-36h-264v36z" />
    <glyph glyph-name="Edotaccent" unicode="&#x116;" horiz-adv-x="624" 
d="M101 700h459v-38h-419v-291h389v-38h-389v-295h428v-38h-468v700zM295 820q0 16 10.5 25.5t25.5 9.5t25.5 -9.5t10.5 -25.5t-10.5 -26t-25.5 -10t-25.5 10t-10.5 26z" />
    <glyph glyph-name="edotaccent" unicode="&#x117;" horiz-adv-x="546" 
d="M47 240q0 116 70 183.5t165 67.5q52 0 93.5 -17t66 -44.5t41.5 -62.5t18.5 -72.5t-3.5 -73.5h-413q4 -98 69.5 -147t159.5 -49q91 0 156 38v-38q-66 -36 -161 -36q-112 0 -187 63.5t-75 187.5zM465 255q4 33 -4 66.5t-28 64t-58.5 50t-90.5 19.5q-81 0 -138.5 -53.5
t-60.5 -146.5h380zM244 600q0 16 10.5 25.5t25.5 9.5t25.5 -9.5t10.5 -25.5t-10.5 -26t-25.5 -10t-25.5 10t-10.5 26z" />
    <glyph glyph-name="Eogonek" unicode="&#x118;" horiz-adv-x="624" 
d="M568 -187v-32q-28 -12 -62 -12q-42 -1 -66 21.5t-24 58.5q0 76 104 151h-419v700h459v-38h-419v-291h389v-38h-389v-295h428v-38q-117 -79 -117 -144q0 -25 16 -40t46 -15q27 0 54 12z" />
    <glyph glyph-name="eogonek" unicode="&#x119;" horiz-adv-x="546" 
d="M460 -211q-34 -20 -77 -20t-66.5 22t-23.5 59q0 69 111 152q-47 -13 -95 -13q-112 0 -187 63.5t-75 187.5q0 116 70 183.5t165 67.5q64 0 112.5 -25.5t71 -65t33 -87t-0.5 -92.5h-413q4 -98 69.5 -147t159.5 -49q91 0 156 38v-38q-141 -106 -141 -168q0 -54 62 -56
q38 2 69 20v-32zM284 455q-81 0 -138.5 -53.5t-60.5 -146.5h380q4 33 -4 66.5t-28 64t-58.5 50t-90.5 19.5z" />
    <glyph glyph-name="Ecaron" unicode="&#x11a;" horiz-adv-x="624" 
d="M101 700h459v-38h-419v-291h389v-38h-389v-295h428v-38h-468v700zM479 897l-128 -131h-33l-128 131h44l101 -101l100 101h44z" />
    <glyph glyph-name="ecaron" unicode="&#x11b;" horiz-adv-x="546" 
d="M47 240q0 116 70 183.5t165 67.5q52 0 93.5 -17t66 -44.5t41.5 -62.5t18.5 -72.5t-3.5 -73.5h-413q4 -98 69.5 -147t159.5 -49q91 0 156 38v-38q-66 -36 -161 -36q-112 0 -187 63.5t-75 187.5zM465 255q4 33 -4 66.5t-28 64t-58.5 50t-90.5 19.5q-81 0 -138.5 -53.5
t-60.5 -146.5h380zM428 677l-128 -131h-33l-128 131h44l101 -101l100 101h44z" />
    <glyph glyph-name="Gbreve" unicode="&#x11e;" horiz-adv-x="708" 
d="M52 350q0 90 31.5 161t85 113.5t118 64.5t134.5 22q112 0 204 -47v-39q-85 48 -199 48q-64 0 -122 -19t-106.5 -56t-77 -101t-28.5 -147q0 -84 29 -148t78 -101t107.5 -55.5t124.5 -18.5q96 0 173 37v303h39v-330q-98 -48 -215 -48q-73 0 -138.5 20.5t-119.5 62.5
t-86 113.5t-32 164.5zM534 820q-51 -42 -128 -42t-128 42v39q56 -44 128 -44t128 44v-39z" />
    <glyph glyph-name="gbreve" unicode="&#x11f;" horiz-adv-x="615" 
d="M47 240q0 112 67.5 181.5t171.5 69.5q70 0 125.5 -34.5t87.5 -90.5v114h35v-480q0 -115 -73.5 -173t-180.5 -58q-103 0 -190 46v37q91 -47 186 -47t157.5 48t62.5 147v111q-30 -53 -85 -87.5t-125 -34.5q-104 0 -171.5 69.5t-67.5 181.5zM496 310q-24 63 -79.5 104
t-127.5 41q-89 0 -146.5 -58t-57.5 -157q0 -98 58 -156.5t146 -58.5q72 0 127.5 40t79.5 101v144zM417 600q-51 -42 -128 -42t-128 42v39q56 -44 128 -44t128 44v-39z" />
    <glyph glyph-name="Gdotaccent" unicode="&#x120;" horiz-adv-x="708" 
d="M52 350q0 90 31.5 161t85 113.5t118 64.5t134.5 22q112 0 204 -47v-39q-85 48 -199 48q-64 0 -122 -19t-106.5 -56t-77 -101t-28.5 -147q0 -84 29 -148t78 -101t107.5 -55.5t124.5 -18.5q96 0 173 37v303h39v-330q-98 -48 -215 -48q-73 0 -138.5 20.5t-119.5 62.5
t-86 113.5t-32 164.5zM368 820q0 16 10.5 25.5t25.5 9.5t25.5 -9.5t10.5 -25.5t-10.5 -26t-25.5 -10t-25.5 10t-10.5 26z" />
    <glyph glyph-name="gdotaccent" unicode="&#x121;" horiz-adv-x="615" 
d="M47 240q0 112 67.5 181.5t171.5 69.5q70 0 125.5 -34.5t87.5 -90.5v114h35v-480q0 -115 -73.5 -173t-180.5 -58q-103 0 -190 46v37q91 -47 186 -47t157.5 48t62.5 147v111q-30 -53 -85 -87.5t-125 -34.5q-104 0 -171.5 69.5t-67.5 181.5zM496 310q-24 63 -79.5 104
t-127.5 41q-89 0 -146.5 -58t-57.5 -157q0 -98 58 -156.5t146 -58.5q72 0 127.5 40t79.5 101v144zM251 600q0 16 10.5 25.5t25.5 9.5t25.5 -9.5t10.5 -25.5t-10.5 -26t-25.5 -10t-25.5 10t-10.5 26z" />
    <glyph glyph-name="Gcommaaccent" unicode="&#x122;" horiz-adv-x="708" 
d="M52 350q0 90 31.5 161t85 113.5t118 64.5t134.5 22q112 0 204 -47v-39q-85 48 -199 48q-64 0 -122 -19t-106.5 -56t-77 -101t-28.5 -147q0 -84 29 -148t78 -101t107.5 -55.5t124.5 -18.5q96 0 173 37v303h39v-330q-98 -48 -215 -48q-73 0 -138.5 20.5t-119.5 62.5
t-86 113.5t-32 164.5zM417 -228h-34l21 172h38z" />
    <glyph glyph-name="gcommaaccent" unicode="&#x123;" horiz-adv-x="615" 
d="M312 549h-37l25 155h32zM47 240q0 112 67.5 181.5t171.5 69.5q70 0 125.5 -34.5t87.5 -90.5v114h35v-480q0 -115 -73.5 -173t-180.5 -58q-103 0 -190 46v37q91 -47 186 -47t157.5 48t62.5 147v111q-30 -53 -85 -87.5t-125 -34.5q-104 0 -171.5 69.5t-67.5 181.5zM496 310
q-24 63 -79.5 104t-127.5 41q-89 0 -146.5 -58t-57.5 -157q0 -98 58 -156.5t146 -58.5q72 0 127.5 40t79.5 101v144z" />
    <glyph glyph-name="Hbar" unicode="&#x126;" horiz-adv-x="768" 
d="M142 0h-40v516h-77v34h77v150h40v-150h484v150h40v-150h77v-34h-77v-516h-40v333h-484v-333zM142 516v-145h484v145h-484z" />
    <glyph glyph-name="hbar" unicode="&#x127;" 
d="M119 385q29 43 79 74.5t114 31.5q82 0 136 -53.5t54 -142.5v-295h-38v291q0 78 -43.5 121t-112.5 43q-64 0 -112.5 -35t-76.5 -85v-335h-38v583h-72v30h72v87h38v-87h197v-30h-197v-198z" />
    <glyph glyph-name="Imacron" unicode="&#x12a;" horiz-adv-x="242" 
d="M101 700h40v-700h-40v700zM-11 840h264v-36h-264v36z" />
    <glyph glyph-name="imacron" unicode="&#x12b;" horiz-adv-x="206" 
d="M-7 624h220v-36h-220v36zM84 480h38v-480h-38v480z" />
    <glyph glyph-name="Iogonek" unicode="&#x12e;" horiz-adv-x="242" 
d="M63 -144q0 -25 16.5 -40t45.5 -15q35 0 69 20v-32q-34 -20 -77 -20q-42 -1 -66 21.5t-24 58.5q0 67 74 157v694h40v-700q-26 -32 -39.5 -50t-26 -45t-12.5 -49z" />
    <glyph glyph-name="iogonek" unicode="&#x12f;" horiz-adv-x="208" 
d="M132 620q0 -28 -28 -28q-11 0 -19.5 7.5t-8.5 20.5t8.5 20t19.5 7q28 0 28 -27zM47 -144q0 -25 16.5 -40t45.5 -15q35 0 69 20v-32q-34 -20 -77 -20q-42 -1 -66 21.5t-24 58.5q0 68 74 151v480h38v-480q-76 -86 -76 -144z" />
    <glyph glyph-name="Idotaccent" unicode="&#x130;" horiz-adv-x="242" 
d="M101 700h40v-700h-40v700zM83 820q0 16 10.5 25.5t25.5 9.5t25.5 -9.5t10.5 -25.5t-10.5 -26t-25.5 -10t-25.5 10t-10.5 26z" />
    <glyph glyph-name="dotlessi" unicode="&#x131;" horiz-adv-x="208" 
d="M85 480h38v-480h-38v480z" />
    <glyph glyph-name="IJ" unicode="&#x132;" horiz-adv-x="763" 
d="M101 700h40v-700h-40v700zM405 700h264v-513q0 -97 -59.5 -147t-157.5 -50q-112 0 -179 43v40q67 -45 173 -45q85 0 134 39.5t49 120.5v474h-224v38z" />
    <glyph glyph-name="ij" unicode="&#x133;" horiz-adv-x="416" 
d="M123 0h-38v480h38v-480zM132 620q0 -28 -28 -28t-28 28q0 27 28 27t28 -27zM331 -109q0 -65 -35 -93.5t-87 -28.5q-36 0 -70 12v36q25 -11 61 -11q93 0 93 89v585h38v-589zM339 620q0 -28 -28 -28q-11 0 -19.5 7.5t-8.5 20.5t8.5 20t19.5 7q28 0 28 -27z" />
    <glyph glyph-name="Kcommaaccent" unicode="&#x136;" horiz-adv-x="656" 
d="M141 0h-40v700h40v-322h202l237 322h46l-252 -341l278 -359h-47l-262 340h-202v-340zM352 -218h-34l21 172h38z" />
    <glyph glyph-name="kcommaaccent" unicode="&#x137;" horiz-adv-x="498" 
d="M494 0h-46l-209 229h-120v-229h-38v700h38v-435h123l180 215h45l-195 -234zM267 -218h-34l21 172h38z" />
    <glyph glyph-name="Lacute" unicode="&#x139;" horiz-adv-x="576" 
d="M101 700h40v-662h418v-38h-458v700zM135 776h-43l89 137h47z" />
    <glyph glyph-name="lacute" unicode="&#x13a;" horiz-adv-x="208" 
d="M85 730h38v-730h-38v730zM113 782h-43l89 137h47z" />
    <glyph glyph-name="Lcommaaccent" unicode="&#x13b;" horiz-adv-x="576" 
d="M101 700h40v-662h418v-38h-458v700zM324 -218h-34l21 172h38z" />
    <glyph glyph-name="lcommaaccent" unicode="&#x13c;" horiz-adv-x="208" 
d="M85 730h38v-730h-38v730zM101 -218h-34l21 172h38z" />
    <glyph glyph-name="Lcaron" unicode="&#x13d;" horiz-adv-x="576" 
d="M373 700h37l-22 -163h-33zM101 700h40v-662h418v-38h-458v700z" />
    <glyph glyph-name="lcaron" unicode="&#x13e;" horiz-adv-x="207" 
d="M204 730h37l-22 -163h-33zM85 730h38v-730h-38v730z" />
    <glyph glyph-name="Ldot" unicode="&#x13f;" horiz-adv-x="582" 
d="M379 338q0 -13 -8.5 -21t-21.5 -8q-12 0 -21 8t-9 21t9 21t21 8q13 0 21.5 -8t8.5 -21zM101 700h40v-662h418v-38h-458v700z" />
    <glyph glyph-name="ldot" unicode="&#x140;" horiz-adv-x="247" 
d="M85 730h38v-730h-38v730zM258 350q0 -13 -8.5 -21t-21.5 -8q-12 0 -21 8t-9 21t9 21t21 8q13 0 21.5 -8t8.5 -21z" />
    <glyph glyph-name="Lslash" unicode="&#x141;" horiz-adv-x="581" 
d="M564 0h-458v286l-92 -40v34l92 40v380h40v-365l234 102v-34l-234 -102v-263h418v-38z" />
    <glyph glyph-name="lslash" unicode="&#x142;" horiz-adv-x="235" 
d="M99 730h38v-332l87 38v-34l-87 -38v-364h-38v348l-88 -38v34l88 39v347z" />
    <glyph glyph-name="Nacute" unicode="&#x143;" horiz-adv-x="766" 
d="M141 0h-40v700h36l488 -633v61v572h40v-700h-35l-489 632v-59v-573zM382 776h-43l89 137h47z" />
    <glyph glyph-name="nacute" unicode="&#x144;" 
d="M116 381q29 44 80 77t116 33q82 0 136 -53.5t54 -142.5v-295h-38v291q0 78 -43.5 121t-111.5 43q-64 0 -113 -35t-77 -85v-335h-38v480h35v-99zM287 556h-43l89 137h47z" />
    <glyph glyph-name="Ncommaaccent" unicode="&#x145;" horiz-adv-x="766" 
d="M141 0h-40v700h36l488 -633v61v572h40v-700h-35l-489 632v-59v-573zM388 -218h-34l21 172h38z" />
    <glyph glyph-name="ncommaaccent" unicode="&#x146;" 
d="M116 381q29 44 80 77t116 33q82 0 136 -53.5t54 -142.5v-295h-38v291q0 78 -43.5 121t-111.5 43q-64 0 -113 -35t-77 -85v-335h-38v480h35v-99zM293 -218h-34l21 172h38z" />
    <glyph glyph-name="Ncaron" unicode="&#x147;" horiz-adv-x="766" 
d="M141 0h-40v700h36l488 -633v61v572h40v-700h-35l-489 632v-59v-573zM529 897l-128 -131h-33l-128 131h44l101 -101l100 101h44z" />
    <glyph glyph-name="ncaron" unicode="&#x148;" 
d="M116 381q29 44 80 77t116 33q82 0 136 -53.5t54 -142.5v-295h-38v291q0 78 -43.5 121t-111.5 43q-64 0 -113 -35t-77 -85v-335h-38v480h35v-99zM434 677l-128 -131h-33l-128 131h44l101 -101l100 101h44z" />
    <glyph glyph-name="Eng" unicode="&#x14a;" horiz-adv-x="766" 
d="M665 -106q0 -64 -35.5 -94t-89.5 -30q-34 0 -69 11v37q30 -10 62 -10q92 0 92 90v107l-484 628v-60v-573h-40v700h35l489 -632v60v572h40v-806z" />
    <glyph glyph-name="eng" unicode="&#x14b;" 
d="M502 -109q0 -65 -35 -93.5t-87 -28.5q-36 0 -70 12v36q28 -12 61 -12q93 0 93 90v396q0 78 -43.5 121t-111.5 43q-64 0 -113 -35t-77 -85v-335h-38v480h35v-99q29 44 80 77t116 33q82 0 136 -53.5t54 -142.5v-404z" />
    <glyph glyph-name="Omacron" unicode="&#x14c;" horiz-adv-x="825" 
d="M50 350q0 67 23 130.5t66.5 115.5t114.5 83.5t158 31.5q88 0 159 -31.5t114.5 -83.5t66.5 -115.5t23 -130.5t-23 -130.5t-66.5 -115.5t-114.5 -83.5t-159 -31.5q-87 0 -158 31.5t-114.5 83.5t-66.5 115.5t-23 130.5zM735 350q0 61 -20.5 117.5t-59 103t-102 74.5
t-141.5 28t-141 -28t-101.5 -74.5t-59 -103t-20.5 -117.5t20.5 -117.5t59 -103t101.5 -74.5t141 -28t141.5 28t102 74.5t59 103t20.5 117.5zM281 840h264v-36h-264v36z" />
    <glyph glyph-name="omacron" unicode="&#x14d;" horiz-adv-x="591" 
d="M46 240q0 116 73.5 183.5t175.5 67.5q103 0 176.5 -67.5t73.5 -183.5t-73.5 -183.5t-176.5 -67.5q-102 0 -175.5 67.5t-73.5 183.5zM507 240q0 98 -61.5 156t-150.5 58t-150 -58t-61 -156t61 -156t150 -58t150.5 58t61.5 156zM163 614h264v-36h-264v36z" />
    <glyph glyph-name="Ohungarumlaut" unicode="&#x150;" horiz-adv-x="825" 
d="M50 350q0 67 23 130.5t66.5 115.5t114.5 83.5t158 31.5q88 0 159 -31.5t114.5 -83.5t66.5 -115.5t23 -130.5t-23 -130.5t-66.5 -115.5t-114.5 -83.5t-159 -31.5q-87 0 -158 31.5t-114.5 83.5t-66.5 115.5t-23 130.5zM735 350q0 61 -20.5 117.5t-59 103t-102 74.5
t-141.5 28t-141 -28t-101.5 -74.5t-59 -103t-20.5 -117.5t20.5 -117.5t59 -103t101.5 -74.5t141 -28t141.5 28t102 74.5t59 103t20.5 117.5zM504 779h-41l74 143h43zM351 779h-41l74 143h43z" />
    <glyph glyph-name="ohungarumlaut" unicode="&#x151;" horiz-adv-x="591" 
d="M46 240q0 116 73.5 183.5t175.5 67.5q103 0 176.5 -67.5t73.5 -183.5t-73.5 -183.5t-176.5 -67.5q-102 0 -175.5 67.5t-73.5 183.5zM507 240q0 98 -61.5 156t-150.5 58t-150 -58t-61 -156t61 -156t150 -58t150.5 58t61.5 156zM386 553h-41l74 143h43zM233 553h-41l74 143
h43z" />
    <glyph glyph-name="OE" unicode="&#x152;" horiz-adv-x="1024" 
d="M533 0q-46 -11 -122 -11q-87 0 -158 31.5t-114 83.5t-66 115.5t-23 130.5t23 130.5t66 115.5t114 83.5t158 31.5q76 0 122 -11h430v-38h-390v-291h360v-38h-360v-295h396v-38h-436zM90 350q0 -63 21 -120t60.5 -103t102.5 -73t140 -27q69 0 120 12v622q-51 12 -120 12
q-77 0 -140 -27t-102.5 -73t-60.5 -103t-21 -120z" />
    <glyph glyph-name="oe" unicode="&#x153;" horiz-adv-x="991" 
d="M519 151q-24 -77 -85 -119.5t-141 -42.5q-103 0 -174.5 67.5t-71.5 183.5t71.5 183.5t174.5 67.5q80 0 141.5 -43t85.5 -120q23 76 82 119.5t130 43.5q51 0 91.5 -17t64.5 -44.5t40 -63.5t18 -74t-3 -76h-404q4 -94 69 -142.5t154 -48.5q86 0 151 38v-36
q-67 -38 -158 -38q-81 0 -147 41t-89 121zM85 240q0 -99 59.5 -156.5t148.5 -57.5t148.5 57.5t59.5 156.5t-59.5 156.5t-148.5 57.5t-148.5 -57.5t-59.5 -156.5zM734 455q-78 0 -135 -54.5t-60 -150.5h370q4 35 -3.5 69t-26 65.5t-56.5 51t-89 19.5z" />
    <glyph glyph-name="Racute" unicode="&#x154;" horiz-adv-x="685" 
d="M141 0h-40v700h266q64 0 118 -18.5t93 -66.5t39 -120q0 -96 -62.5 -145.5t-152.5 -57.5l260 -292h-49l-257 289h-215v-289zM141 662v-335h228q85 0 146.5 40.5t61.5 127.5t-61 127t-147 40h-228zM338 776h-43l89 137h47z" />
    <glyph glyph-name="racute" unicode="&#x155;" horiz-adv-x="344" 
d="M116 349q26 62 83.5 102.5t132.5 38.5v-38q-82 3 -138 -45t-75 -119v-288h-38v480h35v-131zM191 556h-43l89 137h47z" />
    <glyph glyph-name="Rcommaaccent" unicode="&#x156;" horiz-adv-x="685" 
d="M141 0h-40v700h266q64 0 118 -18.5t93 -66.5t39 -120q0 -96 -62.5 -145.5t-152.5 -57.5l260 -292h-49l-257 289h-215v-289zM141 662v-335h228q85 0 146.5 40.5t61.5 127.5t-61 127t-147 40h-228zM356 -218h-34l21 172h38z" />
    <glyph glyph-name="rcommaaccent" unicode="&#x157;" horiz-adv-x="344" 
d="M116 349q26 62 83.5 102.5t132.5 38.5v-38q-82 3 -138 -45t-75 -119v-288h-38v480h35v-131zM95 -218h-34l21 172h38z" />
    <glyph glyph-name="Rcaron" unicode="&#x158;" horiz-adv-x="685" 
d="M141 0h-40v700h266q64 0 118 -18.5t93 -66.5t39 -120q0 -96 -62.5 -145.5t-152.5 -57.5l260 -292h-49l-257 289h-215v-289zM141 662v-335h228q85 0 146.5 40.5t61.5 127.5t-61 127t-147 40h-228zM485 897l-128 -131h-33l-128 131h44l101 -101l100 101h44z" />
    <glyph glyph-name="rcaron" unicode="&#x159;" horiz-adv-x="344" 
d="M116 349q26 62 83.5 102.5t132.5 38.5v-38q-82 3 -138 -45t-75 -119v-288h-38v480h35v-131zM338 677l-128 -131h-33l-128 131h44l101 -101l100 101h44z" />
    <glyph glyph-name="Sacute" unicode="&#x15a;" horiz-adv-x="568" 
d="M57 537q0 85 65 129.5t158 44.5q114 0 202 -49v-39q-87 50 -200 50q-79 0 -132 -33.5t-53 -101.5q0 -42 24 -73t62 -49.5t84 -33.5t92.5 -31.5t84.5 -38.5t62 -59.5t24 -88.5q0 -89 -68 -132t-172 -43q-133 0 -238 59v40q107 -61 236 -61q89 0 145.5 32t56.5 102
q0 45 -24 77.5t-62 52t-84 35t-92.5 32t-84.5 37.5t-62 57t-24 85zM273 776h-43l89 137h47z" />
    <glyph glyph-name="sacute" unicode="&#x15b;" horiz-adv-x="455" 
d="M51 365q0 63 50.5 94.5t120.5 31.5q94 0 165 -42v-36q-67 43 -163 43q-56 0 -95.5 -22.5t-39.5 -67.5q0 -34 24 -57t60.5 -33.5t79 -23.5t79 -26t60.5 -41.5t24 -69.5q0 -63 -53 -94.5t-131 -31.5q-49 0 -100.5 13t-83.5 35v38q34 -23 84.5 -36.5t97.5 -13.5
q65 0 106.5 22t41.5 67q0 39 -33.5 63t-82 36.5t-96.5 26.5t-81.5 45t-33.5 80zM220 556h-43l89 137h47z" />
    <glyph glyph-name="Scedilla" unicode="&#x15e;" horiz-adv-x="568" 
d="M97 538q0 -42 24 -73t62 -49.5t84 -33.5t92.5 -31.5t84.5 -38.5t62 -59.5t24 -88.5q0 -85 -61 -127.5t-156 -46.5l-20 -76q48 9 83 -8t36 -55t-30.5 -60t-87.5 -22t-98 22v33q40 -23 94 -23q44 0 66.5 14.5t21.5 36.5q-1 29 -40.5 38.5t-83.5 -3.5l25 103q-125 2 -227 58
v40q107 -61 236 -61q89 0 145.5 32t56.5 102q0 45 -24 77.5t-62 52t-84 35t-92.5 32t-84.5 37.5t-62 57t-24 85q0 85 65 129.5t158 44.5q114 0 202 -49v-39q-87 50 -200 50q-79 0 -132 -33.5t-53 -101.5z" />
    <glyph glyph-name="scedilla" unicode="&#x15f;" horiz-adv-x="455" 
d="M89 366q0 -34 24 -57t60.5 -33.5t79 -23.5t79 -26t60.5 -41.5t24 -69.5q0 -59 -45.5 -90t-116.5 -35l-16 -76q48 9 82.5 -8t35.5 -55t-30.5 -60t-87.5 -22q-54 0 -98 22v33q41 -23 95 -23q44 0 66 14.5t22 36.5q-1 29 -40.5 38.5t-83.5 -3.5l22 103q-104 2 -173 47v38
q34 -23 84.5 -36.5t97.5 -13.5q65 0 106.5 22t41.5 67q0 39 -33.5 63t-82 36.5t-96.5 26.5t-81.5 45t-33.5 80q0 63 50.5 94.5t120.5 31.5q94 0 165 -42v-36q-67 43 -163 43q-56 0 -95.5 -22.5t-39.5 -67.5z" />
    <glyph glyph-name="Scaron" unicode="&#x160;" horiz-adv-x="568" 
d="M57 537q0 85 65 129.5t158 44.5q114 0 202 -49v-39q-87 50 -200 50q-79 0 -132 -33.5t-53 -101.5q0 -42 24 -73t62 -49.5t84 -33.5t92.5 -31.5t84.5 -38.5t62 -59.5t24 -88.5q0 -89 -68 -132t-172 -43q-133 0 -238 59v40q107 -61 236 -61q89 0 145.5 32t56.5 102
q0 45 -24 77.5t-62 52t-84 35t-92.5 32t-84.5 37.5t-62 57t-24 85zM420 897l-128 -131h-33l-128 131h44l101 -101l100 101h44z" />
    <glyph glyph-name="scaron" unicode="&#x161;" horiz-adv-x="455" 
d="M51 365q0 63 50.5 94.5t120.5 31.5q94 0 165 -42v-36q-67 43 -163 43q-56 0 -95.5 -22.5t-39.5 -67.5q0 -34 24 -57t60.5 -33.5t79 -23.5t79 -26t60.5 -41.5t24 -69.5q0 -63 -53 -94.5t-131 -31.5q-49 0 -100.5 13t-83.5 35v38q34 -23 84.5 -36.5t97.5 -13.5
q65 0 106.5 22t41.5 67q0 39 -33.5 63t-82 36.5t-96.5 26.5t-81.5 45t-33.5 80zM367 677l-128 -131h-33l-128 131h44l101 -101l100 101h44z" />
    <glyph glyph-name="Tcommaaccent" unicode="&#x162;" horiz-adv-x="594" 
d="M14 700h566v-38h-263v-662h-40v662h-263v38zM293 -218h-34l21 172h38z" />
    <glyph glyph-name="tcommaaccent" unicode="&#x163;" horiz-adv-x="376" 
d="M105 636l38 11v-167h208v-36h-208v-303q0 -115 118 -115q58 0 103 24v-36q-46 -23 -113 -23q-69 0 -107.5 37t-38.5 108v308h-90v36h90v156zM235 -218h-34l21 172h38z" />
    <glyph glyph-name="Tcaron" unicode="&#x164;" horiz-adv-x="594" 
d="M14 700h566v-38h-263v-662h-40v662h-263v38zM445 897l-128 -131h-33l-128 131h44l101 -101l100 101h44z" />
    <glyph glyph-name="tcaron" unicode="&#x165;" horiz-adv-x="376" 
d="M251 730h37l-22 -159h-33zM105 636l38 11v-167h208v-36h-208v-303q0 -115 118 -115q58 0 103 24v-36q-46 -23 -113 -23q-69 0 -107.5 37t-38.5 108v308h-90v36h90v156z" />
    <glyph glyph-name="Tbar" unicode="&#x166;" horiz-adv-x="606" 
d="M323 0h-40v338h-134v34h134v290h-263v38h566v-38h-263v-290h135v-34h-135v-338z" />
    <glyph glyph-name="tbar" unicode="&#x167;" horiz-adv-x="376" 
d="M143 141q0 -115 118 -115q58 0 103 24v-36q-46 -23 -113 -23q-69 0 -107.5 37t-38.5 108v134h-54v34h54v140h-90v36h90v156l38 11v-167h208v-36h-208v-140h164v-34h-164v-129z" />
    <glyph glyph-name="Umacron" unicode="&#x16a;" horiz-adv-x="750" 
d="M617 700h40v-455q0 -69 -21.5 -120t-61 -80t-89 -42.5t-110.5 -13.5t-110.5 13.5t-89 42.5t-61 80t-21.5 120v455h40v-454q0 -219 242 -219t242 219v454zM245 840h264v-36h-264v36z" />
    <glyph glyph-name="umacron" unicode="&#x16b;" 
d="M458 480h38v-480h-35v99q-29 -44 -80 -77t-116 -33q-85 0 -137.5 53t-52.5 143v295h38v-291q0 -78 42.5 -121t112.5 -43q64 0 113 35t77 85v335zM160 620h264v-36h-264v36z" />
    <glyph glyph-name="Uring" unicode="&#x16e;" horiz-adv-x="750" 
d="M617 700h40v-455q0 -69 -21.5 -120t-61 -80t-89 -42.5t-110.5 -13.5t-110.5 13.5t-89 42.5t-61 80t-21.5 120v455h40v-454q0 -219 242 -219t242 219v454zM469 844q0 -40 -27.5 -65t-64.5 -25q-38 0 -65.5 25t-27.5 65q0 39 27.5 63.5t65.5 24.5q37 0 64.5 -24.5
t27.5 -63.5zM315 843q0 -27 18.5 -44t43.5 -17t43.5 17t18.5 44t-18.5 44t-43.5 17t-43.5 -17t-18.5 -44z" />
    <glyph glyph-name="uring" unicode="&#x16f;" 
d="M458 480h38v-480h-35v99q-29 -44 -80 -77t-116 -33q-85 0 -137.5 53t-52.5 143v295h38v-291q0 -78 42.5 -121t112.5 -43q64 0 113 35t77 85v335zM384 624q0 -40 -27.5 -65t-64.5 -25q-38 0 -65.5 25t-27.5 65q0 39 27.5 63.5t65.5 24.5q37 0 64.5 -24.5t27.5 -63.5z
M230 623q0 -27 18.5 -44t43.5 -17t43.5 17t18.5 44t-18.5 44t-43.5 17t-43.5 -17t-18.5 -44z" />
    <glyph glyph-name="Uhungarumlaut" unicode="&#x170;" horiz-adv-x="750" 
d="M617 700h40v-455q0 -69 -21.5 -120t-61 -80t-89 -42.5t-110.5 -13.5t-110.5 13.5t-89 42.5t-61 80t-21.5 120v455h40v-454q0 -219 242 -219t242 219v454zM468 779h-41l74 143h43zM315 779h-41l74 143h43z" />
    <glyph glyph-name="uhungarumlaut" unicode="&#x171;" 
d="M458 480h38v-480h-35v99q-29 -44 -80 -77t-116 -33q-85 0 -137.5 53t-52.5 143v295h38v-291q0 -78 42.5 -121t112.5 -43q64 0 113 35t77 85v335zM383 559h-41l74 143h43zM230 559h-41l74 143h43z" />
    <glyph glyph-name="Uogonek" unicode="&#x172;" horiz-adv-x="750" 
d="M567 -211q-34 -20 -77 -20q-42 -1 -66 21.5t-24 58.5q0 34 23.5 77.5t61.5 78.5q-48 -16 -110 -16q-61 0 -110.5 13.5t-89 42.5t-61 80t-21.5 120v455h40v-454q0 -219 242 -219t242 219v454h40v-455q0 -142 -94 -207q-59 -41 -93 -92.5t-33 -89.5q-1 -25 15 -40t46 -15
q35 0 69 20v-32z" />
    <glyph glyph-name="uogonek" unicode="&#x173;" 
d="M496 480v-480q-48 -33 -78 -72t-30 -74q0 -25 15 -39t41 -14q25 0 52 11v-31q-27 -12 -60 -12q-40 0 -62 21t-22 57q0 82 109 163v89q-29 -44 -80 -77t-116 -33q-85 0 -137.5 53t-52.5 143v295h38v-291q0 -78 42.5 -121t112.5 -43q64 0 113 35t77 85v335h38z" />
    <glyph glyph-name="Wcircumflex" unicode="&#x174;" horiz-adv-x="993" 
d="M925 700h43l-223 -700h-43l-206 628l-205 -628h-43l-223 700h43l202 -649l209 643h36l208 -643zM481 907h33l128 -131h-44l-100 101l-101 -101h-44z" />
    <glyph glyph-name="wcircumflex" unicode="&#x175;" horiz-adv-x="799" 
d="M734 480h40l-180 -480h-39l-156 423l-155 -423h-39l-180 480h40l160 -435l156 429h36l157 -429zM384 687h33l128 -131h-44l-100 101l-101 -101h-44z" />
    <glyph glyph-name="Ycircumflex" unicode="&#x176;" horiz-adv-x="634" 
d="M337 0h-40v279l-276 421h45l251 -384l251 384h45l-276 -421v-279zM303 907h33l128 -131h-44l-100 101l-101 -101h-44z" />
    <glyph glyph-name="ycircumflex" unicode="&#x177;" horiz-adv-x="531" 
d="M276 40l194 440h40l-250 -564q-35 -79 -74.5 -113t-89.5 -34q-26 0 -50 7v34q28 -7 46 -7q43 0 75.5 30.5t61.5 97.5l29 67l-243 482h41zM243 687h33l128 -131h-44l-100 101l-101 -101h-44z" />
    <glyph glyph-name="Ydieresis" unicode="&#x178;" horiz-adv-x="634" 
d="M337 0h-40v279l-276 421h45l251 -384l251 384h45l-276 -421v-279zM449 836q0 -13 -9 -22t-22 -9t-22 9t-9 22q0 12 9 21.5t22 9.5t22 -9.5t9 -21.5zM248 836q0 -13 -9 -22t-22 -9t-22 9t-9 22q0 12 9 21.5t22 9.5t22 -9.5t9 -21.5z" />
    <glyph glyph-name="Zacute" unicode="&#x179;" horiz-adv-x="574" 
d="M543 0h-516v35l458 627h-441v38h490v-35l-459 -627h468v-38zM290 776h-43l89 137h47z" />
    <glyph glyph-name="zacute" unicode="&#x17a;" horiz-adv-x="449" 
d="M45 480h358v-33l-324 -413h338v-34h-385v33l325 413h-312v34zM233 556h-43l89 137h47z" />
    <glyph glyph-name="Zdotaccent" unicode="&#x17b;" horiz-adv-x="574" 
d="M543 0h-516v35l458 627h-441v38h490v-35l-459 -627h468v-38zM253 820q0 16 10.5 25.5t25.5 9.5t25.5 -9.5t10.5 -25.5t-10.5 -26t-25.5 -10t-25.5 10t-10.5 26z" />
    <glyph glyph-name="zdotaccent" unicode="&#x17c;" horiz-adv-x="449" 
d="M45 480h358v-33l-324 -413h338v-34h-385v33l325 413h-312v34zM196 600q0 16 10.5 25.5t25.5 9.5t25.5 -9.5t10.5 -25.5t-10.5 -26t-25.5 -10t-25.5 10t-10.5 26z" />
    <glyph glyph-name="Zcaron" unicode="&#x17d;" horiz-adv-x="574" 
d="M543 0h-516v35l458 627h-441v38h490v-35l-459 -627h468v-38zM437 897l-128 -131h-33l-128 131h44l101 -101l100 101h44z" />
    <glyph glyph-name="zcaron" unicode="&#x17e;" horiz-adv-x="449" 
d="M45 480h358v-33l-324 -413h338v-34h-385v33l325 413h-312v34zM380 677l-128 -131h-33l-128 131h44l101 -101l100 101h44z" />
    <glyph glyph-name="Scommaaccent" unicode="&#x218;" horiz-adv-x="568" 
d="M57 537q0 85 65 129.5t158 44.5q114 0 202 -49v-39q-87 50 -200 50q-79 0 -132 -33.5t-53 -101.5q0 -42 24 -73t62 -49.5t84 -33.5t92.5 -31.5t84.5 -38.5t62 -59.5t24 -88.5q0 -89 -68 -132t-172 -43q-133 0 -238 59v40q107 -61 236 -61q89 0 145.5 32t56.5 102
q0 45 -24 77.5t-62 52t-84 35t-92.5 32t-84.5 37.5t-62 57t-24 85zM285 -218h-34l21 172h38z" />
    <glyph glyph-name="scommaaccent" unicode="&#x219;" horiz-adv-x="455" 
d="M51 365q0 63 50.5 94.5t120.5 31.5q94 0 165 -42v-36q-67 43 -163 43q-56 0 -95.5 -22.5t-39.5 -67.5q0 -34 24 -57t60.5 -33.5t79 -23.5t79 -26t60.5 -41.5t24 -69.5q0 -63 -53 -94.5t-131 -31.5q-49 0 -100.5 13t-83.5 35v38q34 -23 84.5 -36.5t97.5 -13.5
q65 0 106.5 22t41.5 67q0 39 -33.5 63t-82 36.5t-96.5 26.5t-81.5 45t-33.5 80zM235 -218h-34l21 172h38z" />
    <glyph glyph-name="uni021A" unicode="&#x21a;" horiz-adv-x="594" 
d="M14 700h566v-38h-263v-662h-40v662h-263v38zM293 -218h-34l21 172h38z" />
    <glyph glyph-name="uni021B" unicode="&#x21b;" horiz-adv-x="376" 
d="M105 636l38 11v-167h208v-36h-208v-303q0 -115 118 -115q58 0 103 24v-36q-46 -23 -113 -23q-69 0 -107.5 37t-38.5 108v308h-90v36h90v156zM235 -218h-34l21 172h38z" />
    <glyph glyph-name="circumflex" unicode="&#x2c6;" horiz-adv-x="275" 
d="M121 907h33l128 -131h-44l-100 101l-101 -101h-44z" />
    <glyph glyph-name="caron" unicode="&#x2c7;" horiz-adv-x="275" 
d="M282 897l-128 -131h-33l-128 131h44l101 -101l100 101h44z" />
    <glyph glyph-name="breve" unicode="&#x2d8;" horiz-adv-x="321" 
d="M289 820q-51 -42 -128 -42t-128 42v39q56 -44 128 -44t128 44v-39z" />
    <glyph glyph-name="dotaccent" unicode="&#x2d9;" horiz-adv-x="92" 
d="M10 820q0 16 10.5 25.5t25.5 9.5t25.5 -9.5t10.5 -25.5t-10.5 -26t-25.5 -10t-25.5 10t-10.5 26z" />
    <glyph glyph-name="ring" unicode="&#x2da;" horiz-adv-x="206" 
d="M195 844q0 -40 -27.5 -65t-64.5 -25q-38 0 -65.5 25t-27.5 65q0 39 27.5 63.5t65.5 24.5q37 0 64.5 -24.5t27.5 -63.5zM41 843q0 -27 18.5 -44t43.5 -17t43.5 17t18.5 44t-18.5 44t-43.5 17t-43.5 -17t-18.5 -44z" />
    <glyph glyph-name="ogonek" unicode="&#x2db;" horiz-adv-x="206" 
d="M125 0h42q-114 -77 -114 -144q0 -25 16.5 -40t45.5 -15q35 0 69 20v-32q-34 -20 -77 -20q-42 -1 -66 21.5t-24 58.5q0 76 108 151z" />
    <glyph glyph-name="tilde" unicode="&#x2dc;" horiz-adv-x="319" 
d="M308 863q4 -37 -13.5 -59t-49.5 -22q-30 0 -87 26.5t-76 26.5t-29 -13t-8 -35h-34q-5 36 13.5 59t49.5 23q29 0 86.5 -26.5t76.5 -26.5q42 0 37 47h34z" />
    <glyph glyph-name="hungarumlaut" unicode="&#x2dd;" horiz-adv-x="318" 
d="M218 779h-41l74 143h43zM65 779h-41l74 143h43z" />
    <glyph glyph-name="uni0326" unicode="&#x326;" horiz-adv-x="100" 
d="M55 -218h-34l21 172h38z" />
    <glyph glyph-name="uni0401" unicode="&#x401;" horiz-adv-x="622" 
d="M464 836q0 -13 -9 -22t-22 -9t-22 9t-9 22q0 12 9 21.5t22 9.5t22 -9.5t9 -21.5zM263 836q0 -13 -9 -22t-22 -9t-22 9t-9 22q0 12 9 21.5t22 9.5t22 -9.5t9 -21.5zM101 700h459v-38h-419v-291h389v-38h-389v-295h428v-38h-468v700z" />
    <glyph glyph-name="uni0410" unicode="&#x410;" horiz-adv-x="708" 
d="M57 0h-43l318 700h45l317 -700h-42l-93 204h-410zM347 642l-181 -401h378l-181 401q-1 3 -3.5 9t-4.5 9q-1 -3 -4 -9t-4 -9z" />
    <glyph glyph-name="uni0411" unicode="&#x411;" horiz-adv-x="658" 
d="M141 401h195q60 0 106 -8t88 -28.5t65 -62t23 -102.5t-23 -102t-65 -61.5t-88 -28.5t-106 -8h-235v700h465v-38h-425v-261zM141 38h197q53 0 91.5 6t74.5 22t55 49.5t19 84.5t-19 85t-55 50t-74.5 22t-91.5 6h-197v-325z" />
    <glyph glyph-name="uni0412" unicode="&#x412;" horiz-adv-x="679" 
d="M101 700h261q108 0 171.5 -43.5t63.5 -131.5q0 -67 -39 -106.5t-98 -50.5q30 -6 56 -17t52 -30.5t41.5 -53.5t15.5 -78q0 -47 -18 -82.5t-44.5 -55t-64.5 -32t-70.5 -16t-69.5 -3.5h-257v700zM585 193q0 36 -14.5 64t-35.5 44.5t-49 27t-53 14.5t-49 4h-243v-309h210
q37 0 65 2.5t61.5 11.5t55.5 25t37 45.5t15 70.5zM557 520q0 142 -198 142h-218v-277h251q68 0 116.5 36t48.5 99z" />
    <glyph glyph-name="uni0413" unicode="&#x413;" horiz-adv-x="568" 
d="M141 0h-40v700h453v-38h-413v-662z" />
    <glyph glyph-name="uni0414" unicode="&#x414;" horiz-adv-x="749" 
d="M55 -174h-38v212h74q67 120 98 296t31 366h412v-662h86v-212h-38v174h-625v-174zM259 662q-10 -411 -124 -624h456v624h-332z" />
    <glyph glyph-name="uni0415" unicode="&#x415;" horiz-adv-x="622" 
d="M101 700h459v-38h-419v-291h389v-38h-389v-295h428v-38h-468v700z" />
    <glyph glyph-name="uni0416" unicode="&#x416;" horiz-adv-x="930" 
d="M56 0h-46l240 359l-214 341h45l200 -322h164v322h40v-322h164l200 322h45l-214 -341l240 -359h-46l-226 340h-163v-340h-40v340h-163z" />
    <glyph glyph-name="uni0417" unicode="&#x417;" horiz-adv-x="603" 
d="M551 188q0 -53 -24 -93t-64 -62t-85.5 -33t-94.5 -11q-140 0 -242 44v39q99 -45 239 -45q44 0 82.5 8.5t73 26.5t55 51.5t20.5 77.5q0 57 -37 93.5t-85.5 49t-108.5 12.5h-133v38h129q94 0 150 38t56 104q0 73 -59 110t-153 37q-116 0 -217 -46v39q96 45 220 45
q109 0 179 -46.5t70 -134.5q0 -66 -43.5 -108.5t-115.5 -55.5q79 -10 133.5 -53t54.5 -125z" />
    <glyph glyph-name="uni0418" unicode="&#x418;" horiz-adv-x="766" 
d="M665 0h-40v573v59l-489 -632h-35v700h40v-572v-61l488 633h36v-700z" />
    <glyph glyph-name="uni0419" unicode="&#x419;" horiz-adv-x="766" 
d="M625 0h40v700h-36l-488 -633v61v572h-40v-700h35l489 632v-59v-573zM511 820q-51 -42 -128 -42t-128 42v39q56 -44 128 -44t128 44v-39z" />
    <glyph glyph-name="uni041A" unicode="&#x41a;" horiz-adv-x="656" 
d="M141 0h-40v700h40v-322h202l237 322h46l-252 -341l278 -359h-47l-262 340h-202v-340z" />
    <glyph glyph-name="uni041B" unicode="&#x41b;" horiz-adv-x="735" 
d="M235 700h399v-700h-40v662h-321q-5 -65 -8.5 -103.5t-9.5 -98t-11.5 -96.5t-13.5 -87t-17 -81t-21 -68t-27 -59t-32.5 -41.5t-39 -28.5t-46.5 -9q-28 0 -51 9v38q22 -7 46 -7q21 0 39 9t32.5 28.5t27 41.5t22.5 58.5t18 67.5t15 81t12 87t10.5 96t8.5 98t8 103z" />
    <glyph glyph-name="uni041C" unicode="&#x41c;" horiz-adv-x="898" 
d="M764 700h33v-700h-40v623l-296 -435h-24l-296 435v-623h-40v700h32l316 -463z" />
    <glyph glyph-name="uni041D" unicode="&#x41d;" horiz-adv-x="766" 
d="M625 700h40v-700h-40v333h-484v-333h-40v700h40v-329h484v329z" />
    <glyph glyph-name="uni041E" unicode="&#x41e;" horiz-adv-x="825" 
d="M50 350q0 67 23 130.5t66.5 115.5t114.5 83.5t158 31.5q88 0 159 -31.5t114.5 -83.5t66.5 -115.5t23 -130.5t-23 -130.5t-66.5 -115.5t-114.5 -83.5t-159 -31.5q-87 0 -158 31.5t-114.5 83.5t-66.5 115.5t-23 130.5zM735 350q0 61 -20.5 117.5t-59 103t-102 74.5
t-141.5 28t-141 -28t-101.5 -74.5t-59 -103t-20.5 -117.5t20.5 -117.5t59 -103t101.5 -74.5t141 -28t141.5 28t102 74.5t59 103t20.5 117.5z" />
    <glyph glyph-name="uni041F" unicode="&#x41f;" horiz-adv-x="748" 
d="M141 0h-40v700h546v-700h-39v662h-467v-662z" />
    <glyph glyph-name="uni0420" unicode="&#x420;" horiz-adv-x="653" 
d="M101 700h223q293 0 293 -219q0 -220 -293 -220h-183v-261h-40v700zM577 481q0 181 -251 181h-185v-363h185q251 0 251 182z" />
    <glyph glyph-name="uni0421" unicode="&#x421;" horiz-adv-x="662" 
d="M51 342q0 88 31.5 160t83.5 116.5t115.5 68.5t131.5 24q108 0 196 -48v-40q-83 50 -191 50q-61 0 -118 -21t-104.5 -60.5t-76 -104.5t-28.5 -145q0 -77 29 -139t76.5 -99.5t105 -57t118.5 -19.5q114 0 197 51v-40q-89 -49 -204 -49q-67 0 -130.5 22.5t-115.5 64.5
t-84 111.5t-32 154.5z" />
    <glyph glyph-name="uni0422" unicode="&#x422;" horiz-adv-x="594" 
d="M14 700h566v-38h-263v-662h-40v662h-263v38z" />
    <glyph glyph-name="uni0423" unicode="&#x423;" horiz-adv-x="621" 
d="M351 159q-49 -97 -98 -133.5t-110 -36.5q-43 0 -80 12v37q39 -11 74 -11q50 0 87.5 26.5t75.5 93.5l12 24l-300 529h44l277 -491l247 491h43z" />
    <glyph glyph-name="uni0424" unicode="&#x424;" horiz-adv-x="848" 
d="M444 -36h-40v94q-171 2 -271.5 78.5t-100.5 213.5t100.5 213.5t271.5 78.5v94h40v-94q171 -2 271.5 -78.5t100.5 -213.5t-100.5 -213.5t-271.5 -78.5v-94zM72 350q0 -120 87.5 -187t244.5 -69v512q-157 -2 -244.5 -69t-87.5 -187zM444 606v-512q157 2 244.5 69t87.5 187
t-87.5 187t-244.5 69z" />
    <glyph glyph-name="uni0425" unicode="&#x425;" horiz-adv-x="614" 
d="M55 0h-47l276 360l-261 340h47l237 -309l237 309h47l-260 -340l275 -360h-47l-252 329z" />
    <glyph glyph-name="uni0426" unicode="&#x426;" horiz-adv-x="765" 
d="M734 -174h-38v174h-595v700h40v-662h468v662h39v-662h86v-212z" />
    <glyph glyph-name="uni0427" unicode="&#x427;" horiz-adv-x="675" 
d="M574 0h-40v290q-113 -40 -225 -38q-124 2 -192 61.5t-68 173.5v213h40v-214q0 -99 60 -147t168 -49q107 -2 217 39v371h40v-700z" />
    <glyph glyph-name="uni0428" unicode="&#x428;" horiz-adv-x="1062" 
d="M961 0h-860v700h40v-662h370v662h40v-662h371v662h39v-700z" />
    <glyph glyph-name="uni0429" unicode="&#x429;" horiz-adv-x="1078" 
d="M1047 -174h-38l1 174h-909v700h40v-662h370v662h40v-662h371v662h39v-662h86v-212z" />
    <glyph glyph-name="uni042A" unicode="&#x42a;" horiz-adv-x="751" 
d="M422 0h-223v662h-185v38h225v-262h183q293 0 293 -219t-293 -219zM239 400v-362h185q251 0 251 181t-251 181h-185z" />
    <glyph glyph-name="uni042B" unicode="&#x42b;" horiz-adv-x="842" 
d="M324 0h-223v700h40v-262h183q293 0 293 -219t-293 -219zM141 400v-362h185q251 0 251 181t-251 181h-185zM741 0h-40v700h40v-700z" />
    <glyph glyph-name="uni042C" unicode="&#x42c;" horiz-adv-x="653" 
d="M324 0h-223v700h40v-262h183q293 0 293 -219t-293 -219zM141 400v-362h185q251 0 251 181t-251 181h-185z" />
    <glyph glyph-name="uni042D" unicode="&#x42d;" horiz-adv-x="657" 
d="M48 663q87 48 197 48q67 0 130.5 -23.5t115 -67.5t83 -116t31.5 -160q0 -89 -31.5 -159t-84 -111.5t-115.5 -63t-131 -21.5q-108 0 -195 49v41q86 -52 190 -52q131 0 227 77.5t100 226.5h-398v38h398q-7 144 -103 224t-222 80q-111 0 -192 -50v40z" />
    <glyph glyph-name="uni042E" unicode="&#x42e;" horiz-adv-x="1079" 
d="M1029 350q0 -67 -23 -130.5t-66.5 -115.5t-114.5 -83.5t-159 -31.5q-112 0 -194.5 51t-122.5 127t-44 164h-164v-331h-40v700h40v-331h164q4 88 44 164t122.5 127t194.5 51q88 0 159 -31.5t114.5 -83.5t66.5 -115.5t23 -130.5zM344 350q0 -61 20.5 -117.5t59 -103
t101.5 -74.5t141 -28t141.5 28t102 74.5t59 103t20.5 117.5t-20.5 117.5t-59 103t-102 74.5t-141.5 28t-141 -28t-101.5 -74.5t-59 -103t-20.5 -117.5z" />
    <glyph glyph-name="uni042F" unicode="&#x42f;" horiz-adv-x="679" 
d="M85 0h-48l214 275q-85 17 -136.5 70.5t-51.5 139.5q0 104 73.5 159.5t186.5 55.5h255v-700h-39v269h-216q-19 0 -28 1zM104 485q0 -87 60.5 -132.5t157.5 -45.5h217v355h-217q-97 0 -157.5 -45.5t-60.5 -131.5z" />
    <glyph glyph-name="uni0430" unicode="&#x430;" horiz-adv-x="543" 
d="M450 77q0 -46 48 -46q16 0 37 7v-32q-24 -8 -47 -8q-33 0 -54.5 19t-21.5 59v13q-75 -100 -208 -100q-68 0 -116.5 36t-48.5 104q0 79 60.5 116t148.5 37q83 0 164 -26v44q0 71 -43 113t-122 42q-90 0 -171 -31v37q85 30 174 30q95 0 147.5 -51.5t52.5 -143.5v-219z
M78 130q0 -52 39 -79.5t94 -27.5q62 0 115.5 29.5t85.5 83.5v87q-81 26 -160 26q-73 0 -123.5 -28.5t-50.5 -90.5z" />
    <glyph glyph-name="uni0431" unicode="&#x431;" horiz-adv-x="589" 
d="M542 225q0 -107 -66.5 -171.5t-174.5 -64.5q-111 0 -179.5 76t-68.5 199q0 112 42 198.5t110 128.5q57 35 117.5 51t102.5 28t69 40v-41q-32 -28 -118 -48.5t-149 -58.5q-109 -66 -136 -238q27 63 86 99.5t130 36.5q100 0 167.5 -66t67.5 -169zM91 247q0 -95 57.5 -158
t151.5 -63q92 0 148 55t56 143t-56 144t-146 56q-77 0 -136.5 -48t-74.5 -129z" />
    <glyph glyph-name="uni0432" unicode="&#x432;" horiz-adv-x="542" 
d="M339 0h-258v480h246q68 0 107 -33t39 -92q0 -41 -21 -70t-58 -40q43 -9 70 -38.5t27 -79.5q0 -61 -41 -94t-111 -33zM119 227v-193h215q54 0 86.5 23t32.5 72q0 52 -32 75t-83 23h-219zM119 446v-186h207q53 0 81 24t28 68q0 45 -30 69.5t-82 24.5h-204z" />
    <glyph glyph-name="uni0433" unicode="&#x433;" horiz-adv-x="437" 
d="M119 0h-38v480h341v-36h-303v-444z" />
    <glyph glyph-name="uni0434" unicode="&#x434;" horiz-adv-x="611" 
d="M62 -136h-37v171h62q48 95 69.5 197.5t21.5 247.5h332v-445h69v-171h-38v136h-479v-136zM214 445q-1 -129 -22.5 -224.5t-64.5 -185.5h344v410h-257z" />
    <glyph glyph-name="uni0435" unicode="&#x435;" horiz-adv-x="544" 
d="M47 240q0 116 70 183.5t165 67.5q52 0 93.5 -17t66 -44.5t41.5 -62.5t18.5 -72.5t-3.5 -73.5h-413q4 -98 69.5 -147t159.5 -49q91 0 156 38v-38q-66 -36 -161 -36q-112 0 -187 63.5t-75 187.5zM465 255q4 33 -4 66.5t-28 64t-58.5 50t-90.5 19.5q-81 0 -138.5 -53.5
t-60.5 -146.5h380z" />
    <glyph glyph-name="uni0436" unicode="&#x436;" horiz-adv-x="719" 
d="M709 0h-43l-198 227h-90v-227h-38v227h-89l-198 -227h-44l211 246l-184 234h43l173 -217h88v217h38v-217h89l172 217h44l-184 -234z" />
    <glyph glyph-name="uni0437" unicode="&#x437;" horiz-adv-x="466" 
d="M416 127q0 -69 -57 -103.5t-146 -34.5q-95 0 -172 35v37q74 -36 168 -36q73 0 121 24.5t48 80.5q0 47 -36.5 71.5t-82.5 24.5h-117v36h117q109 8 109 89q0 51 -44.5 78t-113.5 27q-82 0 -162 -35v36q81 34 166 34q86 0 139 -35.5t53 -99.5q0 -44 -25 -73t-70 -37
q44 -11 74.5 -42t30.5 -77z" />
    <glyph glyph-name="uni0438" unicode="&#x438;" horiz-adv-x="585" 
d="M115 0h-34v480h38v-420l350 420h35v-480h-38v420z" />
    <glyph glyph-name="uni0439" unicode="&#x439;" horiz-adv-x="585" 
d="M420 602q-50 -41 -128 -41t-128 41v37q56 -44 128 -44t128 44v-37zM115 0h-34v480h38v-420l350 420h35v-480h-38v420z" />
    <glyph glyph-name="uni043A" unicode="&#x43a;" horiz-adv-x="502" 
d="M119 0h-38v480h38v-215h123l180 215h45l-195 -234l222 -246h-46l-209 229h-120v-229z" />
    <glyph glyph-name="uni043B" unicode="&#x43b;" horiz-adv-x="586" 
d="M216 444q-10 -224 -46.5 -337t-116.5 -113q-22 0 -45 8v31q14 -6 35 -6q65 0 97 114t39 339h326v-480h-38v444h-251z" />
    <glyph glyph-name="uni043C" unicode="&#x43c;" horiz-adv-x="663" 
d="M117 0h-36v480h41l210 -298l209 298h41v-480h-36v423l-201 -284h-27l-201 284v-423z" />
    <glyph glyph-name="uni043D" unicode="&#x43d;" 
d="M119 0h-38v480h38v-222h339v222h38v-480h-38v222h-339v-222z" />
    <glyph glyph-name="uni043E" unicode="&#x43e;" horiz-adv-x="591" 
d="M46 240q0 116 73.5 183.5t175.5 67.5q103 0 176.5 -67.5t73.5 -183.5t-73.5 -183.5t-176.5 -67.5q-102 0 -175.5 67.5t-73.5 183.5zM507 240q0 98 -61.5 156t-150.5 58t-150 -58t-61 -156t61 -156t150 -58t150.5 58t61.5 156z" />
    <glyph glyph-name="uni043F" unicode="&#x43f;" 
d="M119 0h-38v480h415v-480h-38v444h-339v-444z" />
    <glyph glyph-name="uni0440" unicode="&#x440;" horiz-adv-x="615" 
d="M116 366q32 56 87 90.5t126 34.5q103 0 171 -69.5t68 -181.5t-68 -181.5t-171 -69.5q-71 0 -125.5 34t-84.5 87v-330h-38v700h35v-114zM530 240q0 98 -58 156.5t-147 58.5q-72 0 -127.5 -41t-78.5 -104v-140q23 -63 78.5 -104t127.5 -41q89 0 147 58t58 157z" />
    <glyph glyph-name="uni0441" unicode="&#x441;" horiz-adv-x="497" 
d="M47 236q0 124 77 189.5t181 65.5q84 0 143 -39v-37q-58 40 -139 40q-92 0 -158 -55t-66 -163q0 -103 63 -157.5t152 -54.5q86 0 153 38v-38q-68 -36 -157 -36q-102 0 -175.5 63.5t-73.5 183.5z" />
    <glyph glyph-name="uni0442" unicode="&#x442;" horiz-adv-x="455" 
d="M247 0h-38v444h-194v36h425v-36h-193v-444z" />
    <glyph glyph-name="uni0443" unicode="&#x443;" horiz-adv-x="531" 
d="M276 40l194 440h40l-250 -564q-35 -79 -74.5 -113t-89.5 -34q-26 0 -50 7v34q28 -7 46 -7q43 0 75.5 30.5t61.5 97.5l29 67l-243 482h41z" />
    <glyph glyph-name="uni0444" unicode="&#x444;" horiz-adv-x="703" 
d="M370 -220h-38v209q-125 2 -205.5 69t-80.5 182t80.5 182t205.5 69v209h38v-209q125 -2 206 -69t81 -182t-81 -182t-206 -69v-209zM84 240q0 -100 69 -157.5t179 -59.5v434q-110 -2 -179 -59.5t-69 -157.5zM370 457v-434q111 2 179.5 59.5t68.5 157.5t-68.5 157.5
t-179.5 59.5z" />
    <glyph glyph-name="uni0445" unicode="&#x445;" horiz-adv-x="483" 
d="M412 480h45l-193 -234l203 -246h-44l-182 219l-181 -219h-45l204 246l-193 234h44l171 -206z" />
    <glyph glyph-name="uni0446" unicode="&#x446;" horiz-adv-x="592" 
d="M559 -136h-37v136h-441v480h38v-444h333v444h38v-444h69v-172z" />
    <glyph glyph-name="uni0447" unicode="&#x447;" horiz-adv-x="517" 
d="M436 0h-38v181q-72 -31 -161 -31t-140.5 43t-51.5 129v158h38v-156q0 -138 164 -138q87 0 151 29v265h38v-480z" />
    <glyph glyph-name="uni0448" unicode="&#x448;" horiz-adv-x="808" 
d="M727 0h-646v480h38v-444h266v444h38v-444h266v444h38v-480z" />
    <glyph glyph-name="uni0449" unicode="&#x449;" horiz-adv-x="829" 
d="M796 -136h-37v136h-678v480h38v-444h266v444h38v-444h266v444h38v-444h69v-172z" />
    <glyph glyph-name="uni044A" unicode="&#x44a;" horiz-adv-x="579" 
d="M190 300h175q82 0 131.5 -42t49.5 -108t-49.5 -108t-131.5 -42h-213v446h-136v34h174v-180zM190 35h171q68 0 107 31.5t39 83.5q0 53 -39.5 84t-106.5 31h-171v-230z" />
    <glyph glyph-name="uni044B" unicode="&#x44b;" horiz-adv-x="691" 
d="M294 0h-213v480h38v-180h175q82 0 131.5 -42t49.5 -108t-49.5 -108t-131.5 -42zM119 265v-230h171q68 0 107 31.5t39 83.5q0 53 -39.5 84t-106.5 31h-171zM610 0h-38v480h38v-480z" />
    <glyph glyph-name="uni044C" unicode="&#x44c;" horiz-adv-x="508" 
d="M294 0h-213v480h38v-180h175q82 0 131.5 -42t49.5 -108t-49.5 -108t-131.5 -42zM119 265v-230h171q68 0 107 31.5t39 83.5q0 53 -39.5 84t-106.5 31h-171z" />
    <glyph glyph-name="uni044D" unicode="&#x44d;" horiz-adv-x="502" 
d="M455 234q0 -122 -72.5 -183.5t-173.5 -61.5q-89 0 -166 43v36q73 -43 160 -43q90 0 150.5 48t63.5 149h-280v36h280q-6 98 -71.5 147.5t-154.5 49.5q-79 0 -143 -43v35q66 44 147 44q105 0 182.5 -66t77.5 -191z" />
    <glyph glyph-name="uni044E" unicode="&#x44e;" horiz-adv-x="804" 
d="M757 240q0 -116 -73 -183.5t-176 -67.5q-99 0 -171 63t-78 170h-140v-222h-38v480h38v-222h140q6 107 78 170t171 63q103 0 176 -67.5t73 -183.5zM296 240q0 -98 61 -156t150 -58t150.5 58t61.5 156t-61.5 156t-150.5 58t-150 -58t-61 -156z" />
    <glyph glyph-name="uni044F" unicode="&#x44f;" horiz-adv-x="539" 
d="M81 0h-45l145 191q-59 12 -92 50t-33 92q0 65 48 106t130 41h224v-480h-38v186h-186h-12zM94 333q0 -51 38.5 -81.5t104.5 -30.5h183v224h-183q-67 0 -105 -30.5t-38 -81.5z" />
    <glyph glyph-name="uni0451" unicode="&#x451;" horiz-adv-x="544" 
d="M413 616q0 -13 -9 -22t-22 -9t-22 9t-9 22q0 12 9 21.5t22 9.5t22 -9.5t9 -21.5zM212 616q0 -13 -9 -22t-22 -9t-22 9t-9 22q0 12 9 21.5t22 9.5t22 -9.5t9 -21.5zM47 240q0 116 70 183.5t165 67.5q52 0 93.5 -17t66 -44.5t41.5 -62.5t18.5 -72.5t-3.5 -73.5h-413
q4 -98 69.5 -147t159.5 -49q91 0 156 38v-38q-66 -36 -161 -36q-112 0 -187 63.5t-75 187.5zM465 255q4 33 -4 66.5t-28 64t-58.5 50t-90.5 19.5q-81 0 -138.5 -53.5t-60.5 -146.5h380z" />
    <glyph glyph-name="Wgrave" unicode="&#x1e80;" horiz-adv-x="993" 
d="M925 700h43l-223 -700h-43l-206 628l-205 -628h-43l-223 700h43l202 -649l209 643h36l208 -643zM537 776h-42l-94 137h48z" />
    <glyph glyph-name="wgrave" unicode="&#x1e81;" horiz-adv-x="799" 
d="M734 480h40l-180 -480h-39l-156 423l-155 -423h-39l-180 480h40l160 -435l156 429h36l157 -429zM440 556h-42l-94 137h48z" />
    <glyph glyph-name="Wacute" unicode="&#x1e82;" horiz-adv-x="993" 
d="M925 700h43l-223 -700h-43l-206 628l-205 -628h-43l-223 700h43l202 -649l209 643h36l208 -643zM495 776h-43l89 137h47z" />
    <glyph glyph-name="wacute" unicode="&#x1e83;" horiz-adv-x="799" 
d="M734 480h40l-180 -480h-39l-156 423l-155 -423h-39l-180 480h40l160 -435l156 429h36l157 -429zM398 556h-43l89 137h47z" />
    <glyph glyph-name="Wdieresis" unicode="&#x1e84;" horiz-adv-x="993" 
d="M925 700h43l-223 -700h-43l-206 628l-205 -628h-43l-223 700h43l202 -649l209 643h36l208 -643zM627 836q0 -13 -9 -22t-22 -9t-22 9t-9 22q0 12 9 21.5t22 9.5t22 -9.5t9 -21.5zM426 836q0 -13 -9 -22t-22 -9t-22 9t-9 22q0 12 9 21.5t22 9.5t22 -9.5t9 -21.5z" />
    <glyph glyph-name="wdieresis" unicode="&#x1e85;" horiz-adv-x="799" 
d="M734 480h40l-180 -480h-39l-156 423l-155 -423h-39l-180 480h40l160 -435l156 429h36l157 -429zM530 616q0 -13 -9 -22t-22 -9t-22 9t-9 22q0 12 9 21.5t22 9.5t22 -9.5t9 -21.5zM329 616q0 -13 -9 -22t-22 -9t-22 9t-9 22q0 12 9 21.5t22 9.5t22 -9.5t9 -21.5z" />
    <glyph glyph-name="Ygrave" unicode="&#x1ef2;" horiz-adv-x="634" 
d="M337 0h-40v279l-276 421h45l251 -384l251 384h45l-276 -421v-279zM359 776h-42l-94 137h48z" />
    <glyph glyph-name="ygrave" unicode="&#x1ef3;" horiz-adv-x="531" 
d="M276 40l194 440h40l-250 -564q-35 -79 -74.5 -113t-89.5 -34q-26 0 -50 7v34q28 -7 46 -7q43 0 75.5 30.5t61.5 97.5l29 67l-243 482h41zM299 556h-42l-94 137h48z" />
    <glyph glyph-name="endash" unicode="&#x2013;" horiz-adv-x="568" 
d="M499 226h-430v36h430v-36z" />
    <glyph glyph-name="emdash" unicode="&#x2014;" horiz-adv-x="752" 
d="M683 226h-614v36h614v-36z" />
    <glyph glyph-name="quoteleft" unicode="&#x2018;" horiz-adv-x="189" 
d="M94 482h-40l59 218h32z" />
    <glyph glyph-name="quoteright" unicode="&#x2019;" horiz-adv-x="186" 
d="M87 482h-32l51 218h40z" />
    <glyph glyph-name="quotesinglbase" unicode="&#x201a;" horiz-adv-x="203" 
d="M70 -144h-32l51 218h40z" />
    <glyph glyph-name="quotedblleft" unicode="&#x201c;" horiz-adv-x="317" 
d="M222 482h-40l59 218h32zM94 482h-40l59 218h32z" />
    <glyph glyph-name="quotedblright" unicode="&#x201d;" horiz-adv-x="314" 
d="M215 482h-32l51 218h40zM87 482h-32l51 218h40z" />
    <glyph glyph-name="quotedblbase" unicode="&#x201e;" horiz-adv-x="331" 
d="M198 -144h-32l51 218h40zM70 -144h-32l51 218h40z" />
    <glyph glyph-name="dagger" unicode="&#x2020;" horiz-adv-x="488" 
d="M264 -220h-40v662h-190v38h190v220h40v-220h190v-38h-190v-662z" />
    <glyph glyph-name="daggerdbl" unicode="&#x2021;" horiz-adv-x="519" 
d="M279 -220h-39v328h-190v38h190v296h-190v38h190v220h39v-220h190v-38h-190v-296h190v-38h-190v-328z" />
    <glyph glyph-name="bullet" unicode="&#x2022;" horiz-adv-x="293" 
d="M96 350q0 23 14.5 36.5t35.5 13.5q22 0 36.5 -13.5t14.5 -36.5t-14.5 -36.5t-36.5 -13.5q-21 0 -35.5 13.5t-14.5 36.5z" />
    <glyph glyph-name="ellipsis" unicode="&#x2026;" horiz-adv-x="492" 
d="M423 23q0 -14 -8.5 -22t-21.5 -8t-21.5 8t-8.5 22q0 13 9 21t21 8q13 0 21.5 -8t8.5 -21zM129 23q0 -14 -8.5 -22t-21.5 -8t-21.5 8t-8.5 22q0 13 9 21t21 8q13 0 21.5 -8t8.5 -21zM276 23q0 -14 -8.5 -22t-21.5 -8t-21.5 8t-8.5 22q0 13 9 21t21 8q13 0 21.5 -8t8.5 -21
z" />
    <glyph glyph-name="perthousand" unicode="&#x2030;" horiz-adv-x="1249" 
d="M255 -60h-39l409 820h39zM339 564q0 -69 -44 -108t-107 -39t-107.5 39t-44.5 108t44.5 108t107.5 39t107 -39t44 -108zM73 564q0 -52 32.5 -82.5t83.5 -30.5q49 0 82 31t33 82t-33 82t-82 31q-51 0 -83.5 -30.5t-32.5 -82.5zM843 136q0 -69 -44 -108t-107 -39t-107.5 39
t-44.5 108t44.5 108t107.5 39t107 -39t44 -108zM577 136q0 -52 32.5 -82.5t83.5 -30.5q49 0 82 31t33 82t-33 82t-82 31q-51 0 -83.5 -30.5t-32.5 -82.5zM1214 136q0 -69 -44 -108t-107 -39t-107.5 39t-44.5 108t44.5 108t107.5 39t107 -39t44 -108zM948 136
q0 -52 32.5 -82.5t83.5 -30.5q49 0 82 31t33 82t-33 82t-82 31q-51 0 -83.5 -30.5t-32.5 -82.5z" />
    <glyph glyph-name="guilsinglleft" unicode="&#x2039;" horiz-adv-x="275" 
d="M212 66h-42l-119 169v10l119 169h42l-123 -174z" />
    <glyph glyph-name="guilsinglright" unicode="&#x203a;" horiz-adv-x="275" 
d="M104 66h-41l123 174l-123 174h41l120 -169v-10z" />
    <glyph glyph-name="fraction" unicode="&#x2044;" horiz-adv-x="165" 
d="M-136 -11h-22l456 722h22z" />
    <glyph glyph-name="Euro" unicode="&#x20ac;" horiz-adv-x="736" 
d="M670 38q-89 -49 -196 -49q-78 0 -147.5 28.5t-123 89.5t-71.5 145h-88v34h82q-3 24 -3 51q0 33 4 57h-83v34h89q29 124 125.5 193.5t215.5 69.5q108 0 196 -48v-40q-81 50 -190 50q-106 0 -192 -59t-113 -166h379v-34h-386q-5 -22 -5 -57q0 -27 3 -51h388v-34h-380
q26 -109 112.5 -167t195.5 -58q105 0 188 51v-40z" />
    <glyph glyph-name="trademark" unicode="&#x2122;" horiz-adv-x="660" 
d="M331 448h-25v252h29l107 -151l107 151h29v-252h-25v216l-104 -145h-15l-103 145v-216zM162 448h-25v228h-91v24h207v-24h-91v-228z" />
    <glyph glyph-name="oneeighth" unicode="&#x215b;" horiz-adv-x="900" 
d="M553 313q0 41 38 71.5t108 30.5q66 0 106 -32.5t42 -76.5q0 -70 -63 -108q77 -34 77 -97q0 -44 -41 -76t-119 -32t-120.5 33.5t-42.5 83.5q0 74 75 115q-60 31 -60 88zM702 192q-56 18 -59 19q-34 -15 -52.5 -41.5t-18.5 -55.5q0 -40 33.5 -64.5t95.5 -24.5q58 0 92 21.5
t34 53.5q0 17 -8 30.5t-17 21.5t-29.5 16.5t-32 12t-38.5 11.5zM813 300q0 34 -30.5 58.5t-83.5 24.5q-51 0 -81.5 -20t-30.5 -50q0 -50 68 -74q9 -4 46 -15q31 -8 54 -15q58 34 58 91zM202 -11h-22l456 722h22zM159 680h25v-376h77v-32h-209v32h99v340l-91 -34v32z" />
    <glyph glyph-name="threeeighths" unicode="&#x215c;" horiz-adv-x="948" 
d="M601 313q0 41 38 71.5t108 30.5q66 0 106 -32.5t42 -76.5q0 -70 -63 -108q77 -34 77 -97q0 -44 -41.5 -76t-118.5 -32q-78 0 -120.5 33.5t-42.5 83.5q0 74 75 115q-60 31 -60 88zM750 192q-56 18 -59 19q-34 -15 -52.5 -41.5t-18.5 -55.5q0 -40 33.5 -64.5t95.5 -24.5
q58 0 92 21.5t34 53.5q0 17 -8 30.5t-17 21.5t-29.5 16.5t-32 12t-38.5 11.5zM861 300q0 34 -30.5 58.5t-83.5 24.5q-51 0 -81.5 -20t-30.5 -50q0 -50 68 -74q9 -4 46 -15q31 -8 54 -15q58 34 58 91zM260 -11h-22l456 722h22zM323 581q0 -32 -18.5 -57.5t-51.5 -34.5
q37 -9 61.5 -34.5t24.5 -69.5q0 -55 -40 -85.5t-103 -30.5q-82 0 -142 27v33q57 -28 140 -28q51 0 82 21.5t31 64.5t-31 63t-80 20h-62v33h58q48 0 73 21.5t25 54.5q0 35 -28 57.5t-78 22.5q-63 0 -123 -29v33q56 28 127 28q61 0 98 -31t37 -79z" />
    <glyph glyph-name="fiveeighths" unicode="&#x215d;" horiz-adv-x="938" 
d="M591 313q0 41 38 71.5t108 30.5q66 0 106 -32.5t42 -76.5q0 -70 -63 -108q77 -34 77 -97q0 -44 -41.5 -76t-118.5 -32q-78 0 -120.5 33.5t-42.5 83.5q0 74 75 115q-60 31 -60 88zM740 192q-56 18 -59 19q-34 -15 -52.5 -41.5t-18.5 -55.5q0 -40 33.5 -64.5t95.5 -24.5
q58 0 92 21.5t34 53.5q0 17 -8 30.5t-17 21.5t-29.5 16.5t-32 12t-38.5 11.5zM851 300q0 34 -30.5 58.5t-83.5 24.5q-51 0 -81.5 -20t-30.5 -50q0 -50 68 -74q9 -4 46 -15q31 -8 54 -15q58 34 58 91zM250 -11h-22l456 722h22zM76 680h239v-32h-207l-9 -144q42 13 84 13
q64 0 108 -31t44 -95q0 -58 -42.5 -92t-110.5 -34q-76 0 -130 28v32q54 -28 127 -28q55 0 88 25t33 69q0 94 -129 94q-56 0 -108 -19z" />
    <glyph glyph-name="seveneighths" unicode="&#x215e;" horiz-adv-x="837" 
d="M145 -11h-22l456 722h22zM488 313q0 41 38 71.5t108 30.5q66 0 106 -32.5t42 -76.5q0 -70 -63 -108q77 -34 77 -97q0 -44 -41 -76t-119 -32t-120.5 33.5t-42.5 83.5q0 74 75 115q-60 31 -60 88zM637 192q-55 18 -59 19q-34 -15 -52.5 -41.5t-18.5 -55.5q0 -40 33.5 -64.5
t95.5 -24.5q58 0 92 21.5t34 53.5q0 17 -8 30.5t-17 21.5t-29.5 16.5t-32 12t-38.5 11.5zM748 300q0 34 -30.5 58.5t-83.5 24.5q-52 0 -82 -20t-30 -50q0 -50 68 -74q9 -4 46 -15q31 -8 54 -15q58 34 58 91zM145 272h-36l166 376h-237v32h275v-30z" />
    <glyph glyph-name="partialdiff" unicode="&#x2202;" horiz-adv-x="594" 
d="M538 267q0 -128 -68 -203t-179 -75q-106 0 -175 64.5t-69 169.5q0 98 68 161.5t163 63.5q80 0 144 -44t81 -124q0 15 -1 23q-6 92 -42 163t-92 113.5t-123.5 63.5t-143.5 21v36q86 0 162.5 -26t139 -77t99 -136t36.5 -194zM85 223q0 -90 57 -143.5t149 -53.5
q83 0 135.5 47t67.5 128q-2 99 -63.5 155t-147.5 56q-84 0 -141 -53t-57 -136z" />
    <glyph glyph-name="emptyset" unicode="&#x2205;" horiz-adv-x="820" 
d="M723 700l-71 -83q119 -108 119 -267q0 -149 -106 -255t-255 -106q-127 0 -227 81l-60 -70h-26l71 83q-56 50 -87.5 120t-31.5 147q0 149 106 255t255 106q127 0 227 -81l60 70h26zM411 688q-140 0 -239 -99t-99 -239q0 -73 29.5 -138t81.5 -111l439 512q-93 75 -212 75z
M199 88q94 -76 212 -76q139 0 238.5 99t99.5 239q0 72 -29.5 137.5t-81.5 112.5z" />
    <glyph glyph-name="product" unicode="&#x220f;" horiz-adv-x="730" 
d="M178 -220h-40v882h-101v38h656v-38h-101v-882h-40v882h-374v-882z" />
    <glyph glyph-name="summation" unicode="&#x2211;" horiz-adv-x="562" 
d="M509 0h-469v24l284 326l-284 326v24h466v-38h-402l267 -307v-10l-267 -307h405v-38z" />
    <glyph glyph-name="minus" unicode="&#x2212;" horiz-adv-x="515" 
d="M442 330h-369v36h369v-36z" />
    <glyph glyph-name="radical" unicode="&#x221a;" horiz-adv-x="718" 
d="M349 0h-36l-188 442h-95v38h120l181 -434l343 734h42z" />
    <glyph glyph-name="infinity" unicode="&#x221e;" horiz-adv-x="827" 
d="M414 389q29 44 50.5 69.5t59.5 48t83 22.5q69 0 116.5 -46.5t47.5 -124.5t-47.5 -124.5t-116.5 -46.5q-34 0 -63 11t-53 33.5t-40.5 43t-37.5 52.5q-28 -44 -49.5 -69.5t-59.5 -48t-83 -22.5q-70 0 -117.5 46.5t-47.5 124.5t47.5 124.5t117.5 46.5q64 0 106 -36t87 -104z
M393 357q-29 45 -47 69t-50.5 45.5t-70.5 21.5q-56 0 -93.5 -36t-37.5 -99t37.5 -99t93.5 -36q29 0 53 10t45.5 32t35 40.5t34.5 51.5zM733 358q0 64 -37.5 99.5t-94.5 35.5q-28 0 -52 -10t-45.5 -32t-35 -40.5t-34.5 -51.5q29 -45 47 -69t50.5 -45.5t69.5 -21.5
q57 0 94.5 35.5t37.5 99.5z" />
    <glyph glyph-name="integral" unicode="&#x222b;" horiz-adv-x="396" 
d="M179 656q0 71 40.5 103t95.5 32q41 0 71 -14v-36q-29 13 -67 13q-42 0 -72 -23t-30 -76v-751q0 -71 -40.5 -103t-95.5 -32q-37 0 -71 14v36q29 -13 64 -13q105 0 105 99v751z" />
    <glyph glyph-name="approxequal" unicode="&#x2248;" horiz-adv-x="582" 
d="M509 471q1 -40 -23.5 -65.5t-65.5 -25.5q-37 0 -126 33.5t-125 33.5q-27 0 -41.5 -15t-13.5 -40h-37q-1 41 23.5 66t65.5 25q38 0 126 -33t124 -33q26 0 41.5 14.5t14.5 39.5h37zM509 327q1 -41 -23 -66.5t-66 -25.5q-37 0 -126 33.5t-125 33.5q-27 0 -41.5 -15
t-13.5 -40h-37q-1 41 23.5 66t65.5 25q38 0 126 -33t124 -33q26 0 41.5 15t14.5 40h37z" />
    <glyph glyph-name="notequal" unicode="&#x2260;" horiz-adv-x="543" 
d="M158 140h-35l63 101h-113v37h135l92 144h-227v37h249l63 101h36l-64 -101h113v-37h-135l-92 -144h227v-37h-248z" />
    <glyph glyph-name="lessequal" unicode="&#x2264;" horiz-adv-x="514" 
d="M434 219v-38l-361 159v39l361 159v-38l-322 -140zM434 0h-361v36h361v-36z" />
    <glyph glyph-name="greaterequal" unicode="&#x2265;" horiz-adv-x="514" 
d="M441 340l-361 -159v38l322 141l-322 140v38l361 -159v-39zM441 0h-361v36h361v-36z" />
    <glyph glyph-name="lozenge" unicode="&#x25ca;" horiz-adv-x="547" 
d="M295 0h-43l-213 350l213 350h43l213 -350zM83 350l191 -311l192 311l-192 311z" />
    <glyph glyph-name="i.loclTRK" horiz-adv-x="208" 
d="M85 480h38v-480h-38v480zM66 600q0 16 10.5 25.5t25.5 9.5t25.5 -9.5t10.5 -25.5t-10.5 -26t-25.5 -10t-25.5 10t-10.5 26z" />
    <glyph glyph-name="a.ss01" horiz-adv-x="615" 
d="M499 114q-31 -56 -85.5 -90.5t-124.5 -34.5q-104 0 -173 69.5t-69 181.5t69 181.5t173 69.5q70 0 124.5 -34.5t85.5 -90.5v114h35v-480h-35v114zM85 240q0 -99 59 -157t148 -58q72 0 127 41t77 104v140q-22 63 -77 104t-127 41q-89 0 -148 -58.5t-59 -156.5z" />
    <glyph glyph-name="aacute.ss01" horiz-adv-x="615" 
d="M499 114q-31 -56 -85.5 -90.5t-124.5 -34.5q-104 0 -173 69.5t-69 181.5t69 181.5t173 69.5q70 0 124.5 -34.5t85.5 -90.5v114h35v-480h-35v114zM85 240q0 -99 59 -157t148 -58q72 0 127 41t77 104v140q-22 63 -77 104t-127 41q-89 0 -148 -58.5t-59 -156.5zM307 556h-43
l89 137h47z" />
    <glyph glyph-name="abreve.ss01" horiz-adv-x="615" 
d="M499 114q-31 -56 -85.5 -90.5t-124.5 -34.5q-104 0 -173 69.5t-69 181.5t69 181.5t173 69.5q70 0 124.5 -34.5t85.5 -90.5v114h35v-480h-35v114zM85 240q0 -99 59 -157t148 -58q72 0 127 41t77 104v140q-22 63 -77 104t-127 41q-89 0 -148 -58.5t-59 -156.5zM436 600
q-51 -42 -128 -42t-128 42v39q56 -44 128 -44t128 44v-39z" />
    <glyph glyph-name="acircumflex.ss01" horiz-adv-x="615" 
d="M499 114q-31 -56 -85.5 -90.5t-124.5 -34.5q-104 0 -173 69.5t-69 181.5t69 181.5t173 69.5q70 0 124.5 -34.5t85.5 -90.5v114h35v-480h-35v114zM85 240q0 -99 59 -157t148 -58q72 0 127 41t77 104v140q-22 63 -77 104t-127 41q-89 0 -148 -58.5t-59 -156.5zM293 687h33
l128 -131h-44l-100 101l-101 -101h-44z" />
    <glyph glyph-name="adieresis.ss01" horiz-adv-x="615" 
d="M499 114q-31 -56 -85.5 -90.5t-124.5 -34.5q-104 0 -173 69.5t-69 181.5t69 181.5t173 69.5q70 0 124.5 -34.5t85.5 -90.5v114h35v-480h-35v114zM85 240q0 -99 59 -157t148 -58q72 0 127 41t77 104v140q-22 63 -77 104t-127 41q-89 0 -148 -58.5t-59 -156.5zM439 616
q0 -13 -9 -22t-22 -9t-22 9t-9 22q0 12 9 21.5t22 9.5t22 -9.5t9 -21.5zM238 616q0 -13 -9 -22t-22 -9t-22 9t-9 22q0 12 9 21.5t22 9.5t22 -9.5t9 -21.5z" />
    <glyph glyph-name="agrave.ss01" horiz-adv-x="615" 
d="M499 114q-31 -56 -85.5 -90.5t-124.5 -34.5q-104 0 -173 69.5t-69 181.5t69 181.5t173 69.5q70 0 124.5 -34.5t85.5 -90.5v114h35v-480h-35v114zM85 240q0 -99 59 -157t148 -58q72 0 127 41t77 104v140q-22 63 -77 104t-127 41q-89 0 -148 -58.5t-59 -156.5zM349 556h-42
l-94 137h48z" />
    <glyph glyph-name="amacron.ss01" horiz-adv-x="615" 
d="M499 114q-31 -56 -85.5 -90.5t-124.5 -34.5q-104 0 -173 69.5t-69 181.5t69 181.5t173 69.5q70 0 124.5 -34.5t85.5 -90.5v114h35v-480h-35v114zM85 240q0 -99 59 -157t148 -58q72 0 127 41t77 104v140q-22 63 -77 104t-127 41q-89 0 -148 -58.5t-59 -156.5zM176 620h264
v-36h-264v36z" />
    <glyph glyph-name="aogonek.ss01" horiz-adv-x="615" 
d="M534 480v-480q-47 -33 -77 -72.5t-30 -74.5q0 -24 15 -38t41 -14q28 0 51 10v-31q-25 -11 -59 -11q-39 -1 -61.5 20t-22.5 57q0 84 108 165v103q-31 -56 -85.5 -90.5t-124.5 -34.5q-104 0 -173 69.5t-69 181.5t69 181.5t173 69.5q70 0 124.5 -34.5t85.5 -90.5v114h35z
M292 25q72 0 127 41t77 104v140q-22 63 -77 104t-127 41q-89 0 -148 -58.5t-59 -156.5q0 -99 59 -157t148 -58z" />
    <glyph glyph-name="aring.ss01" horiz-adv-x="615" 
d="M499 114q-31 -56 -85.5 -90.5t-124.5 -34.5q-104 0 -173 69.5t-69 181.5t69 181.5t173 69.5q70 0 124.5 -34.5t85.5 -90.5v114h35v-480h-35v114zM85 240q0 -99 59 -157t148 -58q72 0 127 41t77 104v140q-22 63 -77 104t-127 41q-89 0 -148 -58.5t-59 -156.5zM400 624
q0 -40 -27.5 -65t-64.5 -25q-38 0 -65.5 25t-27.5 65q0 39 27.5 63.5t65.5 24.5q37 0 64.5 -24.5t27.5 -63.5zM246 623q0 -27 18.5 -44t43.5 -17t43.5 17t18.5 44t-18.5 44t-43.5 17t-43.5 -17t-18.5 -44z" />
    <glyph glyph-name="atilde.ss01" horiz-adv-x="615" 
d="M499 114q-31 -56 -85.5 -90.5t-124.5 -34.5q-104 0 -173 69.5t-69 181.5t69 181.5t173 69.5q70 0 124.5 -34.5t85.5 -90.5v114h35v-480h-35v114zM85 240q0 -99 59 -157t148 -58q72 0 127 41t77 104v140q-22 63 -77 104t-127 41q-89 0 -148 -58.5t-59 -156.5zM457 643
q4 -37 -13.5 -59t-49.5 -22q-30 0 -87 26.5t-76 26.5t-29 -13t-8 -35h-34q-5 36 13.5 59t49.5 23q29 0 86.5 -26.5t76.5 -26.5q42 0 37 47h34z" />
    <glyph glyph-name="ae.ss01" horiz-adv-x="999" 
d="M499 114q-31 -56 -85.5 -90.5t-124.5 -34.5q-104 0 -173 69.5t-69 181.5t69 181.5t173 69.5q70 0 124.5 -34.5t85.5 -90.5v114h35v-131q25 67 81 104.5t124 37.5q84 0 137.5 -44t70 -104.5t4.5 -126.5h-413q4 -95 69.5 -143t159.5 -48q90 0 155 38v-36q-68 -38 -158 -38
q-80 0 -142 35.5t-88 105.5v-130h-35v114zM85 240q0 -99 59 -157t148 -58q72 0 127 41t77 104v140q-22 63 -77 104t-127 41q-89 0 -148 -58.5t-59 -156.5zM737 455q-82 0 -139 -54t-60 -151h380q4 35 -4 69.5t-28 65.5t-58.5 50.5t-90.5 19.5z" />
    <glyph glyph-name="y.ss01" 
d="M496 -6q-1 -60 -22 -105t-56 -70t-75 -37.5t-84 -12.5q-102 0 -164 38v35q61 -37 160 -37q84 0 143.5 45.5t59.5 143.5v101q-30 -43 -79.5 -74.5t-113.5 -31.5q-85 0 -137.5 53t-52.5 143v295h38v-291q0 -78 42.5 -121t112.5 -43q64 0 113 35t77 85v335h38v-486z" />
    <glyph glyph-name="yacute.ss01" 
d="M496 -6q-1 -60 -22 -105t-56 -70t-75 -37.5t-84 -12.5q-102 0 -164 38v35q61 -37 160 -37q84 0 143.5 45.5t59.5 143.5v101q-30 -43 -79.5 -74.5t-113.5 -31.5q-85 0 -137.5 53t-52.5 143v295h38v-291q0 -78 42.5 -121t112.5 -43q64 0 113 35t77 85v335h38v-486zM291 556
h-43l89 137h47z" />
    <glyph glyph-name="ycircumflex.ss01" 
d="M496 -6q-1 -60 -22 -105t-56 -70t-75 -37.5t-84 -12.5q-102 0 -164 38v35q61 -37 160 -37q84 0 143.5 45.5t59.5 143.5v101q-30 -43 -79.5 -74.5t-113.5 -31.5q-85 0 -137.5 53t-52.5 143v295h38v-291q0 -78 42.5 -121t112.5 -43q64 0 113 35t77 85v335h38v-486zM277 687
h33l128 -131h-44l-100 101l-101 -101h-44z" />
    <glyph glyph-name="ydieresis.ss01" 
d="M496 -6q-1 -60 -22 -105t-56 -70t-75 -37.5t-84 -12.5q-102 0 -164 38v35q61 -37 160 -37q84 0 143.5 45.5t59.5 143.5v101q-30 -43 -79.5 -74.5t-113.5 -31.5q-85 0 -137.5 53t-52.5 143v295h38v-291q0 -78 42.5 -121t112.5 -43q64 0 113 35t77 85v335h38v-486zM423 616
q0 -13 -9 -22t-22 -9t-22 9t-9 22q0 12 9 21.5t22 9.5t22 -9.5t9 -21.5zM222 616q0 -13 -9 -22t-22 -9t-22 9t-9 22q0 12 9 21.5t22 9.5t22 -9.5t9 -21.5z" />
    <glyph glyph-name="ygrave.ss01" 
d="M496 -6q-1 -60 -22 -105t-56 -70t-75 -37.5t-84 -12.5q-102 0 -164 38v35q61 -37 160 -37q84 0 143.5 45.5t59.5 143.5v101q-30 -43 -79.5 -74.5t-113.5 -31.5q-85 0 -137.5 53t-52.5 143v295h38v-291q0 -78 42.5 -121t112.5 -43q64 0 113 35t77 85v335h38v-486zM333 556
h-42l-94 137h48z" />
    <glyph glyph-name="f_b" horiz-adv-x="956" 
d="M460 370q30 53 84.5 87t125.5 34q103 0 171 -69.5t68 -181.5t-68 -181.5t-171 -69.5q-71 0 -126 34.5t-87 90.5v-114h-35v640q-65 35 -144 35q-60 0 -96.5 -32t-36.5 -90v-73h184v-36h-184v-444h-38v444h-84v36h84v73q0 76 48 117t122 41q77 0 145 -35v16l38 11v-333z
M460 170q23 -63 78.5 -104t127.5 -41q89 0 147 58.5t58 156.5q0 99 -58 157t-147 58q-72 0 -127.5 -41t-78.5 -104v-140z" />
    <glyph glyph-name="f_f_b" horiz-adv-x="1266" 
d="M770 370q30 53 84.5 87t125.5 34q103 0 171 -69.5t68 -181.5t-68 -181.5t-171 -69.5q-71 0 -126 34.5t-87 90.5v-114h-35v644q-65 35 -144 35q-60 0 -96.5 -32.5t-36.5 -93.5v-73h184v-36h-184v-444h-38v444h-272v-444h-38v444h-84v36h84v57q0 76 49 117t127 41
q79 0 159 -51q43 71 145 71q77 0 145 -35v16l38 11v-337zM417 480v73q0 31 10 61q-65 45 -143 45q-64 0 -101.5 -32t-37.5 -90v-57h272zM770 170q23 -63 78.5 -104t127.5 -41q89 0 147 58.5t58 156.5q0 99 -58 157t-147 58q-72 0 -127.5 -41t-78.5 -104v-140z" />
    <glyph glyph-name="f_f_h" horiz-adv-x="1228" 
d="M770 385q30 43 79.5 74.5t113.5 31.5q82 0 136 -53.5t54 -142.5v-295h-38v291q0 78 -43.5 121t-111.5 43q-64 0 -113 -35t-77 -85v-335h-38v644q-65 35 -144 35q-60 0 -96.5 -32.5t-36.5 -93.5v-73h184v-36h-184v-444h-38v444h-272v-444h-38v444h-84v36h84v57
q0 76 49 117t127 41q79 0 159 -51q43 71 145 71q77 0 145 -35v16l38 11v-322zM417 480v73q0 31 10 61q-65 45 -143 45q-64 0 -101.5 -32t-37.5 -90v-57h272z" />
    <glyph glyph-name="f_f_j" horiz-adv-x="845" 
d="M760 -109q0 -65 -35 -93.5t-87 -28.5q-36 0 -70 12v36q28 -12 61 -12q93 0 93 90v549h-267v-444h-38v444h-272v-444h-38v444h-84v36h84v57q0 76 49 117t127 41q81 0 157 -50q46 70 147 70q78 0 153 -43v-39q-72 46 -152 46q-60 0 -96.5 -31.5t-36.5 -88.5v-79h305v-589z
M145 537v-57h272v79q0 31 9 56q-66 44 -142 44q-64 0 -101.5 -32t-37.5 -90z" />
    <glyph glyph-name="f_f_k" horiz-adv-x="1149" 
d="M1118 480l-195 -234l222 -246h-46l-209 229h-120v-229h-38v644q-65 35 -144 35q-60 0 -96.5 -32.5t-36.5 -93.5v-73h184v-36h-184v-444h-38v444h-272v-444h-38v444h-84v36h84v57q0 76 49 117t127 41q79 0 159 -51q43 71 145 71q77 0 145 -35v16l38 11v-442h123l180 215
h45zM417 480v73q0 31 10 61q-65 45 -143 45q-64 0 -101.5 -32t-37.5 -90v-57h272z" />
    <glyph glyph-name="f_h" horiz-adv-x="918" 
d="M460 385q30 43 79.5 74.5t113.5 31.5q82 0 136 -53.5t54 -142.5v-295h-38v291q0 78 -43.5 121t-111.5 43q-64 0 -113 -35t-77 -85v-335h-38v640q-65 35 -144 35q-60 0 -96.5 -32t-36.5 -90v-73h184v-36h-184v-444h-38v444h-84v36h84v73q0 76 48 117t122 41q77 0 145 -35
v16l38 11v-318z" />
    <glyph glyph-name="f_i" horiz-adv-x="535" 
d="M145 480h305v-480h-38v444h-267v-444h-38v444h-84v36h84v73q0 76 48 117t122 41q78 0 153 -43v-39q-72 46 -152 46q-60 0 -96.5 -32t-36.5 -90v-73z" />
    <glyph glyph-name="f_j" horiz-adv-x="535" 
d="M145 480h305v-589q0 -65 -35 -93.5t-87 -28.5q-36 0 -70 12v36q28 -12 61 -12q93 0 93 90v549h-267v-444h-38v444h-84v36h84v73q0 76 48 117t122 41q78 0 153 -43v-39q-72 46 -152 46q-60 0 -96.5 -32t-36.5 -90v-73z" />
    <glyph glyph-name="f_k" horiz-adv-x="839" 
d="M808 480l-195 -234l222 -246h-46l-209 229h-120v-229h-38v640q-65 35 -144 35q-60 0 -96.5 -32t-36.5 -90v-73h184v-36h-184v-444h-38v444h-84v36h84v73q0 76 48 117t122 41q77 0 145 -35v16l38 11v-438h123l180 215h45z" />
    <glyph glyph-name="f_l" horiz-adv-x="545" 
d="M422 676v16l38 11v-703h-38v640q-65 35 -144 35q-60 0 -96.5 -32t-36.5 -90v-73h184v-36h-184v-444h-38v444h-84v36h84v73q0 76 48 117t122 41q77 0 145 -35z" />
    <glyph glyph-name="uni0414.loclBGR" horiz-adv-x="792" 
d="M65 -174h-38v212h73l273 662h46l273 -662h73v-212h-38v174h-662v-174zM397 657l-254 -619h507z" />
    <glyph glyph-name="uni041B.loclBGR" horiz-adv-x="675" 
d="M317 700h41l302 -700h-43l-280 655l-279 -655h-43z" />
    <glyph glyph-name="uni0424.loclBGR" horiz-adv-x="890" 
d="M465 -106h-40v98q-169 4 -271.5 104.5t-102.5 253.5t102.5 253.5t271.5 104.5v98h40v-98q169 -4 271.5 -104.5t102.5 -253.5t-102.5 -253.5t-271.5 -104.5v-98zM91 350q0 -136 90 -226t244 -94v640q-154 -4 -244 -94t-90 -226zM465 670v-640q155 4 244.5 94t89.5 226
t-89.5 226t-244.5 94z" />
    <glyph glyph-name="uni0432.loclBGR" horiz-adv-x="576" 
d="M486 550q0 -112 -122 -160q73 -9 120 -62t47 -131q0 -90 -62.5 -149t-162.5 -59q-107 0 -171.5 69.5t-64.5 204.5v115q-1 160 60 246.5t178 86.5q79 0 128.5 -46.5t49.5 -114.5zM448 548q0 53 -38.5 90t-101.5 37q-92 0 -146 -70.5t-54 -226.5v-14l184 33q76 14 116 54.5
t40 96.5zM108 263q0 -120 53.5 -179t144.5 -59q83 0 135 47t52 125q0 82 -57.5 130.5t-143.5 33.5l-184 -33v-65z" />
    <glyph glyph-name="uni0433.loclBGR" horiz-adv-x="467" 
d="M419 37q-32 -22 -83.5 -35t-100.5 -13q-85 0 -139.5 31.5t-54.5 96.5q0 39 18.5 65.5t48.5 40t66 22t71.5 16t65.5 18t48.5 31t18.5 52.5q0 47 -40.5 70t-100.5 23q-90 0 -172 -42v36q84 42 174 42q74 0 125.5 -32.5t51.5 -96.5q0 -44 -25 -73t-62.5 -40t-81 -22
t-81 -19.5t-62.5 -31.5t-25 -60q0 -46 43 -68.5t115 -22.5q47 0 97.5 13.5t84.5 36.5v-38z" />
    <glyph glyph-name="uni0434.loclBGR" horiz-adv-x="615" 
d="M47 240q0 112 67.5 181.5t171.5 69.5q70 0 125.5 -34.5t87.5 -90.5v114h35v-480q0 -115 -73.5 -173t-180.5 -58q-103 0 -190 46v37q91 -47 186 -47t157.5 48t62.5 147v111q-30 -53 -85 -87.5t-125 -34.5q-104 0 -171.5 69.5t-67.5 181.5zM496 310q-24 63 -79.5 104
t-127.5 41q-89 0 -146.5 -58t-57.5 -157q0 -98 58 -156.5t146 -58.5q72 0 127.5 40t79.5 101v144z" />
    <glyph glyph-name="uni0436.loclBGR" horiz-adv-x="719" 
d="M53 0h-44l211 246l-184 234h43l173 -217h88v437h38v-437h89l172 217h44l-184 -234l210 -246h-43l-198 227h-90v-227h-38v227h-89z" />
    <glyph glyph-name="uni0438.loclBGR" 
d="M458 480h38v-480h-35v99q-29 -44 -80 -77t-116 -33q-85 0 -137.5 53t-52.5 143v295h38v-291q0 -78 42.5 -121t112.5 -43q64 0 113 35t77 85v335z" />
    <glyph glyph-name="uni0439.loclBGR" 
d="M420 602q-50 -41 -128 -41t-128 41v37q56 -44 128 -44t128 44v-37zM458 480h38v-480h-35v99q-29 -44 -80 -77t-116 -33q-85 0 -137.5 53t-52.5 143v295h38v-291q0 -78 42.5 -121t112.5 -43q64 0 113 35t77 85v335z" />
    <glyph glyph-name="uni043A.loclBGR" horiz-adv-x="502" 
d="M494 0h-46l-209 229h-120v-229h-38v700h38v-435h123l180 215h45l-195 -234z" />
    <glyph glyph-name="uni043B.loclBGR" horiz-adv-x="525" 
d="M505 0h-42l-200 437l-201 -437h-42l222 480h41z" />
    <glyph glyph-name="uni043F.loclBGR" 
d="M116 381q29 44 80 77t116 33q82 0 136 -53.5t54 -142.5v-295h-38v291q0 78 -43.5 121t-111.5 43q-64 0 -113 -35t-77 -85v-335h-38v480h35v-99z" />
    <glyph glyph-name="uni0442.loclBGR" horiz-adv-x="892" 
d="M119 0h-38v480h35v-92q28 40 75.5 71.5t108.5 31.5q56 0 97.5 -28t59.5 -75q79 103 187 103q78 0 125.5 -51t47.5 -131v-309h-38v308q0 65 -37.5 106t-101.5 41q-100 0 -171 -104q4 -17 4 -42v-309h-38v308q0 65 -37.5 106t-101.5 41q-58 0 -103.5 -34t-73.5 -79v-342z
" />
    <glyph glyph-name="uni0446.loclBGR" horiz-adv-x="603" 
d="M496 89q0 -58 60 -58h21v-167h-36v134q-83 4 -83 97q-30 -43 -79.5 -74.5t-113.5 -31.5q-85 0 -137.5 53t-52.5 143v295h38v-291q0 -78 42.5 -121t112.5 -43q64 0 113 35t77 85v335h38v-391z" />
    <glyph glyph-name="uni0448.loclBGR" horiz-adv-x="892" 
d="M773 480h38v-480h-35v92q-28 -40 -75.5 -71.5t-108.5 -31.5q-56 0 -97.5 28t-59.5 75q-79 -103 -187 -103q-78 0 -125.5 51t-47.5 131v309h38v-308q0 -65 37.5 -106t101.5 -41q100 0 171 104q-4 17 -4 42v309h38v-308q0 -65 37.5 -106t101.5 -41q58 0 103.5 34t73.5 79
v342z" />
    <glyph glyph-name="uni0449.loclBGR" horiz-adv-x="918" 
d="M811 89q0 -58 60 -58h21v-167h-36v134q-83 4 -83 90q-28 -39 -75 -69t-106 -30q-56 0 -97 27t-61 74q-80 -101 -186 -101q-78 0 -125.5 51t-47.5 131v309h38v-308q0 -65 37.5 -106t101.5 -41q100 0 171 104q-4 17 -4 42v309h38v-308q0 -65 37.5 -106t101.5 -41
q58 0 103.5 34t73.5 79v342h38v-391z" />
    <glyph glyph-name="uni044E.loclBGR" horiz-adv-x="804" 
d="M757 240q0 -116 -73 -183.5t-176 -67.5q-99 0 -171 63t-78 170h-140v-222h-38v700h38v-442h140q6 107 78 170t171 63q103 0 176 -67.5t73 -183.5zM296 240q0 -98 61 -156t150 -58t150.5 58t61.5 156t-61.5 156t-150.5 58t-150 -58t-61 -156z" />
    <glyph glyph-name="uni0430.ss01" horiz-adv-x="615" 
d="M499 114q-31 -56 -85.5 -90.5t-124.5 -34.5q-104 0 -173 69.5t-69 181.5t69 181.5t173 69.5q70 0 124.5 -34.5t85.5 -90.5v114h35v-480h-35v114zM85 240q0 -99 59 -157t148 -58q72 0 127 41t77 104v140q-22 63 -77 104t-127 41q-89 0 -148 -58.5t-59 -156.5z" />
    <glyph glyph-name="uni0437.ss01" horiz-adv-x="451" 
d="M374 330q0 -113 -123 -160q73 -8 120.5 -61.5t47.5 -130.5q0 -95 -66 -152t-171 -57q-99 0 -168 45v37q67 -47 163 -47q89 0 146.5 46t57.5 128t-59 132t-145 31l-59 -13v35l67 15q80 19 115.5 56t35.5 94q0 58 -40.5 92.5t-103.5 34.5q-89 0 -162 -44v36q75 44 164 44
q78 0 129 -44.5t51 -116.5z" />
    <glyph glyph-name="uni0443.ss01" 
d="M496 -6q-1 -60 -22 -105t-56 -70t-75 -37.5t-84 -12.5q-102 0 -164 38v35q61 -37 160 -37q84 0 143.5 45.5t59.5 143.5v101q-30 -43 -79.5 -74.5t-113.5 -31.5q-85 0 -137.5 53t-52.5 143v295h38v-291q0 -78 42.5 -121t112.5 -43q64 0 113 35t77 85v335h38v-486z" />
    <glyph glyph-name="zero.osf" horiz-adv-x="658" 
d="M607 260q0 -108 -74 -189.5t-203 -81.5q-87 0 -152 40.5t-95.5 101t-30.5 129.5t30.5 129.5t95.5 101t152 40.5t152 -40.5t95 -101t30 -129.5zM92 260q0 -95 63 -164t175 -69q111 0 174 69t63 164t-63 164t-174 69q-112 0 -175 -69t-63 -164z" />
    <glyph glyph-name="one.osf" horiz-adv-x="411" 
d="M221 520h28v-482h138v-38h-331v38h153v439l-153 -58v38z" />
    <glyph glyph-name="two.osf" horiz-adv-x="523" 
d="M469 0h-420v26q0 21 5.5 40.5t11.5 33t22 28t25 22.5t33 21t33 17t39 17.5t37 16.5q9 4 37.5 16.5t40 18t33 19t30.5 25t17 30t8 39.5q0 55 -45 89.5t-113 34.5q-94 0 -195 -58v40q93 55 198 55q82 0 138.5 -44.5t56.5 -116.5q0 -23 -5.5 -42.5t-18.5 -35.5t-24.5 -27.5
t-33.5 -24t-34.5 -18.5t-39 -18t-36.5 -16q-10 -5 -34 -15.5t-33.5 -15t-29 -14.5t-27.5 -16.5t-21 -17.5t-18 -20.5t-9.5 -23t-4.5 -27.5h377v-38z" />
    <glyph glyph-name="three.osf" horiz-adv-x="539" 
d="M462 350q0 -55 -32 -98.5t-89 -56.5q63 -14 106 -57.5t43 -117.5q0 -89 -67 -140t-162 -51q-127 0 -211 45v39q85 -46 208 -46q82 0 138 40.5t56 114.5q0 76 -52.5 113.5t-125.5 37.5h-90v38l86 -1q72 0 112.5 40t40.5 97q0 66 -47 106.5t-126 40.5q-93 0 -188 -49v39
q91 47 192 47q93 0 150.5 -50.5t57.5 -130.5z" />
    <glyph glyph-name="four.osf" horiz-adv-x="592" 
d="M388 520h43v-477h134v-38h-134v-165h-39v165h-373v35zM392 43v420l-325 -420h325z" />
    <glyph glyph-name="five.osf" horiz-adv-x="529" 
d="M92 520h361v-38h-323l-18 -268q70 24 144 24q61 0 111.5 -19.5t85.5 -67t35 -117.5q0 -92 -67 -148.5t-171 -56.5q-110 0 -197 46v38q89 -47 193 -47q90 0 146 45.5t56 122.5q0 85 -58.5 126t-144.5 41q-88 0 -174 -32z" />
    <glyph glyph-name="six.osf" horiz-adv-x="580" 
d="M98 315q45 47 103 72.5t117 25.5q86 0 150.5 -54.5t64.5 -154.5q0 -98 -63.5 -156.5t-152.5 -58.5q-124 0 -191.5 88.5t-67.5 243.5q0 95 23.5 168t64.5 116t90.5 64.5t105.5 21.5q76 0 145 -37v-38q-69 37 -144 37q-101 0 -173 -82.5t-72 -250.5v-5zM100 271
q10 -117 66 -181t149 -64q74 0 126 46.5t52 130.5q0 86 -53.5 129.5t-129.5 43.5q-56 0 -112.5 -28t-97.5 -77z" />
    <glyph glyph-name="seven.osf" horiz-adv-x="470" 
d="M23 520h436v-34l-302 -646h-43l300 642h-391v38z" />
    <glyph glyph-name="eight.osf" horiz-adv-x="613" 
d="M81 524q0 67 60.5 117t164.5 50q100 0 163 -53.5t64 -123.5q1 -111 -112 -186q64 -26 100.5 -64.5t36.5 -98.5q0 -72 -65.5 -124t-184.5 -52q-118 0 -185 55t-67 139q0 58 34.5 109t97.5 85q-107 52 -107 147zM308 331q-17 6 -45 16t-40 14q-60 -29 -93.5 -75.5
t-33.5 -99.5q0 -71 56.5 -115.5t156.5 -44.5q95 0 152 40.5t57 97.5q0 45 -28 76.5t-57 44t-97 36.5q-19 7 -28 10zM493 508q0 58 -52 102t-136 44q-82 0 -133.5 -38t-51.5 -91q0 -34 13.5 -59t46 -44.5t51.5 -27.5t64 -23q8 -3 11 -4q45 -15 80 -26q107 69 107 167z" />
    <glyph glyph-name="nine.osf" horiz-adv-x="566" 
d="M39 316q0 98 63.5 156.5t152.5 58.5q125 0 192 -88.5t67 -243.5q0 -95 -23.5 -168t-64.5 -116t-90.5 -64.5t-105.5 -21.5q-76 0 -145 37v38q69 -37 144 -37q47 0 89.5 18.5t78.5 56.5t57 104.5t21 153.5v6q-93 -99 -221 -99q-86 0 -150.5 54.5t-64.5 154.5zM79 317
q0 -86 53.5 -129.5t130.5 -43.5q57 0 113.5 28t96.5 78q-10 116 -67 180t-149 64q-74 0 -126 -46.5t-52 -130.5z" />
    <glyph glyph-name="zero.sinf" horiz-adv-x="432" 
d="M394 104q0 -95 -45.5 -153t-132.5 -58t-132.5 58t-45.5 153t45.5 153t132.5 58t132.5 -58t45.5 -153zM72 104q0 -84 36 -131t108 -47t108 47.5t36 130.5t-36 130.5t-108 47.5t-108 -47t-36 -131z" />
    <glyph glyph-name="one.sinf" horiz-adv-x="258" 
d="M138 308h25v-376h77v-32h-209v32h99v340l-91 -34v32z" />
    <glyph glyph-name="two.sinf" horiz-adv-x="347" 
d="M46 277q56 38 127 38q60 0 97 -28t37 -77q0 -33 -19 -61t-39.5 -43.5t-58.5 -37.5q-4 -2 -17.5 -10.5t-18 -11t-16.5 -10.5t-16.5 -11.5t-14 -11.5t-13.5 -13.5t-10 -14t-9 -16t-5 -17.5t-2 -20h243v-32h-280v18q0 29 9.5 53.5t19 39.5t33.5 33.5t34.5 24.5t40.5 24
q37 22 54 33t34 34t17 50q0 34 -27.5 53.5t-75.5 19.5q-63 0 -124 -40v34z" />
    <glyph glyph-name="three.sinf" horiz-adv-x="357" 
d="M304 205q0 -32 -18.5 -57.5t-51.5 -34.5q37 -9 61.5 -34.5t24.5 -69.5q0 -55 -40 -85.5t-103 -30.5q-82 0 -142 27v33q57 -28 140 -28q51 0 82 21.5t31 64.5t-31 63t-80 20h-62v33h58q48 0 73 21.5t25 54.5q0 35 -28 57.5t-78 22.5q-63 0 -123 -29v33q56 28 127 28
q61 0 98 -31t37 -79z" />
    <glyph glyph-name="four.sinf" horiz-adv-x="392" 
d="M251 308h37v-281h82v-31h-82v-96h-34v96h-234v30zM254 27v235l-192 -235h192z" />
    <glyph glyph-name="five.sinf" horiz-adv-x="353" 
d="M62 308h239v-32h-207l-9 -144q42 13 84 13q64 0 108 -31t44 -95q0 -58 -42.5 -92t-110.5 -34q-76 0 -130 28v32q54 -28 127 -28q55 0 88 25t33 69q0 94 -129 94q-56 0 -108 -19z" />
    <glyph glyph-name="six.sinf" horiz-adv-x="378" 
d="M73 98q64 53 138 53q55 0 96 -33.5t41 -93.5q0 -61 -40.5 -96t-101.5 -35q-82 0 -124.5 53.5t-42.5 147.5q0 111 49.5 166t132.5 55q49 0 93 -23v-33q-40 23 -92 23q-67 0 -107.5 -44t-41.5 -140zM74 64q6 -68 39.5 -103.5t90.5 -35.5q48 0 79 25t31 72q0 50 -31.5 73.5
t-79.5 23.5q-74 0 -129 -55z" />
    <glyph glyph-name="seven.sinf" horiz-adv-x="309" 
d="M125 -100h-36l166 376h-237v32h275v-30z" />
    <glyph glyph-name="eight.sinf" horiz-adv-x="397" 
d="M52 213q0 41 38 71.5t108 30.5q66 0 106 -32.5t42 -76.5q0 -70 -63 -108q77 -34 77 -97q0 -44 -41 -76t-119 -32t-120.5 33.5t-42.5 83.5q0 74 75 115q-60 31 -60 88zM201 92q-55 18 -59 19q-34 -15 -52.5 -41.5t-18.5 -55.5q0 -40 33.5 -64.5t95.5 -24.5q58 0 92 21.5
t34 53.5q0 17 -8 30.5t-17 21.5t-29.5 16.5t-32 12t-38.5 11.5zM312 200q0 34 -30.5 58.5t-83.5 24.5q-52 0 -82 -20t-30 -50q0 -50 68 -74q9 -4 46 -15q31 -8 54 -15q58 34 58 91z" />
    <glyph glyph-name="nine.sinf" horiz-adv-x="378" 
d="M30 184q0 61 40.5 96t101.5 35q83 0 125 -53t42 -148q0 -112 -49 -166.5t-133 -54.5q-49 0 -93 23v33q40 -23 92 -23q67 0 107.5 44t41.5 140q-64 -53 -138 -53q-55 0 -96 33.5t-41 93.5zM64 186q0 -50 31.5 -73.5t79.5 -23.5q74 0 129 55q-6 68 -39.5 103.5t-90.5 35.5
q-48 0 -79 -25t-31 -72z" />
    <glyph glyph-name="zero.sups" horiz-adv-x="432" 
d="M394 580q0 -95 -45.5 -153t-132.5 -58t-132.5 58t-45.5 153t45.5 153t132.5 58t132.5 -58t45.5 -153zM72 580q0 -84 36 -131t108 -47t108 47.5t36 130.5t-36 130.5t-108 47.5t-108 -47t-36 -131z" />
    <glyph glyph-name="one.sups" horiz-adv-x="258" 
d="M138 780h25v-376h77v-32h-209v32h99v340l-91 -34v32z" />
    <glyph glyph-name="two.sups" horiz-adv-x="348" 
d="M46 753q56 38 127 38q60 0 97 -28t37 -77q0 -33 -19 -61t-39.5 -43.5t-58.5 -37.5q-4 -2 -17.5 -10.5t-18 -11t-16.5 -10.5t-16.5 -11.5t-14 -11.5t-13.5 -13.5t-10 -14t-9 -16t-5 -17.5t-2 -20h243v-32h-280v18q0 29 9.5 53.5t19 39.5t33.5 33.5t34.5 24.5t40.5 24
q37 22 54 33t34 34t17 50q0 34 -27.5 53.5t-75.5 19.5q-63 0 -124 -40v34z" />
    <glyph glyph-name="three.sups" horiz-adv-x="357" 
d="M304 681q0 -32 -18.5 -57.5t-51.5 -34.5q37 -9 61.5 -34.5t24.5 -69.5q0 -55 -40 -85.5t-103 -30.5q-82 0 -142 27v33q57 -28 140 -28q51 0 82 21.5t31 64.5t-31 63t-80 20h-62v33h58q48 0 73 21.5t25 54.5q0 35 -28 57.5t-78 22.5q-63 0 -123 -29v33q56 28 127 28
q61 0 98 -31t37 -79z" />
    <glyph glyph-name="four.sups" horiz-adv-x="392" 
d="M251 780h37v-281h82v-31h-82v-96h-34v96h-234v30zM254 499v235l-192 -235h192z" />
    <glyph glyph-name="five.sups" horiz-adv-x="353" 
d="M62 780h239v-32h-207l-9 -144q42 13 84 13q64 0 108 -31t44 -95q0 -58 -42.5 -92t-110.5 -34q-76 0 -130 28v32q54 -28 127 -28q55 0 88 25t33 69q0 94 -129 94q-56 0 -108 -19z" />
    <glyph glyph-name="six.sups" horiz-adv-x="378" 
d="M73 574q64 53 138 53q55 0 96 -33.5t41 -93.5q0 -61 -40.5 -96t-101.5 -35q-82 0 -124.5 53.5t-42.5 147.5q0 111 49.5 166t132.5 55q49 0 93 -23v-33q-40 23 -92 23q-67 0 -107.5 -44t-41.5 -140zM74 540q6 -68 39.5 -103.5t90.5 -35.5q48 0 79 25t31 72
q0 50 -31.5 73.5t-79.5 23.5q-74 0 -129 -55z" />
    <glyph glyph-name="seven.sups" horiz-adv-x="309" 
d="M125 372h-36l166 376h-237v32h275v-30z" />
    <glyph glyph-name="eight.sups" horiz-adv-x="397" 
d="M52 689q0 41 38 71.5t108 30.5q66 0 106 -32.5t42 -76.5q0 -70 -63 -108q77 -34 77 -97q0 -44 -41 -76t-119 -32t-120.5 33.5t-42.5 83.5q0 74 75 115q-60 31 -60 88zM201 568q-56 18 -59 19q-34 -15 -52.5 -41.5t-18.5 -55.5q0 -40 33.5 -64.5t95.5 -24.5q58 0 92 21.5
t34 53.5q0 17 -8 30.5t-17 21.5t-29.5 16.5t-32 12t-38.5 11.5zM312 676q0 34 -30.5 58.5t-83.5 24.5q-52 0 -82 -20t-30 -50q0 -50 68 -75q12 -4 37 -11l9 -3q31 -8 54 -15q58 34 58 91z" />
    <glyph glyph-name="nine.sups" horiz-adv-x="378" 
d="M30 660q0 61 40.5 96t101.5 35q83 0 125 -53t42 -148q0 -112 -49 -166.5t-133 -54.5q-49 0 -93 23v33q40 -23 92 -23q67 0 107.5 44t41.5 140q-64 -53 -138 -53q-55 0 -96 33.5t-41 93.5zM64 662q0 -50 31.5 -73.5t79.5 -23.5q74 0 129 55q-6 68 -39.5 103.5t-90.5 35.5
q-48 0 -79 -25t-31 -72z" />
    <glyph glyph-name="zero.tf" horiz-adv-x="618" 
d="M581 340q0 -157 -71.5 -254t-200.5 -97t-200.5 97t-71.5 254q0 158 71.5 254.5t200.5 96.5t200.5 -96.5t71.5 -254.5zM77 340q0 -144 60.5 -228.5t171.5 -84.5t171.5 84.5t60.5 228.5t-60.5 228.5t-171.5 84.5t-171.5 -84.5t-60.5 -228.5z" />
    <glyph glyph-name="one.tf" horiz-adv-x="618" 
d="M323 680h28v-642h218v-38h-494v38h236v599l-207 -77v38z" />
    <glyph glyph-name="two.tf" horiz-adv-x="618" 
d="M85 628q93 63 217 63q105 0 167.5 -45.5t62.5 -124.5q0 -42 -15 -76.5t-46.5 -63.5t-62.5 -49.5t-79 -45.5q-35 -19 -54 -29.5t-48.5 -30t-46 -36.5t-34 -40.5t-25.5 -51.5t-8 -60h436v-38h-479v22q0 48 15 89t34 68t55.5 55t61.5 43t69 38q48 26 74.5 43t56.5 42.5
t43 55t13 66.5q0 61 -51.5 96.5t-141.5 35.5q-114 0 -214 -65v39z" />
    <glyph glyph-name="three.tf" horiz-adv-x="618" 
d="M525 510q0 -55 -33 -98.5t-94 -56.5q67 -13 111 -56.5t44 -118.5q0 -91 -66.5 -141t-176.5 -50q-142 0 -241 46v39q102 -48 238 -47q97 0 152.5 39.5t55.5 115.5q0 78 -57 114.5t-151 36.5h-104v38l100 -1q92 0 137.5 39t45.5 98q0 64 -51 105.5t-144 41.5
q-109 0 -210 -49v39q96 47 214 47q107 0 168.5 -51.5t61.5 -129.5z" />
    <glyph glyph-name="four.tf" horiz-adv-x="618" 
d="M414 680h43v-477h135v-38h-135v-165h-39v165h-397v35zM418 203v423l-347 -423h347z" />
    <glyph glyph-name="five.tf" horiz-adv-x="618" 
d="M114 680h405v-38h-367l-18 -268q75 24 161 24q113 0 186 -50t73 -154q0 -93 -70 -149t-185 -56q-132 0 -224 46v38q94 -47 220 -47q101 0 160 45.5t59 122.5q0 86 -63.5 126.5t-166.5 40.5q-100 0 -191 -32z" />
    <glyph glyph-name="six.tf" horiz-adv-x="618" 
d="M103 313q106 100 240 100q93 0 159 -54.5t66 -154.5t-66 -157.5t-166 -57.5q-134 0 -203.5 88t-69.5 244q0 189 80 279.5t220 90.5q80 0 149 -37v-38q-69 37 -148 37q-121 0 -191 -80t-70 -253v-7zM105 270q11 -117 69.5 -180.5t159.5 -63.5q85 0 139.5 46t54.5 131
q0 87 -55 130t-138 43q-63 0 -124 -27.5t-106 -78.5z" />
    <glyph glyph-name="seven.tf" horiz-adv-x="618" 
d="M66 680h502v-34l-328 -646h-43l326 642h-457v38z" />
    <glyph glyph-name="eight.tf" horiz-adv-x="618" 
d="M68 524q0 68 63 117.5t177 49.5q110 0 175.5 -53t66.5 -124q1 -59 -28.5 -107.5t-83.5 -78.5q64 -26 100.5 -64.5t36.5 -98.5q0 -73 -68.5 -124.5t-196.5 -51.5t-197.5 55.5t-69.5 138.5q0 60 34.5 112t97.5 83q-107 50 -107 146zM312 330q-62 17 -101 31
q-61 -25 -94.5 -72t-33.5 -103q0 -72 58.5 -116t169.5 -44q104 0 164 40t60 98q0 30 -12 53.5t-30 39t-47 29t-55.5 22t-63.5 18.5q-10 3 -15 4zM510 508q0 58 -54.5 102t-148.5 44q-93 0 -146.5 -38t-53.5 -91q0 -36 16 -62.5t47 -43.5t57.5 -27t66.5 -21q10 -3 15 -4
q48 -13 92 -26q52 27 80.5 70.5t28.5 96.5z" />
    <glyph glyph-name="nine.tf" horiz-adv-x="618" 
d="M49 476q0 100 66 157.5t166 57.5q134 0 203.5 -88t69.5 -244q0 -189 -80 -279.5t-220 -90.5q-80 0 -149 37v38q69 -37 148 -37q122 0 192 80t70 253v8q-107 -101 -241 -101q-93 0 -159 54.5t-66 154.5zM89 477q0 -87 55.5 -130t138.5 -43q63 0 124 28t106 79
q-11 116 -70 179.5t-160 63.5q-85 0 -139.5 -46t-54.5 -131z" />
    <glyph glyph-name="zero.tosf" horiz-adv-x="618" 
d="M586 260q0 -108 -74 -189.5t-203 -81.5t-203 81.5t-74 189.5q0 109 74 190t203 81t203 -81t74 -190zM72 260q0 -95 63 -164t174 -69t174 69t63 164t-63 164t-174 69t-174 -69t-63 -164z" />
    <glyph glyph-name="one.tosf" horiz-adv-x="618" 
d="M322 520h28v-482h218v-38h-494v38h236v439l-207 -77v38z" />
    <glyph glyph-name="two.tosf" horiz-adv-x="618" 
d="M545 0h-475v26q0 44 20.5 79t59 58t73.5 37t83 28q100 29 143 56.5t43 84.5q0 56 -50 90.5t-138 34.5q-117 0 -215 -65v39q90 63 218 63q103 0 164 -44.5t61 -118.5q0 -71 -51 -106.5t-161 -67.5q-33 -10 -59 -19t-55 -23t-48.5 -30t-32 -37.5t-12.5 -46.5h432v-38z" />
    <glyph glyph-name="three.tosf" horiz-adv-x="618" 
d="M522 350q0 -55 -33 -98.5t-94 -56.5q67 -13 111 -56.5t44 -118.5q0 -91 -66 -141t-175 -50q-146 0 -239 45v39q96 -47 236 -46q95 0 150.5 39.5t55.5 115.5q0 77 -56.5 114t-149.5 37h-102v38l98 -1q91 0 136 39.5t45 97.5q0 64 -50.5 105.5t-142.5 41.5q-109 0 -208 -47
v39q93 45 212 45q105 0 166.5 -51.5t61.5 -129.5z" />
    <glyph glyph-name="four.tosf" horiz-adv-x="618" 
d="M412 520h43v-477h136v-38h-136v-165h-39v165h-397v35zM416 43v423l-347 -423h347z" />
    <glyph glyph-name="five.tosf" horiz-adv-x="618" 
d="M117 520h401v-38h-363l-18 -268q75 24 158 24q112 0 185 -50t73 -154q0 -93 -69 -149t-185 -56q-129 0 -221 46v38q94 -47 217 -47q102 0 160 45t58 123q0 86 -63.5 126.5t-165.5 40.5q-97 0 -188 -32z" />
    <glyph glyph-name="six.tosf" horiz-adv-x="618" 
d="M103 313q106 100 240 100q93 0 159 -54.5t66 -154.5t-66 -157.5t-166 -57.5q-134 0 -203.5 88t-69.5 244q0 189 80 279.5t220 90.5q80 0 149 -37v-38q-69 37 -148 37q-121 0 -191 -80t-70 -253v-7zM105 270q11 -117 69.5 -180.5t159.5 -63.5q85 0 139.5 46t54.5 131
q0 87 -55 130t-138 43q-63 0 -124 -27.5t-106 -78.5z" />
    <glyph glyph-name="seven.tosf" horiz-adv-x="618" 
d="M64 520h502v-34l-328 -646h-43l326 642h-457v38z" />
    <glyph glyph-name="eight.tosf" horiz-adv-x="618" 
d="M68 524q0 68 63 117.5t177 49.5q110 0 175.5 -53t66.5 -124q1 -59 -28.5 -107.5t-83.5 -78.5q64 -26 100.5 -64.5t36.5 -98.5q0 -73 -68.5 -124.5t-196.5 -51.5t-197.5 55.5t-69.5 138.5q0 60 34.5 112t97.5 83q-107 50 -107 146zM312 330q-62 17 -101 31
q-61 -25 -94.5 -72t-33.5 -103q0 -72 58.5 -116t169.5 -44q104 0 164 40t60 98q0 30 -12 53.5t-30 39t-47 29t-55.5 22t-63.5 18.5q-10 3 -15 4zM511 508q0 58 -54.5 102t-148.5 44q-93 0 -146.5 -38t-53.5 -91q0 -36 16 -62.5t47 -43.5t57.5 -27t66.5 -21q10 -3 15 -4
q48 -13 92 -26q52 27 80.5 70.5t28.5 96.5z" />
    <glyph glyph-name="nine.tosf" horiz-adv-x="618" 
d="M49 316q0 100 66 157.5t166 57.5q134 0 203.5 -88t69.5 -244q0 -189 -80 -279.5t-220 -90.5q-80 0 -149 37v38q69 -37 148 -37q122 0 192 80t70 253v8q-107 -101 -241 -101q-93 0 -159 54.5t-66 154.5zM89 317q0 -87 55.5 -130t138.5 -43q63 0 124 28t106 79
q-11 116 -70 179.5t-160 63.5q-85 0 -139.5 -46t-54.5 -131z" />
    <glyph glyph-name="zero.dnom" horiz-adv-x="432" 
d="M394 204q0 -95 -45.5 -153t-132.5 -58t-132.5 58t-45.5 153t45.5 153t132.5 58t132.5 -58t45.5 -153zM72 204q0 -84 36 -131t108 -47t108 47.5t36 130.5t-36 130.5t-108 47.5t-108 -47t-36 -131z" />
    <glyph glyph-name="one.dnom" horiz-adv-x="258" 
d="M138 408h25v-376h77v-32h-209v32h99v340l-91 -34v32z" />
    <glyph glyph-name="two.dnom" horiz-adv-x="347" 
d="M46 377q56 38 127 38q60 0 97 -28t37 -77q0 -33 -19 -61t-39.5 -43.5t-58.5 -37.5q-4 -2 -17.5 -10.5t-18 -11t-16.5 -10.5t-16.5 -11.5t-14 -11.5t-13.5 -13.5t-10 -14t-9 -16t-5 -17.5t-2 -20h243v-32h-280v18q0 29 9.5 53.5t19 39.5t33.5 33.5t34.5 24.5t40.5 24
q37 22 54 33t34 34t17 50q0 34 -27.5 53.5t-75.5 19.5q-63 0 -124 -40v34z" />
    <glyph glyph-name="three.dnom" horiz-adv-x="357" 
d="M304 305q0 -32 -18.5 -57.5t-51.5 -34.5q37 -8 61.5 -34t24.5 -70q0 -55 -40 -85.5t-103 -30.5q-82 0 -142 27v33q57 -28 140 -28q51 0 82 21.5t31 64.5t-31 63t-80 20h-62v33h58q48 0 73 21.5t25 54.5q0 35 -28 57.5t-78 22.5q-63 0 -123 -29v33q56 28 127 28
q61 0 98 -31t37 -79z" />
    <glyph glyph-name="four.dnom" horiz-adv-x="392" 
d="M251 408h37v-281h82v-31h-82v-96h-34v96h-234v30zM254 127v235l-192 -235h192z" />
    <glyph glyph-name="five.dnom" horiz-adv-x="353" 
d="M62 408h239v-32h-207l-9 -144q42 13 84 13q64 0 108 -31t44 -95q0 -58 -42.5 -92t-110.5 -34q-76 0 -130 28v32q54 -28 127 -28q55 0 88 25t33 69q0 94 -129 94q-56 0 -108 -19z" />
    <glyph glyph-name="six.dnom" horiz-adv-x="378" 
d="M73 198q64 53 138 53q55 0 96 -33.5t41 -93.5q0 -61 -40.5 -96t-101.5 -35q-82 0 -124.5 53.5t-42.5 147.5q0 111 49.5 166t132.5 55q49 0 93 -23v-33q-40 23 -92 23q-67 0 -107.5 -44t-41.5 -140zM74 164q6 -68 39.5 -103.5t90.5 -35.5q48 0 79 25t31 72
q0 50 -31.5 73.5t-79.5 23.5q-74 0 -129 -55z" />
    <glyph glyph-name="seven.dnom" horiz-adv-x="309" 
d="M125 0h-36l166 376h-237v32h275v-30z" />
    <glyph glyph-name="eight.dnom" horiz-adv-x="397" 
d="M52 313q0 41 38 71.5t108 30.5q66 0 106 -32.5t42 -76.5q0 -70 -63 -108q77 -34 77 -97q0 -44 -41 -76t-119 -32t-120.5 33.5t-42.5 83.5q0 74 75 115q-60 31 -60 88zM201 192q-55 18 -59 19q-34 -15 -52.5 -41.5t-18.5 -55.5q0 -40 33.5 -64.5t95.5 -24.5q58 0 92 21.5
t34 53.5q0 17 -8 30.5t-17 21.5t-29.5 16.5t-32 12t-38.5 11.5zM312 300q0 34 -30.5 58.5t-83.5 24.5q-52 0 -82 -20t-30 -50q0 -26 19 -44.5t34.5 -24.5t51.5 -17l9 -3q31 -8 54 -15q58 34 58 91z" />
    <glyph glyph-name="nine.dnom" horiz-adv-x="378" 
d="M30 284q0 61 40.5 96t101.5 35q83 0 125 -53t42 -148q0 -112 -49 -166.5t-133 -54.5q-49 0 -93 23v33q40 -23 92 -23q67 0 107.5 44t41.5 140q-64 -53 -138 -53q-55 0 -96 33.5t-41 93.5zM64 286q0 -50 31.5 -73.5t79.5 -23.5q74 0 129 55q-6 68 -39.5 103.5t-90.5 35.5
q-48 0 -79 -25t-31 -72z" />
    <glyph glyph-name="zero.numr" horiz-adv-x="432" 
d="M394 480q0 -95 -45.5 -153t-132.5 -58t-132.5 58t-45.5 153t45.5 153t132.5 58t132.5 -58t45.5 -153zM72 480q0 -84 36 -131t108 -47t108 47.5t36 130.5t-36 130.5t-108 47.5t-108 -47t-36 -131z" />
    <glyph glyph-name="one.numr" horiz-adv-x="258" 
d="M138 680h25v-376h77v-32h-209v32h99v340l-91 -34v32z" />
    <glyph glyph-name="two.numr" horiz-adv-x="348" 
d="M46 653q56 38 127 38q60 0 97 -28t37 -77q0 -33 -19 -61t-39.5 -43.5t-58.5 -37.5q-4 -2 -17.5 -10.5t-18 -11t-16.5 -10.5t-16.5 -11.5t-14 -11.5t-13.5 -13.5t-10 -14t-9 -16t-5 -17.5t-2 -20h243v-32h-280v18q0 29 9.5 53.5t19 39.5t33.5 33.5t34.5 24.5t40.5 24
q37 22 54 33t34 34t17 50q0 34 -27.5 53.5t-75.5 19.5q-63 0 -124 -40v34z" />
    <glyph glyph-name="three.numr" horiz-adv-x="357" 
d="M304 581q0 -32 -18.5 -57.5t-51.5 -34.5q37 -9 61.5 -34.5t24.5 -69.5q0 -55 -40 -85.5t-103 -30.5q-82 0 -142 27v33q57 -28 140 -28q51 0 82 21.5t31 64.5t-31 63t-80 20h-62v33h58q48 0 73 21.5t25 54.5q0 35 -28 57.5t-78 22.5q-63 0 -123 -29v33q56 28 127 28
q61 0 98 -31t37 -79z" />
    <glyph glyph-name="four.numr" horiz-adv-x="392" 
d="M251 680h37v-281h82v-31h-82v-96h-34v96h-234v30zM254 399v235l-192 -235h192z" />
    <glyph glyph-name="five.numr" horiz-adv-x="353" 
d="M62 680h239v-32h-207l-9 -144q42 13 84 13q64 0 108 -31t44 -95q0 -58 -42.5 -92t-110.5 -34q-76 0 -130 28v32q54 -28 127 -28q55 0 88 25t33 69q0 94 -129 94q-56 0 -108 -19z" />
    <glyph glyph-name="six.numr" horiz-adv-x="378" 
d="M73 474q64 53 138 53q55 0 96 -33.5t41 -93.5q0 -61 -40.5 -96t-101.5 -35q-82 0 -124.5 53.5t-42.5 147.5q0 111 49.5 166t132.5 55q49 0 93 -23v-33q-40 23 -92 23q-67 0 -107.5 -44t-41.5 -140zM74 440q6 -68 39.5 -103.5t90.5 -35.5q48 0 79 25t31 72
q0 50 -31.5 73.5t-79.5 23.5q-74 0 -129 -55z" />
    <glyph glyph-name="seven.numr" horiz-adv-x="309" 
d="M125 272h-36l166 376h-237v32h275v-30z" />
    <glyph glyph-name="eight.numr" horiz-adv-x="397" 
d="M52 589q0 41 38 71.5t108 30.5q66 0 106 -32.5t42 -76.5q0 -70 -63 -108q77 -34 77 -97q0 -44 -41 -76t-119 -32t-120.5 33.5t-42.5 83.5q0 74 75 115q-60 31 -60 88zM201 468q-56 18 -59 19q-34 -15 -52.5 -41.5t-18.5 -55.5q0 -40 33.5 -64.5t95.5 -24.5q58 0 92 21.5
t34 53.5q0 17 -8 30.5t-17 21.5t-29.5 16.5t-32 12t-38.5 11.5zM312 576q0 34 -30.5 58.5t-83.5 24.5q-52 0 -82 -20t-30 -50q0 -50 68 -74q9 -4 46 -15q31 -8 54 -15q58 34 58 91z" />
    <glyph glyph-name="nine.numr" horiz-adv-x="378" 
d="M30 560q0 61 40.5 96t101.5 35q83 0 125 -53t42 -148q0 -112 -49 -166.5t-133 -54.5q-49 0 -93 23v33q40 -23 92 -23q67 0 107.5 44t41.5 140q-64 -53 -138 -53q-55 0 -96 33.5t-41 93.5zM64 562q0 -50 31.5 -73.5t79.5 -23.5q74 0 129 55q-6 68 -39.5 103.5t-90.5 35.5
q-48 0 -79 -25t-31 -72z" />
    <glyph glyph-name="emdash.case" horiz-adv-x="760" 
d="M687 332h-614v36h614v-36z" />
    <glyph glyph-name="endash.case" horiz-adv-x="576" 
d="M503 332h-430v36h430v-36z" />
    <glyph glyph-name="hyphen.case" horiz-adv-x="493" 
d="M73 368h347v-36h-347v36z" />
    <glyph glyph-name="guillemotleft.case" horiz-adv-x="452" 
d="M379 176h-42l-119 169v10l119 169h42l-123 -174zM220 176h-42l-119 169v10l119 169h42l-123 -174z" />
    <glyph glyph-name="guillemotright.case" horiz-adv-x="452" 
d="M273 176h-41l123 174l-123 174h41l120 -169v-10zM114 176h-41l123 174l-123 174h41l120 -169v-10z" />
    <glyph glyph-name="guilsinglleft.case" horiz-adv-x="293" 
d="M220 176h-42l-119 169v10l119 169h42l-123 -174z" />
    <glyph glyph-name="guilsinglright.case" horiz-adv-x="293" 
d="M114 176h-41l123 174l-123 174h41l120 -169v-10z" />
    <glyph glyph-name="cent.tf" horiz-adv-x="618" 
d="M372 25q78 3 139 38v-38q-60 -31 -139 -36v-109h-34v109q-98 6 -165.5 69t-67.5 178q0 116 68 181t165 73v110h34v-109q78 -3 134 -39v-37q-56 38 -134 40v-430zM338 454q-83 -9 -139 -64t-56 -153q0 -97 56 -151t139 -60v428z" />
    <glyph glyph-name="currency.tf" horiz-adv-x="618" 
d="M189 201l-84 -85l-27 27l83 83q-47 50 -47 124t47 124l-83 83l27 27l84 -85q52 38 120 38q69 0 119 -38l85 85l27 -27l-84 -83q47 -50 47 -124t-47 -124l84 -83l-27 -27l-85 85q-50 -38 -119 -38q-68 0 -120 38zM152 350q0 -68 45.5 -110t111.5 -42t111 42t45 110
q0 67 -45.5 109.5t-110.5 42.5q-66 0 -111.5 -42t-45.5 -110z" />
    <glyph glyph-name="dollar.tf" horiz-adv-x="618" 
d="M329 -130h-34v120q-119 5 -216 58v40q107 -61 239 -61q89 0 143.5 31t54.5 101q0 45 -24 77t-63 50t-85.5 32t-93 29t-85.5 35t-63 55.5t-24 84.5q0 82 61.5 124t154.5 44v120h34v-120q105 -5 181 -48v-39q-87 50 -199 50q-85 0 -138.5 -31t-53.5 -99q0 -42 24 -72.5
t63 -47.5t85.5 -30.5t93 -29t85.5 -36t63 -57.5t24 -88q0 -87 -63.5 -129t-163.5 -44v-119z" />
    <glyph glyph-name="Euro.tf" horiz-adv-x="618" 
d="M144 252q27 -108 117 -166.5t200 -58.5q65 0 125 21v-38q-66 -21 -132 -21q-79 0 -150.5 28.5t-127 89.5t-73.5 145h-88v34h82q-3 22 -3 48q0 28 5 60h-84v34h90q30 123 128.5 193t214.5 70q70 0 133 -21v-37q-60 20 -126 20q-103 0 -191 -59.5t-117 -165.5h344v-34h-352
q-5 -32 -5 -60q0 -26 3 -48h354v-34h-347z" />
    <glyph glyph-name="sterling.tf" horiz-adv-x="618" 
d="M570 0h-530v38h45q30 0 48 22.5t18 59.5v199h-78v38h78v106q0 115 65 171t163 56q81 0 143 -38v-38q-62 39 -139 39q-84 0 -138 -47t-54 -144v-105h247v-38h-247v-199q0 -62 -36 -82h415v-38z" />
    <glyph glyph-name="yen.tf" horiz-adv-x="618" 
d="M543 680h44l-240 -371h166v-34h-184v-87h184v-34h-184v-154h-40v154h-184v34h184v87h-184v34h166l-240 371h44l234 -364z" />
    </font>
</defs>
</svg>
