<svg version="1.1" id="Layer_1" xmlns="http://www.w3.org/2000/svg" xmlns:xlink="http://www.w3.org/1999/xlink" x="0px" y="0px" width="50px" height="50px" viewBox="0 0 48 48" enable-background="new 0 0 48 48" xml:space="preserve"> <g> <path style="fill:#fff;" d="M24,3.125c11.511,0,20.875,9.364,20.875,20.875S35.511,44.875,24,44.875S3.125,35.511,3.125,24S12.489,3.125,24,3.125 M24,0.125C10.814,0.125,0.125,10.814,0.125,24S10.814,47.875,24,47.875S47.875,37.186,47.875,24S37.186,0.125,24,0.125L24,0.125z"></path> </g> <path style="fill:#fff;" d="M25.5,36.033c0,0.828-0.671,1.5-1.5,1.5s-1.5-0.672-1.5-1.5V16.87l-7.028,7.061c-0.293,0.294-0.678,0.442-1.063,0.442 c-0.383,0-0.766-0.146-1.058-0.437c-0.587-0.584-0.589-1.534-0.005-2.121l9.591-9.637c0.281-0.283,0.664-0.442,1.063-0.442 c0,0,0.001,0,0.001,0c0.399,0,0.783,0.16,1.063,0.443l9.562,9.637c0.584,0.588,0.58,1.538-0.008,2.122 c-0.589,0.583-1.538,0.58-2.121-0.008l-6.994-7.049L25.5,36.033z"></path> </svg>